M48
;DRILL file {KiCad 4.0.4+e1-6308~48~ubuntu14.04.1-stable} date Tue Oct 11 14:31:36 2016
;FORMAT={-:-/ absolute / metric / decimal}
FMAT,2
METRIC,TZ
T1C0.400
T2C0.635
T3C0.701
T4C0.762
T5C0.800
T6C1.001
T7C1.016
T8C3.300
%
G90
G05
M71
T1
X93.98Y-72.39
X93.98Y-76.2
X93.98Y-80.01
X93.98Y-83.82
X99.695Y-78.105
X99.695Y-88.265
X99.695Y-90.805
X99.695Y-95.885
X99.695Y-100.965
X102.235Y-108.585
X102.87Y-81.915
X104.775Y-125.73
X106.68Y-81.915
X107.315Y-108.585
X109.855Y-100.33
X110.49Y-81.915
X110.49Y-89.535
X111.506Y-97.79
X111.76Y-76.2
X112.395Y-78.74
X113.03Y-95.25
X113.665Y-76.2
X114.3Y-92.71
X115.57Y-81.915
X115.57Y-148.59
X116.332Y-154.813
X116.84Y-82.55
X116.84Y-85.09
X116.84Y-87.63
X116.84Y-91.44
X116.84Y-94.615
X116.84Y-97.155
X116.84Y-99.695
X116.84Y-103.505
X116.84Y-106.68
X116.84Y-109.22
X116.84Y-112.395
X116.84Y-116.205
X116.84Y-118.745
X116.84Y-121.285
X116.84Y-123.825
X116.84Y-128.905
X116.84Y-130.81
X116.84Y-133.35
X118.491Y-127.254
X118.745Y-135.89
X120.015Y-76.2
X126.365Y-65.405
X126.619Y-150.876
X128.905Y-65.405
X128.905Y-69.85
X130.175Y-128.27
X131.445Y-71.755
X131.445Y-135.89
X132.08Y-129.54
X132.715Y-132.08
X132.715Y-133.985
X135.89Y-71.755
X137.795Y-69.85
X140.97Y-107.95
X142.875Y-83.185
X142.875Y-107.95
X143.51Y-69.85
X144.145Y-84.455
X144.78Y-109.855
X145.415Y-85.725
X146.05Y-134.62
X146.685Y-93.98
X146.685Y-117.475
X151.13Y-85.725
X151.13Y-109.855
X151.13Y-134.62
X151.765Y-117.475
X152.4Y-93.345
X153.035Y-67.31
X154.94Y-73.66
X156.845Y-83.82
X156.845Y-95.885
X156.845Y-107.95
X156.845Y-120.015
X156.845Y-132.08
X157.48Y-62.23
X157.48Y-68.58
X157.48Y-71.12
X159.385Y-71.12
X160.655Y-83.82
X160.655Y-95.885
X160.655Y-107.95
X160.655Y-120.015
X160.655Y-132.08
X161.29Y-62.23
X161.29Y-70.485
X163.195Y-71.12
X163.195Y-76.2
X164.465Y-83.82
X164.465Y-95.885
X164.465Y-107.95
X164.465Y-120.015
X164.465Y-132.08
X165.735Y-71.12
X166.37Y-80.01
X166.37Y-100.584
X166.37Y-104.14
X166.37Y-112.268
X166.37Y-116.332
X166.37Y-124.46
X166.37Y-128.27
X167.005Y-76.835
X168.275Y-138.43
X168.91Y-74.93
X168.91Y-76.835
X170.18Y-62.23
X170.18Y-69.215
X170.18Y-73.025
X171.45Y-90.17
X171.45Y-93.98
X171.45Y-97.79
X171.45Y-101.6
X171.45Y-106.045
X171.45Y-107.95
X171.45Y-110.49
X171.45Y-117.475
X171.45Y-120.015
X171.45Y-121.92
X172.085Y-73.025
X172.085Y-76.835
X172.72Y-138.43
X172.72Y-148.59
X173.482Y-154.813
X177.8Y-138.43
X178.435Y-82.55
X178.435Y-85.09
X180.34Y-126.365
X180.34Y-128.27
X180.34Y-130.175
X180.975Y-94.615
X180.975Y-97.155
X180.975Y-106.68
X180.975Y-109.22
X180.975Y-118.745
X180.975Y-121.285
X183.515Y-78.74
X183.515Y-94.615
X183.769Y-150.876
T2
X166.37Y-88.392
X166.37Y-92.202
T3
X103.76Y-154.683
X113.92Y-154.683
X160.91Y-154.683
X171.07Y-154.683
T4
X102.87Y-67.31
X102.87Y-69.85
X102.87Y-80.01
X110.49Y-67.31
X110.49Y-69.85
X110.49Y-80.01
X121.285Y-80.01
X121.285Y-87.63
X121.285Y-92.075
X121.285Y-99.695
X121.285Y-104.14
X121.285Y-111.76
X121.285Y-116.205
X121.285Y-123.825
X121.285Y-128.27
X121.285Y-135.89
X123.825Y-80.01
X123.825Y-87.63
X123.825Y-92.075
X123.825Y-99.695
X123.825Y-104.14
X123.825Y-111.76
X123.825Y-116.205
X123.825Y-123.825
X123.825Y-128.27
X123.825Y-135.89
X133.985Y-80.01
X133.985Y-87.63
X133.985Y-92.075
X133.985Y-99.695
X133.985Y-104.14
X133.985Y-111.76
X133.985Y-116.205
X133.985Y-123.825
X133.985Y-128.27
X133.985Y-135.89
X148.59Y-66.04
X148.59Y-73.66
X151.13Y-66.04
X151.13Y-73.66
X161.29Y-66.04
X161.29Y-73.66
X163.83Y-80.01
X163.83Y-87.63
X163.83Y-92.075
X163.83Y-99.695
X163.83Y-104.14
X163.83Y-111.76
X163.83Y-116.205
X163.83Y-123.825
X163.83Y-128.27
X163.83Y-135.89
X164.465Y-66.04
X164.465Y-73.66
X167.005Y-66.04
X167.005Y-73.66
X173.99Y-80.01
X173.99Y-87.63
X173.99Y-92.075
X173.99Y-99.695
X173.99Y-104.14
X173.99Y-111.76
X173.99Y-116.205
X173.99Y-123.825
X173.99Y-128.27
X173.99Y-135.89
X176.53Y-80.01
X176.53Y-87.63
X176.53Y-92.075
X176.53Y-99.695
X176.53Y-104.14
X176.53Y-111.76
X176.53Y-116.205
X176.53Y-123.825
X176.53Y-128.27
X176.53Y-135.89
X177.165Y-66.04
X177.165Y-73.66
T5
X94.869Y-143.256
X94.869Y-150.876
X97.155Y-86.995
X97.155Y-89.535
X97.155Y-92.075
X97.155Y-94.615
X97.155Y-97.155
X97.155Y-99.695
X97.155Y-102.235
X97.155Y-104.775
X97.409Y-143.256
X97.409Y-150.876
X99.949Y-143.256
X99.949Y-150.876
X102.489Y-143.256
X102.489Y-150.876
X104.775Y-86.995
X104.775Y-89.535
X104.775Y-92.075
X104.775Y-94.615
X104.775Y-97.155
X104.775Y-99.695
X104.775Y-102.235
X104.775Y-104.775
X105.029Y-143.256
X105.029Y-150.876
X107.569Y-143.256
X107.569Y-150.876
X110.109Y-143.256
X110.109Y-150.876
X152.019Y-143.256
X152.019Y-150.876
X154.559Y-143.256
X154.559Y-150.876
X157.099Y-143.256
X157.099Y-150.876
X159.639Y-143.256
X159.639Y-150.876
X162.179Y-143.256
X162.179Y-150.876
X164.719Y-143.256
X164.719Y-150.876
X167.259Y-143.256
X167.259Y-150.876
T6
X115.57Y-67.31
X120.65Y-72.39
X125.73Y-73.025
X130.81Y-67.945
X137.795Y-67.31
X139.7Y-86.36
X139.7Y-92.71
X139.7Y-110.49
X139.7Y-117.475
X139.7Y-134.62
X142.875Y-72.39
X144.78Y-81.28
X144.78Y-97.79
X144.78Y-105.41
X144.78Y-122.555
X144.78Y-129.54
X153.035Y-81.28
X153.035Y-98.425
X153.035Y-105.41
X153.035Y-122.555
X153.035Y-129.54
X158.115Y-86.36
X158.115Y-93.345
X158.115Y-110.49
X158.115Y-117.475
X158.115Y-134.62
T7
X92.71Y-86.995
X92.71Y-89.535
X92.71Y-92.075
X92.71Y-94.615
X92.71Y-97.155
X92.71Y-99.695
X92.71Y-102.235
X92.71Y-104.775
X92.71Y-111.76
X92.71Y-114.3
X93.599Y-157.861
X96.139Y-157.861
X98.679Y-157.861
X101.219Y-157.861
X103.759Y-157.861
X106.299Y-157.861
X108.839Y-157.861
X111.379Y-157.861
X113.919Y-157.861
X116.459Y-143.256
X116.459Y-157.861
X118.999Y-143.256
X118.999Y-157.861
X121.539Y-143.256
X121.539Y-157.861
X124.079Y-143.256
X124.079Y-157.861
X126.619Y-143.256
X126.619Y-157.861
X150.749Y-157.861
X153.289Y-157.861
X155.829Y-157.861
X158.369Y-157.861
X160.909Y-157.861
X163.449Y-157.861
X164.465Y-62.23
X165.989Y-157.861
X167.005Y-62.23
X168.529Y-157.861
X171.069Y-157.861
X173.609Y-143.256
X173.609Y-157.861
X176.149Y-143.256
X176.149Y-157.861
X178.689Y-143.256
X178.689Y-157.861
X181.229Y-143.256
X181.229Y-157.861
X183.515Y-73.66
X183.515Y-76.2
X183.515Y-89.535
X183.515Y-92.075
X183.769Y-143.256
X183.769Y-157.861
T8
X94.Y-66.
X94.Y-134.
X182.Y-66.
X182.Y-134.
T0
M30
