G04 #@! TF.FileFunction,Legend,Bot*
%FSLAX46Y46*%
G04 Gerber Fmt 4.6, Leading zero omitted, Abs format (unit mm)*
G04 Created by KiCad (PCBNEW 4.0.4+e1-6308~48~ubuntu14.04.1-stable) date Tue Oct 11 14:30:50 2016*
%MOMM*%
%LPD*%
G01*
G04 APERTURE LIST*
%ADD10C,0.100000*%
%ADD11C,0.150000*%
G04 APERTURE END LIST*
D10*
D11*
X89666666Y-160000000D02*
G75*
G03X89666666Y-160000000I-1666666J0D01*
G01*
X85500000Y-160000000D02*
X90500000Y-160000000D01*
X88000000Y-157500000D02*
X88000000Y-162500000D01*
X88000000Y-160000000D02*
X88000000Y-60000000D01*
X188000000Y-160000000D02*
X88000000Y-160000000D01*
X188000000Y-60000000D02*
X188000000Y-160000000D01*
X88000000Y-60000000D02*
X188000000Y-60000000D01*
X175074000Y-149876000D02*
X175074000Y-151876000D01*
X177224000Y-151876000D02*
X177224000Y-149876000D01*
X159750000Y-81035000D02*
X157750000Y-81035000D01*
X157750000Y-78985000D02*
X159750000Y-78985000D01*
X159750000Y-100720000D02*
X157750000Y-100720000D01*
X157750000Y-98670000D02*
X159750000Y-98670000D01*
X159750000Y-105165000D02*
X157750000Y-105165000D01*
X157750000Y-103115000D02*
X159750000Y-103115000D01*
X159750000Y-124850000D02*
X157750000Y-124850000D01*
X157750000Y-122800000D02*
X159750000Y-122800000D01*
X159750000Y-129295000D02*
X157750000Y-129295000D01*
X157750000Y-127245000D02*
X159750000Y-127245000D01*
X151400000Y-86605000D02*
X153400000Y-86605000D01*
X153400000Y-88655000D02*
X151400000Y-88655000D01*
X152035000Y-91050000D02*
X154035000Y-91050000D01*
X154035000Y-93100000D02*
X152035000Y-93100000D01*
X151400000Y-110735000D02*
X153400000Y-110735000D01*
X153400000Y-112785000D02*
X151400000Y-112785000D01*
X152035000Y-115180000D02*
X154035000Y-115180000D01*
X154035000Y-117230000D02*
X152035000Y-117230000D01*
X151400000Y-134865000D02*
X153400000Y-134865000D01*
X153400000Y-136915000D02*
X151400000Y-136915000D01*
X149615000Y-81550000D02*
X149615000Y-83550000D01*
X147565000Y-83550000D02*
X147565000Y-81550000D01*
X150250000Y-96155000D02*
X150250000Y-98155000D01*
X148200000Y-98155000D02*
X148200000Y-96155000D01*
X149615000Y-105045000D02*
X149615000Y-107045000D01*
X147565000Y-107045000D02*
X147565000Y-105045000D01*
X150250000Y-120285000D02*
X150250000Y-122285000D01*
X148200000Y-122285000D02*
X148200000Y-120285000D01*
X149615000Y-129175000D02*
X149615000Y-131175000D01*
X147565000Y-131175000D02*
X147565000Y-129175000D01*
X145780000Y-88655000D02*
X143780000Y-88655000D01*
X143780000Y-86605000D02*
X145780000Y-86605000D01*
X146415000Y-93100000D02*
X144415000Y-93100000D01*
X144415000Y-91050000D02*
X146415000Y-91050000D01*
X145780000Y-112785000D02*
X143780000Y-112785000D01*
X143780000Y-110735000D02*
X145780000Y-110735000D01*
X146415000Y-117230000D02*
X144415000Y-117230000D01*
X144415000Y-115180000D02*
X146415000Y-115180000D01*
X145780000Y-136915000D02*
X143780000Y-136915000D01*
X143780000Y-134865000D02*
X145780000Y-134865000D01*
X140065000Y-82305000D02*
X138065000Y-82305000D01*
X138065000Y-80255000D02*
X140065000Y-80255000D01*
X140065000Y-100720000D02*
X138065000Y-100720000D01*
X138065000Y-98670000D02*
X140065000Y-98670000D01*
X140065000Y-106435000D02*
X138065000Y-106435000D01*
X138065000Y-104385000D02*
X140065000Y-104385000D01*
X140065000Y-124850000D02*
X138065000Y-124850000D01*
X138065000Y-122800000D02*
X140065000Y-122800000D01*
X140065000Y-130565000D02*
X138065000Y-130565000D01*
X138065000Y-128515000D02*
X140065000Y-128515000D01*
X108220000Y-63745000D02*
X110220000Y-63745000D01*
X110220000Y-65795000D02*
X108220000Y-65795000D01*
X114570000Y-73270000D02*
X116570000Y-73270000D01*
X116570000Y-75320000D02*
X114570000Y-75320000D01*
X120920000Y-64380000D02*
X122920000Y-64380000D01*
X122920000Y-66430000D02*
X120920000Y-66430000D01*
X131175000Y-74685000D02*
X129175000Y-74685000D01*
X129175000Y-72635000D02*
X131175000Y-72635000D01*
X132350000Y-64380000D02*
X134350000Y-64380000D01*
X134350000Y-66430000D02*
X132350000Y-66430000D01*
X136160000Y-72635000D02*
X138160000Y-72635000D01*
X138160000Y-74685000D02*
X136160000Y-74685000D01*
X142510000Y-66920000D02*
X144510000Y-66920000D01*
X144510000Y-68970000D02*
X142510000Y-68970000D01*
X125485000Y-86580000D02*
X129085000Y-86580000D01*
X125485000Y-88680000D02*
X129085000Y-88680000D01*
X127535000Y-87930000D02*
X127535000Y-87330000D01*
X127535000Y-87330000D02*
X127235000Y-87630000D01*
X127235000Y-87630000D02*
X127435000Y-87830000D01*
X127435000Y-87830000D02*
X127435000Y-87580000D01*
X127435000Y-87580000D02*
X127385000Y-87630000D01*
X127135000Y-88130000D02*
X127135000Y-87130000D01*
X127635000Y-87630000D02*
X128135000Y-87630000D01*
X127135000Y-87630000D02*
X127635000Y-88130000D01*
X127635000Y-88130000D02*
X127635000Y-87130000D01*
X127635000Y-87130000D02*
X127135000Y-87630000D01*
X125485000Y-98645000D02*
X129085000Y-98645000D01*
X125485000Y-100745000D02*
X129085000Y-100745000D01*
X127535000Y-99995000D02*
X127535000Y-99395000D01*
X127535000Y-99395000D02*
X127235000Y-99695000D01*
X127235000Y-99695000D02*
X127435000Y-99895000D01*
X127435000Y-99895000D02*
X127435000Y-99645000D01*
X127435000Y-99645000D02*
X127385000Y-99695000D01*
X127135000Y-100195000D02*
X127135000Y-99195000D01*
X127635000Y-99695000D02*
X128135000Y-99695000D01*
X127135000Y-99695000D02*
X127635000Y-100195000D01*
X127635000Y-100195000D02*
X127635000Y-99195000D01*
X127635000Y-99195000D02*
X127135000Y-99695000D01*
X125485000Y-110710000D02*
X129085000Y-110710000D01*
X125485000Y-112810000D02*
X129085000Y-112810000D01*
X127535000Y-112060000D02*
X127535000Y-111460000D01*
X127535000Y-111460000D02*
X127235000Y-111760000D01*
X127235000Y-111760000D02*
X127435000Y-111960000D01*
X127435000Y-111960000D02*
X127435000Y-111710000D01*
X127435000Y-111710000D02*
X127385000Y-111760000D01*
X127135000Y-112260000D02*
X127135000Y-111260000D01*
X127635000Y-111760000D02*
X128135000Y-111760000D01*
X127135000Y-111760000D02*
X127635000Y-112260000D01*
X127635000Y-112260000D02*
X127635000Y-111260000D01*
X127635000Y-111260000D02*
X127135000Y-111760000D01*
X125485000Y-122775000D02*
X129085000Y-122775000D01*
X125485000Y-124875000D02*
X129085000Y-124875000D01*
X127535000Y-124125000D02*
X127535000Y-123525000D01*
X127535000Y-123525000D02*
X127235000Y-123825000D01*
X127235000Y-123825000D02*
X127435000Y-124025000D01*
X127435000Y-124025000D02*
X127435000Y-123775000D01*
X127435000Y-123775000D02*
X127385000Y-123825000D01*
X127135000Y-124325000D02*
X127135000Y-123325000D01*
X127635000Y-123825000D02*
X128135000Y-123825000D01*
X127135000Y-123825000D02*
X127635000Y-124325000D01*
X127635000Y-124325000D02*
X127635000Y-123325000D01*
X127635000Y-123325000D02*
X127135000Y-123825000D01*
X125485000Y-134840000D02*
X129085000Y-134840000D01*
X125485000Y-136940000D02*
X129085000Y-136940000D01*
X127535000Y-136190000D02*
X127535000Y-135590000D01*
X127535000Y-135590000D02*
X127235000Y-135890000D01*
X127235000Y-135890000D02*
X127435000Y-136090000D01*
X127435000Y-136090000D02*
X127435000Y-135840000D01*
X127435000Y-135840000D02*
X127385000Y-135890000D01*
X127135000Y-136390000D02*
X127135000Y-135390000D01*
X127635000Y-135890000D02*
X128135000Y-135890000D01*
X127135000Y-135890000D02*
X127635000Y-136390000D01*
X127635000Y-136390000D02*
X127635000Y-135390000D01*
X127635000Y-135390000D02*
X127135000Y-135890000D01*
X104555000Y-72780000D02*
X104555000Y-76380000D01*
X102455000Y-72780000D02*
X102455000Y-76380000D01*
X103205000Y-74830000D02*
X103805000Y-74830000D01*
X103805000Y-74830000D02*
X103505000Y-74530000D01*
X103505000Y-74530000D02*
X103305000Y-74730000D01*
X103305000Y-74730000D02*
X103555000Y-74730000D01*
X103555000Y-74730000D02*
X103505000Y-74680000D01*
X103005000Y-74430000D02*
X104005000Y-74430000D01*
X103505000Y-74930000D02*
X103505000Y-75430000D01*
X103505000Y-74430000D02*
X103005000Y-74930000D01*
X103005000Y-74930000D02*
X104005000Y-74930000D01*
X104005000Y-74930000D02*
X103505000Y-74430000D01*
X129270000Y-82745000D02*
X127270000Y-82745000D01*
X127270000Y-84895000D02*
X129270000Y-84895000D01*
X129270000Y-94810000D02*
X127270000Y-94810000D01*
X127270000Y-96960000D02*
X129270000Y-96960000D01*
X129270000Y-106875000D02*
X127270000Y-106875000D01*
X127270000Y-109025000D02*
X129270000Y-109025000D01*
X129270000Y-118940000D02*
X127270000Y-118940000D01*
X127270000Y-121090000D02*
X129270000Y-121090000D01*
X129270000Y-131005000D02*
X127270000Y-131005000D01*
X127270000Y-133155000D02*
X129270000Y-133155000D01*
X107755000Y-75295000D02*
X107755000Y-73295000D01*
X105605000Y-73295000D02*
X105605000Y-75295000D01*
X174990000Y-86115000D02*
X172990000Y-86115000D01*
X172990000Y-84065000D02*
X174990000Y-84065000D01*
X178165000Y-110245000D02*
X176165000Y-110245000D01*
X176165000Y-108195000D02*
X178165000Y-108195000D01*
X178165000Y-122310000D02*
X176165000Y-122310000D01*
X176165000Y-120260000D02*
X178165000Y-120260000D01*
X174355000Y-134375000D02*
X172355000Y-134375000D01*
X172355000Y-132325000D02*
X174355000Y-132325000D01*
X174990000Y-83575000D02*
X172990000Y-83575000D01*
X172990000Y-81525000D02*
X174990000Y-81525000D01*
X178165000Y-95640000D02*
X176165000Y-95640000D01*
X176165000Y-93590000D02*
X178165000Y-93590000D01*
X178165000Y-107705000D02*
X176165000Y-107705000D01*
X176165000Y-105655000D02*
X178165000Y-105655000D01*
X178165000Y-119770000D02*
X176165000Y-119770000D01*
X176165000Y-117720000D02*
X178165000Y-117720000D01*
X174355000Y-131835000D02*
X172355000Y-131835000D01*
X172355000Y-129785000D02*
X174355000Y-129785000D01*
X119650000Y-84065000D02*
X121650000Y-84065000D01*
X121650000Y-86115000D02*
X119650000Y-86115000D01*
X119650000Y-96130000D02*
X121650000Y-96130000D01*
X121650000Y-98180000D02*
X119650000Y-98180000D01*
X119650000Y-108195000D02*
X121650000Y-108195000D01*
X121650000Y-110245000D02*
X119650000Y-110245000D01*
X119650000Y-120260000D02*
X121650000Y-120260000D01*
X121650000Y-122310000D02*
X119650000Y-122310000D01*
X119650000Y-132325000D02*
X121650000Y-132325000D01*
X121650000Y-134375000D02*
X119650000Y-134375000D01*
X119650000Y-81525000D02*
X121650000Y-81525000D01*
X121650000Y-83575000D02*
X119650000Y-83575000D01*
X119650000Y-93590000D02*
X121650000Y-93590000D01*
X121650000Y-95640000D02*
X119650000Y-95640000D01*
X119650000Y-105655000D02*
X121650000Y-105655000D01*
X121650000Y-107705000D02*
X119650000Y-107705000D01*
X119650000Y-117720000D02*
X121650000Y-117720000D01*
X121650000Y-119770000D02*
X119650000Y-119770000D01*
X119650000Y-129785000D02*
X121650000Y-129785000D01*
X121650000Y-131835000D02*
X119650000Y-131835000D01*
X98670000Y-75295000D02*
X98670000Y-73295000D01*
X100720000Y-73295000D02*
X100720000Y-75295000D01*
X108830000Y-75295000D02*
X108830000Y-73295000D01*
X110880000Y-73295000D02*
X110880000Y-75295000D01*
X154035000Y-72145000D02*
X152035000Y-72145000D01*
X152035000Y-70095000D02*
X154035000Y-70095000D01*
X154035000Y-69605000D02*
X152035000Y-69605000D01*
X152035000Y-67555000D02*
X154035000Y-67555000D01*
X178165000Y-98180000D02*
X176165000Y-98180000D01*
X176165000Y-96130000D02*
X178165000Y-96130000D01*
X117924000Y-149876000D02*
X117924000Y-151876000D01*
X120074000Y-151876000D02*
X120074000Y-149876000D01*
X178901381Y-150256953D02*
X178425190Y-149923619D01*
X178901381Y-149685524D02*
X177901381Y-149685524D01*
X177901381Y-150066477D01*
X177949000Y-150161715D01*
X177996619Y-150209334D01*
X178091857Y-150256953D01*
X178234714Y-150256953D01*
X178329952Y-150209334D01*
X178377571Y-150161715D01*
X178425190Y-150066477D01*
X178425190Y-149685524D01*
X178901381Y-151114096D02*
X178377571Y-151114096D01*
X178282333Y-151066477D01*
X178234714Y-150971239D01*
X178234714Y-150780762D01*
X178282333Y-150685524D01*
X178853762Y-151114096D02*
X178901381Y-151018858D01*
X178901381Y-150780762D01*
X178853762Y-150685524D01*
X178758524Y-150637905D01*
X178663286Y-150637905D01*
X178568048Y-150685524D01*
X178520429Y-150780762D01*
X178520429Y-151018858D01*
X178472810Y-151114096D01*
X178901381Y-152114096D02*
X178901381Y-151542667D01*
X178901381Y-151828381D02*
X177901381Y-151828381D01*
X178044238Y-151733143D01*
X178139476Y-151637905D01*
X178187095Y-151542667D01*
X158916666Y-82667143D02*
X158964285Y-82714762D01*
X159107142Y-82762381D01*
X159202380Y-82762381D01*
X159345238Y-82714762D01*
X159440476Y-82619524D01*
X159488095Y-82524286D01*
X159535714Y-82333810D01*
X159535714Y-82190952D01*
X159488095Y-82000476D01*
X159440476Y-81905238D01*
X159345238Y-81810000D01*
X159202380Y-81762381D01*
X159107142Y-81762381D01*
X158964285Y-81810000D01*
X158916666Y-81857619D01*
X157964285Y-82762381D02*
X158535714Y-82762381D01*
X158250000Y-82762381D02*
X158250000Y-81762381D01*
X158345238Y-81905238D01*
X158440476Y-82000476D01*
X158535714Y-82048095D01*
X158916666Y-102352143D02*
X158964285Y-102399762D01*
X159107142Y-102447381D01*
X159202380Y-102447381D01*
X159345238Y-102399762D01*
X159440476Y-102304524D01*
X159488095Y-102209286D01*
X159535714Y-102018810D01*
X159535714Y-101875952D01*
X159488095Y-101685476D01*
X159440476Y-101590238D01*
X159345238Y-101495000D01*
X159202380Y-101447381D01*
X159107142Y-101447381D01*
X158964285Y-101495000D01*
X158916666Y-101542619D01*
X158535714Y-101542619D02*
X158488095Y-101495000D01*
X158392857Y-101447381D01*
X158154761Y-101447381D01*
X158059523Y-101495000D01*
X158011904Y-101542619D01*
X157964285Y-101637857D01*
X157964285Y-101733095D01*
X158011904Y-101875952D01*
X158583333Y-102447381D01*
X157964285Y-102447381D01*
X158916666Y-106797143D02*
X158964285Y-106844762D01*
X159107142Y-106892381D01*
X159202380Y-106892381D01*
X159345238Y-106844762D01*
X159440476Y-106749524D01*
X159488095Y-106654286D01*
X159535714Y-106463810D01*
X159535714Y-106320952D01*
X159488095Y-106130476D01*
X159440476Y-106035238D01*
X159345238Y-105940000D01*
X159202380Y-105892381D01*
X159107142Y-105892381D01*
X158964285Y-105940000D01*
X158916666Y-105987619D01*
X158583333Y-105892381D02*
X157964285Y-105892381D01*
X158297619Y-106273333D01*
X158154761Y-106273333D01*
X158059523Y-106320952D01*
X158011904Y-106368571D01*
X157964285Y-106463810D01*
X157964285Y-106701905D01*
X158011904Y-106797143D01*
X158059523Y-106844762D01*
X158154761Y-106892381D01*
X158440476Y-106892381D01*
X158535714Y-106844762D01*
X158583333Y-106797143D01*
X158916666Y-126482143D02*
X158964285Y-126529762D01*
X159107142Y-126577381D01*
X159202380Y-126577381D01*
X159345238Y-126529762D01*
X159440476Y-126434524D01*
X159488095Y-126339286D01*
X159535714Y-126148810D01*
X159535714Y-126005952D01*
X159488095Y-125815476D01*
X159440476Y-125720238D01*
X159345238Y-125625000D01*
X159202380Y-125577381D01*
X159107142Y-125577381D01*
X158964285Y-125625000D01*
X158916666Y-125672619D01*
X158059523Y-125910714D02*
X158059523Y-126577381D01*
X158297619Y-125529762D02*
X158535714Y-126244048D01*
X157916666Y-126244048D01*
X158916666Y-130927143D02*
X158964285Y-130974762D01*
X159107142Y-131022381D01*
X159202380Y-131022381D01*
X159345238Y-130974762D01*
X159440476Y-130879524D01*
X159488095Y-130784286D01*
X159535714Y-130593810D01*
X159535714Y-130450952D01*
X159488095Y-130260476D01*
X159440476Y-130165238D01*
X159345238Y-130070000D01*
X159202380Y-130022381D01*
X159107142Y-130022381D01*
X158964285Y-130070000D01*
X158916666Y-130117619D01*
X158011904Y-130022381D02*
X158488095Y-130022381D01*
X158535714Y-130498571D01*
X158488095Y-130450952D01*
X158392857Y-130403333D01*
X158154761Y-130403333D01*
X158059523Y-130450952D01*
X158011904Y-130498571D01*
X157964285Y-130593810D01*
X157964285Y-130831905D01*
X158011904Y-130927143D01*
X158059523Y-130974762D01*
X158154761Y-131022381D01*
X158392857Y-131022381D01*
X158488095Y-130974762D01*
X158535714Y-130927143D01*
X152566666Y-85687143D02*
X152614285Y-85734762D01*
X152757142Y-85782381D01*
X152852380Y-85782381D01*
X152995238Y-85734762D01*
X153090476Y-85639524D01*
X153138095Y-85544286D01*
X153185714Y-85353810D01*
X153185714Y-85210952D01*
X153138095Y-85020476D01*
X153090476Y-84925238D01*
X152995238Y-84830000D01*
X152852380Y-84782381D01*
X152757142Y-84782381D01*
X152614285Y-84830000D01*
X152566666Y-84877619D01*
X151709523Y-84782381D02*
X151900000Y-84782381D01*
X151995238Y-84830000D01*
X152042857Y-84877619D01*
X152138095Y-85020476D01*
X152185714Y-85210952D01*
X152185714Y-85591905D01*
X152138095Y-85687143D01*
X152090476Y-85734762D01*
X151995238Y-85782381D01*
X151804761Y-85782381D01*
X151709523Y-85734762D01*
X151661904Y-85687143D01*
X151614285Y-85591905D01*
X151614285Y-85353810D01*
X151661904Y-85258571D01*
X151709523Y-85210952D01*
X151804761Y-85163333D01*
X151995238Y-85163333D01*
X152090476Y-85210952D01*
X152138095Y-85258571D01*
X152185714Y-85353810D01*
X153201666Y-90132143D02*
X153249285Y-90179762D01*
X153392142Y-90227381D01*
X153487380Y-90227381D01*
X153630238Y-90179762D01*
X153725476Y-90084524D01*
X153773095Y-89989286D01*
X153820714Y-89798810D01*
X153820714Y-89655952D01*
X153773095Y-89465476D01*
X153725476Y-89370238D01*
X153630238Y-89275000D01*
X153487380Y-89227381D01*
X153392142Y-89227381D01*
X153249285Y-89275000D01*
X153201666Y-89322619D01*
X152868333Y-89227381D02*
X152201666Y-89227381D01*
X152630238Y-90227381D01*
X152566666Y-109817143D02*
X152614285Y-109864762D01*
X152757142Y-109912381D01*
X152852380Y-109912381D01*
X152995238Y-109864762D01*
X153090476Y-109769524D01*
X153138095Y-109674286D01*
X153185714Y-109483810D01*
X153185714Y-109340952D01*
X153138095Y-109150476D01*
X153090476Y-109055238D01*
X152995238Y-108960000D01*
X152852380Y-108912381D01*
X152757142Y-108912381D01*
X152614285Y-108960000D01*
X152566666Y-109007619D01*
X151995238Y-109340952D02*
X152090476Y-109293333D01*
X152138095Y-109245714D01*
X152185714Y-109150476D01*
X152185714Y-109102857D01*
X152138095Y-109007619D01*
X152090476Y-108960000D01*
X151995238Y-108912381D01*
X151804761Y-108912381D01*
X151709523Y-108960000D01*
X151661904Y-109007619D01*
X151614285Y-109102857D01*
X151614285Y-109150476D01*
X151661904Y-109245714D01*
X151709523Y-109293333D01*
X151804761Y-109340952D01*
X151995238Y-109340952D01*
X152090476Y-109388571D01*
X152138095Y-109436190D01*
X152185714Y-109531429D01*
X152185714Y-109721905D01*
X152138095Y-109817143D01*
X152090476Y-109864762D01*
X151995238Y-109912381D01*
X151804761Y-109912381D01*
X151709523Y-109864762D01*
X151661904Y-109817143D01*
X151614285Y-109721905D01*
X151614285Y-109531429D01*
X151661904Y-109436190D01*
X151709523Y-109388571D01*
X151804761Y-109340952D01*
X153201666Y-114262143D02*
X153249285Y-114309762D01*
X153392142Y-114357381D01*
X153487380Y-114357381D01*
X153630238Y-114309762D01*
X153725476Y-114214524D01*
X153773095Y-114119286D01*
X153820714Y-113928810D01*
X153820714Y-113785952D01*
X153773095Y-113595476D01*
X153725476Y-113500238D01*
X153630238Y-113405000D01*
X153487380Y-113357381D01*
X153392142Y-113357381D01*
X153249285Y-113405000D01*
X153201666Y-113452619D01*
X152725476Y-114357381D02*
X152535000Y-114357381D01*
X152439761Y-114309762D01*
X152392142Y-114262143D01*
X152296904Y-114119286D01*
X152249285Y-113928810D01*
X152249285Y-113547857D01*
X152296904Y-113452619D01*
X152344523Y-113405000D01*
X152439761Y-113357381D01*
X152630238Y-113357381D01*
X152725476Y-113405000D01*
X152773095Y-113452619D01*
X152820714Y-113547857D01*
X152820714Y-113785952D01*
X152773095Y-113881190D01*
X152725476Y-113928810D01*
X152630238Y-113976429D01*
X152439761Y-113976429D01*
X152344523Y-113928810D01*
X152296904Y-113881190D01*
X152249285Y-113785952D01*
X153042857Y-133947143D02*
X153090476Y-133994762D01*
X153233333Y-134042381D01*
X153328571Y-134042381D01*
X153471429Y-133994762D01*
X153566667Y-133899524D01*
X153614286Y-133804286D01*
X153661905Y-133613810D01*
X153661905Y-133470952D01*
X153614286Y-133280476D01*
X153566667Y-133185238D01*
X153471429Y-133090000D01*
X153328571Y-133042381D01*
X153233333Y-133042381D01*
X153090476Y-133090000D01*
X153042857Y-133137619D01*
X152090476Y-134042381D02*
X152661905Y-134042381D01*
X152376191Y-134042381D02*
X152376191Y-133042381D01*
X152471429Y-133185238D01*
X152566667Y-133280476D01*
X152661905Y-133328095D01*
X151471429Y-133042381D02*
X151376190Y-133042381D01*
X151280952Y-133090000D01*
X151233333Y-133137619D01*
X151185714Y-133232857D01*
X151138095Y-133423333D01*
X151138095Y-133661429D01*
X151185714Y-133851905D01*
X151233333Y-133947143D01*
X151280952Y-133994762D01*
X151376190Y-134042381D01*
X151471429Y-134042381D01*
X151566667Y-133994762D01*
X151614286Y-133947143D01*
X151661905Y-133851905D01*
X151709524Y-133661429D01*
X151709524Y-133423333D01*
X151661905Y-133232857D01*
X151614286Y-133137619D01*
X151566667Y-133090000D01*
X151471429Y-133042381D01*
X151247143Y-81907143D02*
X151294762Y-81859524D01*
X151342381Y-81716667D01*
X151342381Y-81621429D01*
X151294762Y-81478571D01*
X151199524Y-81383333D01*
X151104286Y-81335714D01*
X150913810Y-81288095D01*
X150770952Y-81288095D01*
X150580476Y-81335714D01*
X150485238Y-81383333D01*
X150390000Y-81478571D01*
X150342381Y-81621429D01*
X150342381Y-81716667D01*
X150390000Y-81859524D01*
X150437619Y-81907143D01*
X151342381Y-82859524D02*
X151342381Y-82288095D01*
X151342381Y-82573809D02*
X150342381Y-82573809D01*
X150485238Y-82478571D01*
X150580476Y-82383333D01*
X150628095Y-82288095D01*
X151342381Y-83811905D02*
X151342381Y-83240476D01*
X151342381Y-83526190D02*
X150342381Y-83526190D01*
X150485238Y-83430952D01*
X150580476Y-83335714D01*
X150628095Y-83240476D01*
X151882143Y-96512143D02*
X151929762Y-96464524D01*
X151977381Y-96321667D01*
X151977381Y-96226429D01*
X151929762Y-96083571D01*
X151834524Y-95988333D01*
X151739286Y-95940714D01*
X151548810Y-95893095D01*
X151405952Y-95893095D01*
X151215476Y-95940714D01*
X151120238Y-95988333D01*
X151025000Y-96083571D01*
X150977381Y-96226429D01*
X150977381Y-96321667D01*
X151025000Y-96464524D01*
X151072619Y-96512143D01*
X151977381Y-97464524D02*
X151977381Y-96893095D01*
X151977381Y-97178809D02*
X150977381Y-97178809D01*
X151120238Y-97083571D01*
X151215476Y-96988333D01*
X151263095Y-96893095D01*
X151072619Y-97845476D02*
X151025000Y-97893095D01*
X150977381Y-97988333D01*
X150977381Y-98226429D01*
X151025000Y-98321667D01*
X151072619Y-98369286D01*
X151167857Y-98416905D01*
X151263095Y-98416905D01*
X151405952Y-98369286D01*
X151977381Y-97797857D01*
X151977381Y-98416905D01*
X151247143Y-105402143D02*
X151294762Y-105354524D01*
X151342381Y-105211667D01*
X151342381Y-105116429D01*
X151294762Y-104973571D01*
X151199524Y-104878333D01*
X151104286Y-104830714D01*
X150913810Y-104783095D01*
X150770952Y-104783095D01*
X150580476Y-104830714D01*
X150485238Y-104878333D01*
X150390000Y-104973571D01*
X150342381Y-105116429D01*
X150342381Y-105211667D01*
X150390000Y-105354524D01*
X150437619Y-105402143D01*
X151342381Y-106354524D02*
X151342381Y-105783095D01*
X151342381Y-106068809D02*
X150342381Y-106068809D01*
X150485238Y-105973571D01*
X150580476Y-105878333D01*
X150628095Y-105783095D01*
X150342381Y-106687857D02*
X150342381Y-107306905D01*
X150723333Y-106973571D01*
X150723333Y-107116429D01*
X150770952Y-107211667D01*
X150818571Y-107259286D01*
X150913810Y-107306905D01*
X151151905Y-107306905D01*
X151247143Y-107259286D01*
X151294762Y-107211667D01*
X151342381Y-107116429D01*
X151342381Y-106830714D01*
X151294762Y-106735476D01*
X151247143Y-106687857D01*
X151882143Y-120642143D02*
X151929762Y-120594524D01*
X151977381Y-120451667D01*
X151977381Y-120356429D01*
X151929762Y-120213571D01*
X151834524Y-120118333D01*
X151739286Y-120070714D01*
X151548810Y-120023095D01*
X151405952Y-120023095D01*
X151215476Y-120070714D01*
X151120238Y-120118333D01*
X151025000Y-120213571D01*
X150977381Y-120356429D01*
X150977381Y-120451667D01*
X151025000Y-120594524D01*
X151072619Y-120642143D01*
X151977381Y-121594524D02*
X151977381Y-121023095D01*
X151977381Y-121308809D02*
X150977381Y-121308809D01*
X151120238Y-121213571D01*
X151215476Y-121118333D01*
X151263095Y-121023095D01*
X151310714Y-122451667D02*
X151977381Y-122451667D01*
X150929762Y-122213571D02*
X151644048Y-121975476D01*
X151644048Y-122594524D01*
X151247143Y-129532143D02*
X151294762Y-129484524D01*
X151342381Y-129341667D01*
X151342381Y-129246429D01*
X151294762Y-129103571D01*
X151199524Y-129008333D01*
X151104286Y-128960714D01*
X150913810Y-128913095D01*
X150770952Y-128913095D01*
X150580476Y-128960714D01*
X150485238Y-129008333D01*
X150390000Y-129103571D01*
X150342381Y-129246429D01*
X150342381Y-129341667D01*
X150390000Y-129484524D01*
X150437619Y-129532143D01*
X151342381Y-130484524D02*
X151342381Y-129913095D01*
X151342381Y-130198809D02*
X150342381Y-130198809D01*
X150485238Y-130103571D01*
X150580476Y-130008333D01*
X150628095Y-129913095D01*
X150342381Y-131389286D02*
X150342381Y-130913095D01*
X150818571Y-130865476D01*
X150770952Y-130913095D01*
X150723333Y-131008333D01*
X150723333Y-131246429D01*
X150770952Y-131341667D01*
X150818571Y-131389286D01*
X150913810Y-131436905D01*
X151151905Y-131436905D01*
X151247143Y-131389286D01*
X151294762Y-131341667D01*
X151342381Y-131246429D01*
X151342381Y-131008333D01*
X151294762Y-130913095D01*
X151247143Y-130865476D01*
X145422857Y-90287143D02*
X145470476Y-90334762D01*
X145613333Y-90382381D01*
X145708571Y-90382381D01*
X145851429Y-90334762D01*
X145946667Y-90239524D01*
X145994286Y-90144286D01*
X146041905Y-89953810D01*
X146041905Y-89810952D01*
X145994286Y-89620476D01*
X145946667Y-89525238D01*
X145851429Y-89430000D01*
X145708571Y-89382381D01*
X145613333Y-89382381D01*
X145470476Y-89430000D01*
X145422857Y-89477619D01*
X144470476Y-90382381D02*
X145041905Y-90382381D01*
X144756191Y-90382381D02*
X144756191Y-89382381D01*
X144851429Y-89525238D01*
X144946667Y-89620476D01*
X145041905Y-89668095D01*
X143613333Y-89382381D02*
X143803810Y-89382381D01*
X143899048Y-89430000D01*
X143946667Y-89477619D01*
X144041905Y-89620476D01*
X144089524Y-89810952D01*
X144089524Y-90191905D01*
X144041905Y-90287143D01*
X143994286Y-90334762D01*
X143899048Y-90382381D01*
X143708571Y-90382381D01*
X143613333Y-90334762D01*
X143565714Y-90287143D01*
X143518095Y-90191905D01*
X143518095Y-89953810D01*
X143565714Y-89858571D01*
X143613333Y-89810952D01*
X143708571Y-89763333D01*
X143899048Y-89763333D01*
X143994286Y-89810952D01*
X144041905Y-89858571D01*
X144089524Y-89953810D01*
X146057857Y-94732143D02*
X146105476Y-94779762D01*
X146248333Y-94827381D01*
X146343571Y-94827381D01*
X146486429Y-94779762D01*
X146581667Y-94684524D01*
X146629286Y-94589286D01*
X146676905Y-94398810D01*
X146676905Y-94255952D01*
X146629286Y-94065476D01*
X146581667Y-93970238D01*
X146486429Y-93875000D01*
X146343571Y-93827381D01*
X146248333Y-93827381D01*
X146105476Y-93875000D01*
X146057857Y-93922619D01*
X145105476Y-94827381D02*
X145676905Y-94827381D01*
X145391191Y-94827381D02*
X145391191Y-93827381D01*
X145486429Y-93970238D01*
X145581667Y-94065476D01*
X145676905Y-94113095D01*
X144772143Y-93827381D02*
X144105476Y-93827381D01*
X144534048Y-94827381D01*
X145422857Y-114417143D02*
X145470476Y-114464762D01*
X145613333Y-114512381D01*
X145708571Y-114512381D01*
X145851429Y-114464762D01*
X145946667Y-114369524D01*
X145994286Y-114274286D01*
X146041905Y-114083810D01*
X146041905Y-113940952D01*
X145994286Y-113750476D01*
X145946667Y-113655238D01*
X145851429Y-113560000D01*
X145708571Y-113512381D01*
X145613333Y-113512381D01*
X145470476Y-113560000D01*
X145422857Y-113607619D01*
X144470476Y-114512381D02*
X145041905Y-114512381D01*
X144756191Y-114512381D02*
X144756191Y-113512381D01*
X144851429Y-113655238D01*
X144946667Y-113750476D01*
X145041905Y-113798095D01*
X143899048Y-113940952D02*
X143994286Y-113893333D01*
X144041905Y-113845714D01*
X144089524Y-113750476D01*
X144089524Y-113702857D01*
X144041905Y-113607619D01*
X143994286Y-113560000D01*
X143899048Y-113512381D01*
X143708571Y-113512381D01*
X143613333Y-113560000D01*
X143565714Y-113607619D01*
X143518095Y-113702857D01*
X143518095Y-113750476D01*
X143565714Y-113845714D01*
X143613333Y-113893333D01*
X143708571Y-113940952D01*
X143899048Y-113940952D01*
X143994286Y-113988571D01*
X144041905Y-114036190D01*
X144089524Y-114131429D01*
X144089524Y-114321905D01*
X144041905Y-114417143D01*
X143994286Y-114464762D01*
X143899048Y-114512381D01*
X143708571Y-114512381D01*
X143613333Y-114464762D01*
X143565714Y-114417143D01*
X143518095Y-114321905D01*
X143518095Y-114131429D01*
X143565714Y-114036190D01*
X143613333Y-113988571D01*
X143708571Y-113940952D01*
X146057857Y-118862143D02*
X146105476Y-118909762D01*
X146248333Y-118957381D01*
X146343571Y-118957381D01*
X146486429Y-118909762D01*
X146581667Y-118814524D01*
X146629286Y-118719286D01*
X146676905Y-118528810D01*
X146676905Y-118385952D01*
X146629286Y-118195476D01*
X146581667Y-118100238D01*
X146486429Y-118005000D01*
X146343571Y-117957381D01*
X146248333Y-117957381D01*
X146105476Y-118005000D01*
X146057857Y-118052619D01*
X145105476Y-118957381D02*
X145676905Y-118957381D01*
X145391191Y-118957381D02*
X145391191Y-117957381D01*
X145486429Y-118100238D01*
X145581667Y-118195476D01*
X145676905Y-118243095D01*
X144629286Y-118957381D02*
X144438810Y-118957381D01*
X144343571Y-118909762D01*
X144295952Y-118862143D01*
X144200714Y-118719286D01*
X144153095Y-118528810D01*
X144153095Y-118147857D01*
X144200714Y-118052619D01*
X144248333Y-118005000D01*
X144343571Y-117957381D01*
X144534048Y-117957381D01*
X144629286Y-118005000D01*
X144676905Y-118052619D01*
X144724524Y-118147857D01*
X144724524Y-118385952D01*
X144676905Y-118481190D01*
X144629286Y-118528810D01*
X144534048Y-118576429D01*
X144343571Y-118576429D01*
X144248333Y-118528810D01*
X144200714Y-118481190D01*
X144153095Y-118385952D01*
X145422857Y-138547143D02*
X145470476Y-138594762D01*
X145613333Y-138642381D01*
X145708571Y-138642381D01*
X145851429Y-138594762D01*
X145946667Y-138499524D01*
X145994286Y-138404286D01*
X146041905Y-138213810D01*
X146041905Y-138070952D01*
X145994286Y-137880476D01*
X145946667Y-137785238D01*
X145851429Y-137690000D01*
X145708571Y-137642381D01*
X145613333Y-137642381D01*
X145470476Y-137690000D01*
X145422857Y-137737619D01*
X145041905Y-137737619D02*
X144994286Y-137690000D01*
X144899048Y-137642381D01*
X144660952Y-137642381D01*
X144565714Y-137690000D01*
X144518095Y-137737619D01*
X144470476Y-137832857D01*
X144470476Y-137928095D01*
X144518095Y-138070952D01*
X145089524Y-138642381D01*
X144470476Y-138642381D01*
X143851429Y-137642381D02*
X143756190Y-137642381D01*
X143660952Y-137690000D01*
X143613333Y-137737619D01*
X143565714Y-137832857D01*
X143518095Y-138023333D01*
X143518095Y-138261429D01*
X143565714Y-138451905D01*
X143613333Y-138547143D01*
X143660952Y-138594762D01*
X143756190Y-138642381D01*
X143851429Y-138642381D01*
X143946667Y-138594762D01*
X143994286Y-138547143D01*
X144041905Y-138451905D01*
X144089524Y-138261429D01*
X144089524Y-138023333D01*
X144041905Y-137832857D01*
X143994286Y-137737619D01*
X143946667Y-137690000D01*
X143851429Y-137642381D01*
X139707857Y-83937143D02*
X139755476Y-83984762D01*
X139898333Y-84032381D01*
X139993571Y-84032381D01*
X140136429Y-83984762D01*
X140231667Y-83889524D01*
X140279286Y-83794286D01*
X140326905Y-83603810D01*
X140326905Y-83460952D01*
X140279286Y-83270476D01*
X140231667Y-83175238D01*
X140136429Y-83080000D01*
X139993571Y-83032381D01*
X139898333Y-83032381D01*
X139755476Y-83080000D01*
X139707857Y-83127619D01*
X139326905Y-83127619D02*
X139279286Y-83080000D01*
X139184048Y-83032381D01*
X138945952Y-83032381D01*
X138850714Y-83080000D01*
X138803095Y-83127619D01*
X138755476Y-83222857D01*
X138755476Y-83318095D01*
X138803095Y-83460952D01*
X139374524Y-84032381D01*
X138755476Y-84032381D01*
X137803095Y-84032381D02*
X138374524Y-84032381D01*
X138088810Y-84032381D02*
X138088810Y-83032381D01*
X138184048Y-83175238D01*
X138279286Y-83270476D01*
X138374524Y-83318095D01*
X139707857Y-102352143D02*
X139755476Y-102399762D01*
X139898333Y-102447381D01*
X139993571Y-102447381D01*
X140136429Y-102399762D01*
X140231667Y-102304524D01*
X140279286Y-102209286D01*
X140326905Y-102018810D01*
X140326905Y-101875952D01*
X140279286Y-101685476D01*
X140231667Y-101590238D01*
X140136429Y-101495000D01*
X139993571Y-101447381D01*
X139898333Y-101447381D01*
X139755476Y-101495000D01*
X139707857Y-101542619D01*
X139326905Y-101542619D02*
X139279286Y-101495000D01*
X139184048Y-101447381D01*
X138945952Y-101447381D01*
X138850714Y-101495000D01*
X138803095Y-101542619D01*
X138755476Y-101637857D01*
X138755476Y-101733095D01*
X138803095Y-101875952D01*
X139374524Y-102447381D01*
X138755476Y-102447381D01*
X138374524Y-101542619D02*
X138326905Y-101495000D01*
X138231667Y-101447381D01*
X137993571Y-101447381D01*
X137898333Y-101495000D01*
X137850714Y-101542619D01*
X137803095Y-101637857D01*
X137803095Y-101733095D01*
X137850714Y-101875952D01*
X138422143Y-102447381D01*
X137803095Y-102447381D01*
X139707857Y-108067143D02*
X139755476Y-108114762D01*
X139898333Y-108162381D01*
X139993571Y-108162381D01*
X140136429Y-108114762D01*
X140231667Y-108019524D01*
X140279286Y-107924286D01*
X140326905Y-107733810D01*
X140326905Y-107590952D01*
X140279286Y-107400476D01*
X140231667Y-107305238D01*
X140136429Y-107210000D01*
X139993571Y-107162381D01*
X139898333Y-107162381D01*
X139755476Y-107210000D01*
X139707857Y-107257619D01*
X139326905Y-107257619D02*
X139279286Y-107210000D01*
X139184048Y-107162381D01*
X138945952Y-107162381D01*
X138850714Y-107210000D01*
X138803095Y-107257619D01*
X138755476Y-107352857D01*
X138755476Y-107448095D01*
X138803095Y-107590952D01*
X139374524Y-108162381D01*
X138755476Y-108162381D01*
X138422143Y-107162381D02*
X137803095Y-107162381D01*
X138136429Y-107543333D01*
X137993571Y-107543333D01*
X137898333Y-107590952D01*
X137850714Y-107638571D01*
X137803095Y-107733810D01*
X137803095Y-107971905D01*
X137850714Y-108067143D01*
X137898333Y-108114762D01*
X137993571Y-108162381D01*
X138279286Y-108162381D01*
X138374524Y-108114762D01*
X138422143Y-108067143D01*
X139707857Y-126482143D02*
X139755476Y-126529762D01*
X139898333Y-126577381D01*
X139993571Y-126577381D01*
X140136429Y-126529762D01*
X140231667Y-126434524D01*
X140279286Y-126339286D01*
X140326905Y-126148810D01*
X140326905Y-126005952D01*
X140279286Y-125815476D01*
X140231667Y-125720238D01*
X140136429Y-125625000D01*
X139993571Y-125577381D01*
X139898333Y-125577381D01*
X139755476Y-125625000D01*
X139707857Y-125672619D01*
X139326905Y-125672619D02*
X139279286Y-125625000D01*
X139184048Y-125577381D01*
X138945952Y-125577381D01*
X138850714Y-125625000D01*
X138803095Y-125672619D01*
X138755476Y-125767857D01*
X138755476Y-125863095D01*
X138803095Y-126005952D01*
X139374524Y-126577381D01*
X138755476Y-126577381D01*
X137898333Y-125910714D02*
X137898333Y-126577381D01*
X138136429Y-125529762D02*
X138374524Y-126244048D01*
X137755476Y-126244048D01*
X139707857Y-132197143D02*
X139755476Y-132244762D01*
X139898333Y-132292381D01*
X139993571Y-132292381D01*
X140136429Y-132244762D01*
X140231667Y-132149524D01*
X140279286Y-132054286D01*
X140326905Y-131863810D01*
X140326905Y-131720952D01*
X140279286Y-131530476D01*
X140231667Y-131435238D01*
X140136429Y-131340000D01*
X139993571Y-131292381D01*
X139898333Y-131292381D01*
X139755476Y-131340000D01*
X139707857Y-131387619D01*
X139326905Y-131387619D02*
X139279286Y-131340000D01*
X139184048Y-131292381D01*
X138945952Y-131292381D01*
X138850714Y-131340000D01*
X138803095Y-131387619D01*
X138755476Y-131482857D01*
X138755476Y-131578095D01*
X138803095Y-131720952D01*
X139374524Y-132292381D01*
X138755476Y-132292381D01*
X137850714Y-131292381D02*
X138326905Y-131292381D01*
X138374524Y-131768571D01*
X138326905Y-131720952D01*
X138231667Y-131673333D01*
X137993571Y-131673333D01*
X137898333Y-131720952D01*
X137850714Y-131768571D01*
X137803095Y-131863810D01*
X137803095Y-132101905D01*
X137850714Y-132197143D01*
X137898333Y-132244762D01*
X137993571Y-132292381D01*
X138231667Y-132292381D01*
X138326905Y-132244762D01*
X138374524Y-132197143D01*
X109862857Y-62827143D02*
X109910476Y-62874762D01*
X110053333Y-62922381D01*
X110148571Y-62922381D01*
X110291429Y-62874762D01*
X110386667Y-62779524D01*
X110434286Y-62684286D01*
X110481905Y-62493810D01*
X110481905Y-62350952D01*
X110434286Y-62160476D01*
X110386667Y-62065238D01*
X110291429Y-61970000D01*
X110148571Y-61922381D01*
X110053333Y-61922381D01*
X109910476Y-61970000D01*
X109862857Y-62017619D01*
X109481905Y-62017619D02*
X109434286Y-61970000D01*
X109339048Y-61922381D01*
X109100952Y-61922381D01*
X109005714Y-61970000D01*
X108958095Y-62017619D01*
X108910476Y-62112857D01*
X108910476Y-62208095D01*
X108958095Y-62350952D01*
X109529524Y-62922381D01*
X108910476Y-62922381D01*
X108053333Y-61922381D02*
X108243810Y-61922381D01*
X108339048Y-61970000D01*
X108386667Y-62017619D01*
X108481905Y-62160476D01*
X108529524Y-62350952D01*
X108529524Y-62731905D01*
X108481905Y-62827143D01*
X108434286Y-62874762D01*
X108339048Y-62922381D01*
X108148571Y-62922381D01*
X108053333Y-62874762D01*
X108005714Y-62827143D01*
X107958095Y-62731905D01*
X107958095Y-62493810D01*
X108005714Y-62398571D01*
X108053333Y-62350952D01*
X108148571Y-62303333D01*
X108339048Y-62303333D01*
X108434286Y-62350952D01*
X108481905Y-62398571D01*
X108529524Y-62493810D01*
X116212857Y-72352143D02*
X116260476Y-72399762D01*
X116403333Y-72447381D01*
X116498571Y-72447381D01*
X116641429Y-72399762D01*
X116736667Y-72304524D01*
X116784286Y-72209286D01*
X116831905Y-72018810D01*
X116831905Y-71875952D01*
X116784286Y-71685476D01*
X116736667Y-71590238D01*
X116641429Y-71495000D01*
X116498571Y-71447381D01*
X116403333Y-71447381D01*
X116260476Y-71495000D01*
X116212857Y-71542619D01*
X115831905Y-71542619D02*
X115784286Y-71495000D01*
X115689048Y-71447381D01*
X115450952Y-71447381D01*
X115355714Y-71495000D01*
X115308095Y-71542619D01*
X115260476Y-71637857D01*
X115260476Y-71733095D01*
X115308095Y-71875952D01*
X115879524Y-72447381D01*
X115260476Y-72447381D01*
X114927143Y-71447381D02*
X114260476Y-71447381D01*
X114689048Y-72447381D01*
X122562857Y-63462143D02*
X122610476Y-63509762D01*
X122753333Y-63557381D01*
X122848571Y-63557381D01*
X122991429Y-63509762D01*
X123086667Y-63414524D01*
X123134286Y-63319286D01*
X123181905Y-63128810D01*
X123181905Y-62985952D01*
X123134286Y-62795476D01*
X123086667Y-62700238D01*
X122991429Y-62605000D01*
X122848571Y-62557381D01*
X122753333Y-62557381D01*
X122610476Y-62605000D01*
X122562857Y-62652619D01*
X122181905Y-62652619D02*
X122134286Y-62605000D01*
X122039048Y-62557381D01*
X121800952Y-62557381D01*
X121705714Y-62605000D01*
X121658095Y-62652619D01*
X121610476Y-62747857D01*
X121610476Y-62843095D01*
X121658095Y-62985952D01*
X122229524Y-63557381D01*
X121610476Y-63557381D01*
X121039048Y-62985952D02*
X121134286Y-62938333D01*
X121181905Y-62890714D01*
X121229524Y-62795476D01*
X121229524Y-62747857D01*
X121181905Y-62652619D01*
X121134286Y-62605000D01*
X121039048Y-62557381D01*
X120848571Y-62557381D01*
X120753333Y-62605000D01*
X120705714Y-62652619D01*
X120658095Y-62747857D01*
X120658095Y-62795476D01*
X120705714Y-62890714D01*
X120753333Y-62938333D01*
X120848571Y-62985952D01*
X121039048Y-62985952D01*
X121134286Y-63033571D01*
X121181905Y-63081190D01*
X121229524Y-63176429D01*
X121229524Y-63366905D01*
X121181905Y-63462143D01*
X121134286Y-63509762D01*
X121039048Y-63557381D01*
X120848571Y-63557381D01*
X120753333Y-63509762D01*
X120705714Y-63462143D01*
X120658095Y-63366905D01*
X120658095Y-63176429D01*
X120705714Y-63081190D01*
X120753333Y-63033571D01*
X120848571Y-62985952D01*
X130817857Y-76317143D02*
X130865476Y-76364762D01*
X131008333Y-76412381D01*
X131103571Y-76412381D01*
X131246429Y-76364762D01*
X131341667Y-76269524D01*
X131389286Y-76174286D01*
X131436905Y-75983810D01*
X131436905Y-75840952D01*
X131389286Y-75650476D01*
X131341667Y-75555238D01*
X131246429Y-75460000D01*
X131103571Y-75412381D01*
X131008333Y-75412381D01*
X130865476Y-75460000D01*
X130817857Y-75507619D01*
X130436905Y-75507619D02*
X130389286Y-75460000D01*
X130294048Y-75412381D01*
X130055952Y-75412381D01*
X129960714Y-75460000D01*
X129913095Y-75507619D01*
X129865476Y-75602857D01*
X129865476Y-75698095D01*
X129913095Y-75840952D01*
X130484524Y-76412381D01*
X129865476Y-76412381D01*
X129389286Y-76412381D02*
X129198810Y-76412381D01*
X129103571Y-76364762D01*
X129055952Y-76317143D01*
X128960714Y-76174286D01*
X128913095Y-75983810D01*
X128913095Y-75602857D01*
X128960714Y-75507619D01*
X129008333Y-75460000D01*
X129103571Y-75412381D01*
X129294048Y-75412381D01*
X129389286Y-75460000D01*
X129436905Y-75507619D01*
X129484524Y-75602857D01*
X129484524Y-75840952D01*
X129436905Y-75936190D01*
X129389286Y-75983810D01*
X129294048Y-76031429D01*
X129103571Y-76031429D01*
X129008333Y-75983810D01*
X128960714Y-75936190D01*
X128913095Y-75840952D01*
X133992857Y-63462143D02*
X134040476Y-63509762D01*
X134183333Y-63557381D01*
X134278571Y-63557381D01*
X134421429Y-63509762D01*
X134516667Y-63414524D01*
X134564286Y-63319286D01*
X134611905Y-63128810D01*
X134611905Y-62985952D01*
X134564286Y-62795476D01*
X134516667Y-62700238D01*
X134421429Y-62605000D01*
X134278571Y-62557381D01*
X134183333Y-62557381D01*
X134040476Y-62605000D01*
X133992857Y-62652619D01*
X133659524Y-62557381D02*
X133040476Y-62557381D01*
X133373810Y-62938333D01*
X133230952Y-62938333D01*
X133135714Y-62985952D01*
X133088095Y-63033571D01*
X133040476Y-63128810D01*
X133040476Y-63366905D01*
X133088095Y-63462143D01*
X133135714Y-63509762D01*
X133230952Y-63557381D01*
X133516667Y-63557381D01*
X133611905Y-63509762D01*
X133659524Y-63462143D01*
X132421429Y-62557381D02*
X132326190Y-62557381D01*
X132230952Y-62605000D01*
X132183333Y-62652619D01*
X132135714Y-62747857D01*
X132088095Y-62938333D01*
X132088095Y-63176429D01*
X132135714Y-63366905D01*
X132183333Y-63462143D01*
X132230952Y-63509762D01*
X132326190Y-63557381D01*
X132421429Y-63557381D01*
X132516667Y-63509762D01*
X132564286Y-63462143D01*
X132611905Y-63366905D01*
X132659524Y-63176429D01*
X132659524Y-62938333D01*
X132611905Y-62747857D01*
X132564286Y-62652619D01*
X132516667Y-62605000D01*
X132421429Y-62557381D01*
X137802857Y-71717143D02*
X137850476Y-71764762D01*
X137993333Y-71812381D01*
X138088571Y-71812381D01*
X138231429Y-71764762D01*
X138326667Y-71669524D01*
X138374286Y-71574286D01*
X138421905Y-71383810D01*
X138421905Y-71240952D01*
X138374286Y-71050476D01*
X138326667Y-70955238D01*
X138231429Y-70860000D01*
X138088571Y-70812381D01*
X137993333Y-70812381D01*
X137850476Y-70860000D01*
X137802857Y-70907619D01*
X137469524Y-70812381D02*
X136850476Y-70812381D01*
X137183810Y-71193333D01*
X137040952Y-71193333D01*
X136945714Y-71240952D01*
X136898095Y-71288571D01*
X136850476Y-71383810D01*
X136850476Y-71621905D01*
X136898095Y-71717143D01*
X136945714Y-71764762D01*
X137040952Y-71812381D01*
X137326667Y-71812381D01*
X137421905Y-71764762D01*
X137469524Y-71717143D01*
X135898095Y-71812381D02*
X136469524Y-71812381D01*
X136183810Y-71812381D02*
X136183810Y-70812381D01*
X136279048Y-70955238D01*
X136374286Y-71050476D01*
X136469524Y-71098095D01*
X144152857Y-66002143D02*
X144200476Y-66049762D01*
X144343333Y-66097381D01*
X144438571Y-66097381D01*
X144581429Y-66049762D01*
X144676667Y-65954524D01*
X144724286Y-65859286D01*
X144771905Y-65668810D01*
X144771905Y-65525952D01*
X144724286Y-65335476D01*
X144676667Y-65240238D01*
X144581429Y-65145000D01*
X144438571Y-65097381D01*
X144343333Y-65097381D01*
X144200476Y-65145000D01*
X144152857Y-65192619D01*
X143819524Y-65097381D02*
X143200476Y-65097381D01*
X143533810Y-65478333D01*
X143390952Y-65478333D01*
X143295714Y-65525952D01*
X143248095Y-65573571D01*
X143200476Y-65668810D01*
X143200476Y-65906905D01*
X143248095Y-66002143D01*
X143295714Y-66049762D01*
X143390952Y-66097381D01*
X143676667Y-66097381D01*
X143771905Y-66049762D01*
X143819524Y-66002143D01*
X142819524Y-65192619D02*
X142771905Y-65145000D01*
X142676667Y-65097381D01*
X142438571Y-65097381D01*
X142343333Y-65145000D01*
X142295714Y-65192619D01*
X142248095Y-65287857D01*
X142248095Y-65383095D01*
X142295714Y-65525952D01*
X142867143Y-66097381D01*
X142248095Y-66097381D01*
X128373095Y-90082381D02*
X128373095Y-89082381D01*
X128135000Y-89082381D01*
X127992142Y-89130000D01*
X127896904Y-89225238D01*
X127849285Y-89320476D01*
X127801666Y-89510952D01*
X127801666Y-89653810D01*
X127849285Y-89844286D01*
X127896904Y-89939524D01*
X127992142Y-90034762D01*
X128135000Y-90082381D01*
X128373095Y-90082381D01*
X126849285Y-90082381D02*
X127420714Y-90082381D01*
X127135000Y-90082381D02*
X127135000Y-89082381D01*
X127230238Y-89225238D01*
X127325476Y-89320476D01*
X127420714Y-89368095D01*
X128373095Y-102147381D02*
X128373095Y-101147381D01*
X128135000Y-101147381D01*
X127992142Y-101195000D01*
X127896904Y-101290238D01*
X127849285Y-101385476D01*
X127801666Y-101575952D01*
X127801666Y-101718810D01*
X127849285Y-101909286D01*
X127896904Y-102004524D01*
X127992142Y-102099762D01*
X128135000Y-102147381D01*
X128373095Y-102147381D01*
X127420714Y-101242619D02*
X127373095Y-101195000D01*
X127277857Y-101147381D01*
X127039761Y-101147381D01*
X126944523Y-101195000D01*
X126896904Y-101242619D01*
X126849285Y-101337857D01*
X126849285Y-101433095D01*
X126896904Y-101575952D01*
X127468333Y-102147381D01*
X126849285Y-102147381D01*
X128373095Y-114212381D02*
X128373095Y-113212381D01*
X128135000Y-113212381D01*
X127992142Y-113260000D01*
X127896904Y-113355238D01*
X127849285Y-113450476D01*
X127801666Y-113640952D01*
X127801666Y-113783810D01*
X127849285Y-113974286D01*
X127896904Y-114069524D01*
X127992142Y-114164762D01*
X128135000Y-114212381D01*
X128373095Y-114212381D01*
X127468333Y-113212381D02*
X126849285Y-113212381D01*
X127182619Y-113593333D01*
X127039761Y-113593333D01*
X126944523Y-113640952D01*
X126896904Y-113688571D01*
X126849285Y-113783810D01*
X126849285Y-114021905D01*
X126896904Y-114117143D01*
X126944523Y-114164762D01*
X127039761Y-114212381D01*
X127325476Y-114212381D01*
X127420714Y-114164762D01*
X127468333Y-114117143D01*
X128373095Y-126277381D02*
X128373095Y-125277381D01*
X128135000Y-125277381D01*
X127992142Y-125325000D01*
X127896904Y-125420238D01*
X127849285Y-125515476D01*
X127801666Y-125705952D01*
X127801666Y-125848810D01*
X127849285Y-126039286D01*
X127896904Y-126134524D01*
X127992142Y-126229762D01*
X128135000Y-126277381D01*
X128373095Y-126277381D01*
X126944523Y-125610714D02*
X126944523Y-126277381D01*
X127182619Y-125229762D02*
X127420714Y-125944048D01*
X126801666Y-125944048D01*
X128373095Y-138342381D02*
X128373095Y-137342381D01*
X128135000Y-137342381D01*
X127992142Y-137390000D01*
X127896904Y-137485238D01*
X127849285Y-137580476D01*
X127801666Y-137770952D01*
X127801666Y-137913810D01*
X127849285Y-138104286D01*
X127896904Y-138199524D01*
X127992142Y-138294762D01*
X128135000Y-138342381D01*
X128373095Y-138342381D01*
X126896904Y-137342381D02*
X127373095Y-137342381D01*
X127420714Y-137818571D01*
X127373095Y-137770952D01*
X127277857Y-137723333D01*
X127039761Y-137723333D01*
X126944523Y-137770952D01*
X126896904Y-137818571D01*
X126849285Y-137913810D01*
X126849285Y-138151905D01*
X126896904Y-138247143D01*
X126944523Y-138294762D01*
X127039761Y-138342381D01*
X127277857Y-138342381D01*
X127373095Y-138294762D01*
X127420714Y-138247143D01*
X101957381Y-74191905D02*
X100957381Y-74191905D01*
X100957381Y-74430000D01*
X101005000Y-74572858D01*
X101100238Y-74668096D01*
X101195476Y-74715715D01*
X101385952Y-74763334D01*
X101528810Y-74763334D01*
X101719286Y-74715715D01*
X101814524Y-74668096D01*
X101909762Y-74572858D01*
X101957381Y-74430000D01*
X101957381Y-74191905D01*
X100957381Y-75620477D02*
X100957381Y-75430000D01*
X101005000Y-75334762D01*
X101052619Y-75287143D01*
X101195476Y-75191905D01*
X101385952Y-75144286D01*
X101766905Y-75144286D01*
X101862143Y-75191905D01*
X101909762Y-75239524D01*
X101957381Y-75334762D01*
X101957381Y-75525239D01*
X101909762Y-75620477D01*
X101862143Y-75668096D01*
X101766905Y-75715715D01*
X101528810Y-75715715D01*
X101433571Y-75668096D01*
X101385952Y-75620477D01*
X101338333Y-75525239D01*
X101338333Y-75334762D01*
X101385952Y-75239524D01*
X101433571Y-75191905D01*
X101528810Y-75144286D01*
X128436666Y-86572381D02*
X128770000Y-86096190D01*
X129008095Y-86572381D02*
X129008095Y-85572381D01*
X128627142Y-85572381D01*
X128531904Y-85620000D01*
X128484285Y-85667619D01*
X128436666Y-85762857D01*
X128436666Y-85905714D01*
X128484285Y-86000952D01*
X128531904Y-86048571D01*
X128627142Y-86096190D01*
X129008095Y-86096190D01*
X127484285Y-86572381D02*
X128055714Y-86572381D01*
X127770000Y-86572381D02*
X127770000Y-85572381D01*
X127865238Y-85715238D01*
X127960476Y-85810476D01*
X128055714Y-85858095D01*
X128436666Y-98637381D02*
X128770000Y-98161190D01*
X129008095Y-98637381D02*
X129008095Y-97637381D01*
X128627142Y-97637381D01*
X128531904Y-97685000D01*
X128484285Y-97732619D01*
X128436666Y-97827857D01*
X128436666Y-97970714D01*
X128484285Y-98065952D01*
X128531904Y-98113571D01*
X128627142Y-98161190D01*
X129008095Y-98161190D01*
X128055714Y-97732619D02*
X128008095Y-97685000D01*
X127912857Y-97637381D01*
X127674761Y-97637381D01*
X127579523Y-97685000D01*
X127531904Y-97732619D01*
X127484285Y-97827857D01*
X127484285Y-97923095D01*
X127531904Y-98065952D01*
X128103333Y-98637381D01*
X127484285Y-98637381D01*
X128436666Y-110702381D02*
X128770000Y-110226190D01*
X129008095Y-110702381D02*
X129008095Y-109702381D01*
X128627142Y-109702381D01*
X128531904Y-109750000D01*
X128484285Y-109797619D01*
X128436666Y-109892857D01*
X128436666Y-110035714D01*
X128484285Y-110130952D01*
X128531904Y-110178571D01*
X128627142Y-110226190D01*
X129008095Y-110226190D01*
X128103333Y-109702381D02*
X127484285Y-109702381D01*
X127817619Y-110083333D01*
X127674761Y-110083333D01*
X127579523Y-110130952D01*
X127531904Y-110178571D01*
X127484285Y-110273810D01*
X127484285Y-110511905D01*
X127531904Y-110607143D01*
X127579523Y-110654762D01*
X127674761Y-110702381D01*
X127960476Y-110702381D01*
X128055714Y-110654762D01*
X128103333Y-110607143D01*
X128436666Y-122767381D02*
X128770000Y-122291190D01*
X129008095Y-122767381D02*
X129008095Y-121767381D01*
X128627142Y-121767381D01*
X128531904Y-121815000D01*
X128484285Y-121862619D01*
X128436666Y-121957857D01*
X128436666Y-122100714D01*
X128484285Y-122195952D01*
X128531904Y-122243571D01*
X128627142Y-122291190D01*
X129008095Y-122291190D01*
X127579523Y-122100714D02*
X127579523Y-122767381D01*
X127817619Y-121719762D02*
X128055714Y-122434048D01*
X127436666Y-122434048D01*
X128436666Y-134832381D02*
X128770000Y-134356190D01*
X129008095Y-134832381D02*
X129008095Y-133832381D01*
X128627142Y-133832381D01*
X128531904Y-133880000D01*
X128484285Y-133927619D01*
X128436666Y-134022857D01*
X128436666Y-134165714D01*
X128484285Y-134260952D01*
X128531904Y-134308571D01*
X128627142Y-134356190D01*
X129008095Y-134356190D01*
X127531904Y-133832381D02*
X128008095Y-133832381D01*
X128055714Y-134308571D01*
X128008095Y-134260952D01*
X127912857Y-134213333D01*
X127674761Y-134213333D01*
X127579523Y-134260952D01*
X127531904Y-134308571D01*
X127484285Y-134403810D01*
X127484285Y-134641905D01*
X127531904Y-134737143D01*
X127579523Y-134784762D01*
X127674761Y-134832381D01*
X127912857Y-134832381D01*
X128008095Y-134784762D01*
X128055714Y-134737143D01*
X104832381Y-74128334D02*
X104356190Y-73795000D01*
X104832381Y-73556905D02*
X103832381Y-73556905D01*
X103832381Y-73937858D01*
X103880000Y-74033096D01*
X103927619Y-74080715D01*
X104022857Y-74128334D01*
X104165714Y-74128334D01*
X104260952Y-74080715D01*
X104308571Y-74033096D01*
X104356190Y-73937858D01*
X104356190Y-73556905D01*
X103832381Y-74985477D02*
X103832381Y-74795000D01*
X103880000Y-74699762D01*
X103927619Y-74652143D01*
X104070476Y-74556905D01*
X104260952Y-74509286D01*
X104641905Y-74509286D01*
X104737143Y-74556905D01*
X104784762Y-74604524D01*
X104832381Y-74699762D01*
X104832381Y-74890239D01*
X104784762Y-74985477D01*
X104737143Y-75033096D01*
X104641905Y-75080715D01*
X104403810Y-75080715D01*
X104308571Y-75033096D01*
X104260952Y-74985477D01*
X104213333Y-74890239D01*
X104213333Y-74699762D01*
X104260952Y-74604524D01*
X104308571Y-74556905D01*
X104403810Y-74509286D01*
X174632857Y-87747143D02*
X174680476Y-87794762D01*
X174823333Y-87842381D01*
X174918571Y-87842381D01*
X175061429Y-87794762D01*
X175156667Y-87699524D01*
X175204286Y-87604286D01*
X175251905Y-87413810D01*
X175251905Y-87270952D01*
X175204286Y-87080476D01*
X175156667Y-86985238D01*
X175061429Y-86890000D01*
X174918571Y-86842381D01*
X174823333Y-86842381D01*
X174680476Y-86890000D01*
X174632857Y-86937619D01*
X174299524Y-86842381D02*
X173680476Y-86842381D01*
X174013810Y-87223333D01*
X173870952Y-87223333D01*
X173775714Y-87270952D01*
X173728095Y-87318571D01*
X173680476Y-87413810D01*
X173680476Y-87651905D01*
X173728095Y-87747143D01*
X173775714Y-87794762D01*
X173870952Y-87842381D01*
X174156667Y-87842381D01*
X174251905Y-87794762D01*
X174299524Y-87747143D01*
X173347143Y-86842381D02*
X172728095Y-86842381D01*
X173061429Y-87223333D01*
X172918571Y-87223333D01*
X172823333Y-87270952D01*
X172775714Y-87318571D01*
X172728095Y-87413810D01*
X172728095Y-87651905D01*
X172775714Y-87747143D01*
X172823333Y-87794762D01*
X172918571Y-87842381D01*
X173204286Y-87842381D01*
X173299524Y-87794762D01*
X173347143Y-87747143D01*
X177807857Y-111877143D02*
X177855476Y-111924762D01*
X177998333Y-111972381D01*
X178093571Y-111972381D01*
X178236429Y-111924762D01*
X178331667Y-111829524D01*
X178379286Y-111734286D01*
X178426905Y-111543810D01*
X178426905Y-111400952D01*
X178379286Y-111210476D01*
X178331667Y-111115238D01*
X178236429Y-111020000D01*
X178093571Y-110972381D01*
X177998333Y-110972381D01*
X177855476Y-111020000D01*
X177807857Y-111067619D01*
X177474524Y-110972381D02*
X176855476Y-110972381D01*
X177188810Y-111353333D01*
X177045952Y-111353333D01*
X176950714Y-111400952D01*
X176903095Y-111448571D01*
X176855476Y-111543810D01*
X176855476Y-111781905D01*
X176903095Y-111877143D01*
X176950714Y-111924762D01*
X177045952Y-111972381D01*
X177331667Y-111972381D01*
X177426905Y-111924762D01*
X177474524Y-111877143D01*
X175998333Y-111305714D02*
X175998333Y-111972381D01*
X176236429Y-110924762D02*
X176474524Y-111639048D01*
X175855476Y-111639048D01*
X177807857Y-123942143D02*
X177855476Y-123989762D01*
X177998333Y-124037381D01*
X178093571Y-124037381D01*
X178236429Y-123989762D01*
X178331667Y-123894524D01*
X178379286Y-123799286D01*
X178426905Y-123608810D01*
X178426905Y-123465952D01*
X178379286Y-123275476D01*
X178331667Y-123180238D01*
X178236429Y-123085000D01*
X178093571Y-123037381D01*
X177998333Y-123037381D01*
X177855476Y-123085000D01*
X177807857Y-123132619D01*
X177474524Y-123037381D02*
X176855476Y-123037381D01*
X177188810Y-123418333D01*
X177045952Y-123418333D01*
X176950714Y-123465952D01*
X176903095Y-123513571D01*
X176855476Y-123608810D01*
X176855476Y-123846905D01*
X176903095Y-123942143D01*
X176950714Y-123989762D01*
X177045952Y-124037381D01*
X177331667Y-124037381D01*
X177426905Y-123989762D01*
X177474524Y-123942143D01*
X175950714Y-123037381D02*
X176426905Y-123037381D01*
X176474524Y-123513571D01*
X176426905Y-123465952D01*
X176331667Y-123418333D01*
X176093571Y-123418333D01*
X175998333Y-123465952D01*
X175950714Y-123513571D01*
X175903095Y-123608810D01*
X175903095Y-123846905D01*
X175950714Y-123942143D01*
X175998333Y-123989762D01*
X176093571Y-124037381D01*
X176331667Y-124037381D01*
X176426905Y-123989762D01*
X176474524Y-123942143D01*
X173997857Y-136007143D02*
X174045476Y-136054762D01*
X174188333Y-136102381D01*
X174283571Y-136102381D01*
X174426429Y-136054762D01*
X174521667Y-135959524D01*
X174569286Y-135864286D01*
X174616905Y-135673810D01*
X174616905Y-135530952D01*
X174569286Y-135340476D01*
X174521667Y-135245238D01*
X174426429Y-135150000D01*
X174283571Y-135102381D01*
X174188333Y-135102381D01*
X174045476Y-135150000D01*
X173997857Y-135197619D01*
X173664524Y-135102381D02*
X173045476Y-135102381D01*
X173378810Y-135483333D01*
X173235952Y-135483333D01*
X173140714Y-135530952D01*
X173093095Y-135578571D01*
X173045476Y-135673810D01*
X173045476Y-135911905D01*
X173093095Y-136007143D01*
X173140714Y-136054762D01*
X173235952Y-136102381D01*
X173521667Y-136102381D01*
X173616905Y-136054762D01*
X173664524Y-136007143D01*
X172188333Y-135102381D02*
X172378810Y-135102381D01*
X172474048Y-135150000D01*
X172521667Y-135197619D01*
X172616905Y-135340476D01*
X172664524Y-135530952D01*
X172664524Y-135911905D01*
X172616905Y-136007143D01*
X172569286Y-136054762D01*
X172474048Y-136102381D01*
X172283571Y-136102381D01*
X172188333Y-136054762D01*
X172140714Y-136007143D01*
X172093095Y-135911905D01*
X172093095Y-135673810D01*
X172140714Y-135578571D01*
X172188333Y-135530952D01*
X172283571Y-135483333D01*
X172474048Y-135483333D01*
X172569286Y-135530952D01*
X172616905Y-135578571D01*
X172664524Y-135673810D01*
X174632857Y-85207143D02*
X174680476Y-85254762D01*
X174823333Y-85302381D01*
X174918571Y-85302381D01*
X175061429Y-85254762D01*
X175156667Y-85159524D01*
X175204286Y-85064286D01*
X175251905Y-84873810D01*
X175251905Y-84730952D01*
X175204286Y-84540476D01*
X175156667Y-84445238D01*
X175061429Y-84350000D01*
X174918571Y-84302381D01*
X174823333Y-84302381D01*
X174680476Y-84350000D01*
X174632857Y-84397619D01*
X174299524Y-84302381D02*
X173680476Y-84302381D01*
X174013810Y-84683333D01*
X173870952Y-84683333D01*
X173775714Y-84730952D01*
X173728095Y-84778571D01*
X173680476Y-84873810D01*
X173680476Y-85111905D01*
X173728095Y-85207143D01*
X173775714Y-85254762D01*
X173870952Y-85302381D01*
X174156667Y-85302381D01*
X174251905Y-85254762D01*
X174299524Y-85207143D01*
X173347143Y-84302381D02*
X172680476Y-84302381D01*
X173109048Y-85302381D01*
X177807857Y-97272143D02*
X177855476Y-97319762D01*
X177998333Y-97367381D01*
X178093571Y-97367381D01*
X178236429Y-97319762D01*
X178331667Y-97224524D01*
X178379286Y-97129286D01*
X178426905Y-96938810D01*
X178426905Y-96795952D01*
X178379286Y-96605476D01*
X178331667Y-96510238D01*
X178236429Y-96415000D01*
X178093571Y-96367381D01*
X177998333Y-96367381D01*
X177855476Y-96415000D01*
X177807857Y-96462619D01*
X177474524Y-96367381D02*
X176855476Y-96367381D01*
X177188810Y-96748333D01*
X177045952Y-96748333D01*
X176950714Y-96795952D01*
X176903095Y-96843571D01*
X176855476Y-96938810D01*
X176855476Y-97176905D01*
X176903095Y-97272143D01*
X176950714Y-97319762D01*
X177045952Y-97367381D01*
X177331667Y-97367381D01*
X177426905Y-97319762D01*
X177474524Y-97272143D01*
X176284048Y-96795952D02*
X176379286Y-96748333D01*
X176426905Y-96700714D01*
X176474524Y-96605476D01*
X176474524Y-96557857D01*
X176426905Y-96462619D01*
X176379286Y-96415000D01*
X176284048Y-96367381D01*
X176093571Y-96367381D01*
X175998333Y-96415000D01*
X175950714Y-96462619D01*
X175903095Y-96557857D01*
X175903095Y-96605476D01*
X175950714Y-96700714D01*
X175998333Y-96748333D01*
X176093571Y-96795952D01*
X176284048Y-96795952D01*
X176379286Y-96843571D01*
X176426905Y-96891190D01*
X176474524Y-96986429D01*
X176474524Y-97176905D01*
X176426905Y-97272143D01*
X176379286Y-97319762D01*
X176284048Y-97367381D01*
X176093571Y-97367381D01*
X175998333Y-97319762D01*
X175950714Y-97272143D01*
X175903095Y-97176905D01*
X175903095Y-96986429D01*
X175950714Y-96891190D01*
X175998333Y-96843571D01*
X176093571Y-96795952D01*
X177807857Y-109337143D02*
X177855476Y-109384762D01*
X177998333Y-109432381D01*
X178093571Y-109432381D01*
X178236429Y-109384762D01*
X178331667Y-109289524D01*
X178379286Y-109194286D01*
X178426905Y-109003810D01*
X178426905Y-108860952D01*
X178379286Y-108670476D01*
X178331667Y-108575238D01*
X178236429Y-108480000D01*
X178093571Y-108432381D01*
X177998333Y-108432381D01*
X177855476Y-108480000D01*
X177807857Y-108527619D01*
X177474524Y-108432381D02*
X176855476Y-108432381D01*
X177188810Y-108813333D01*
X177045952Y-108813333D01*
X176950714Y-108860952D01*
X176903095Y-108908571D01*
X176855476Y-109003810D01*
X176855476Y-109241905D01*
X176903095Y-109337143D01*
X176950714Y-109384762D01*
X177045952Y-109432381D01*
X177331667Y-109432381D01*
X177426905Y-109384762D01*
X177474524Y-109337143D01*
X176379286Y-109432381D02*
X176188810Y-109432381D01*
X176093571Y-109384762D01*
X176045952Y-109337143D01*
X175950714Y-109194286D01*
X175903095Y-109003810D01*
X175903095Y-108622857D01*
X175950714Y-108527619D01*
X175998333Y-108480000D01*
X176093571Y-108432381D01*
X176284048Y-108432381D01*
X176379286Y-108480000D01*
X176426905Y-108527619D01*
X176474524Y-108622857D01*
X176474524Y-108860952D01*
X176426905Y-108956190D01*
X176379286Y-109003810D01*
X176284048Y-109051429D01*
X176093571Y-109051429D01*
X175998333Y-109003810D01*
X175950714Y-108956190D01*
X175903095Y-108860952D01*
X177807857Y-121402143D02*
X177855476Y-121449762D01*
X177998333Y-121497381D01*
X178093571Y-121497381D01*
X178236429Y-121449762D01*
X178331667Y-121354524D01*
X178379286Y-121259286D01*
X178426905Y-121068810D01*
X178426905Y-120925952D01*
X178379286Y-120735476D01*
X178331667Y-120640238D01*
X178236429Y-120545000D01*
X178093571Y-120497381D01*
X177998333Y-120497381D01*
X177855476Y-120545000D01*
X177807857Y-120592619D01*
X176950714Y-120830714D02*
X176950714Y-121497381D01*
X177188810Y-120449762D02*
X177426905Y-121164048D01*
X176807857Y-121164048D01*
X176236429Y-120497381D02*
X176141190Y-120497381D01*
X176045952Y-120545000D01*
X175998333Y-120592619D01*
X175950714Y-120687857D01*
X175903095Y-120878333D01*
X175903095Y-121116429D01*
X175950714Y-121306905D01*
X175998333Y-121402143D01*
X176045952Y-121449762D01*
X176141190Y-121497381D01*
X176236429Y-121497381D01*
X176331667Y-121449762D01*
X176379286Y-121402143D01*
X176426905Y-121306905D01*
X176474524Y-121116429D01*
X176474524Y-120878333D01*
X176426905Y-120687857D01*
X176379286Y-120592619D01*
X176331667Y-120545000D01*
X176236429Y-120497381D01*
X173997857Y-133467143D02*
X174045476Y-133514762D01*
X174188333Y-133562381D01*
X174283571Y-133562381D01*
X174426429Y-133514762D01*
X174521667Y-133419524D01*
X174569286Y-133324286D01*
X174616905Y-133133810D01*
X174616905Y-132990952D01*
X174569286Y-132800476D01*
X174521667Y-132705238D01*
X174426429Y-132610000D01*
X174283571Y-132562381D01*
X174188333Y-132562381D01*
X174045476Y-132610000D01*
X173997857Y-132657619D01*
X173140714Y-132895714D02*
X173140714Y-133562381D01*
X173378810Y-132514762D02*
X173616905Y-133229048D01*
X172997857Y-133229048D01*
X172093095Y-133562381D02*
X172664524Y-133562381D01*
X172378810Y-133562381D02*
X172378810Y-132562381D01*
X172474048Y-132705238D01*
X172569286Y-132800476D01*
X172664524Y-132848095D01*
X121292857Y-83147143D02*
X121340476Y-83194762D01*
X121483333Y-83242381D01*
X121578571Y-83242381D01*
X121721429Y-83194762D01*
X121816667Y-83099524D01*
X121864286Y-83004286D01*
X121911905Y-82813810D01*
X121911905Y-82670952D01*
X121864286Y-82480476D01*
X121816667Y-82385238D01*
X121721429Y-82290000D01*
X121578571Y-82242381D01*
X121483333Y-82242381D01*
X121340476Y-82290000D01*
X121292857Y-82337619D01*
X120435714Y-82575714D02*
X120435714Y-83242381D01*
X120673810Y-82194762D02*
X120911905Y-82909048D01*
X120292857Y-82909048D01*
X119959524Y-82337619D02*
X119911905Y-82290000D01*
X119816667Y-82242381D01*
X119578571Y-82242381D01*
X119483333Y-82290000D01*
X119435714Y-82337619D01*
X119388095Y-82432857D01*
X119388095Y-82528095D01*
X119435714Y-82670952D01*
X120007143Y-83242381D01*
X119388095Y-83242381D01*
X121292857Y-95212143D02*
X121340476Y-95259762D01*
X121483333Y-95307381D01*
X121578571Y-95307381D01*
X121721429Y-95259762D01*
X121816667Y-95164524D01*
X121864286Y-95069286D01*
X121911905Y-94878810D01*
X121911905Y-94735952D01*
X121864286Y-94545476D01*
X121816667Y-94450238D01*
X121721429Y-94355000D01*
X121578571Y-94307381D01*
X121483333Y-94307381D01*
X121340476Y-94355000D01*
X121292857Y-94402619D01*
X120435714Y-94640714D02*
X120435714Y-95307381D01*
X120673810Y-94259762D02*
X120911905Y-94974048D01*
X120292857Y-94974048D01*
X120007143Y-94307381D02*
X119388095Y-94307381D01*
X119721429Y-94688333D01*
X119578571Y-94688333D01*
X119483333Y-94735952D01*
X119435714Y-94783571D01*
X119388095Y-94878810D01*
X119388095Y-95116905D01*
X119435714Y-95212143D01*
X119483333Y-95259762D01*
X119578571Y-95307381D01*
X119864286Y-95307381D01*
X119959524Y-95259762D01*
X120007143Y-95212143D01*
X121292857Y-107277143D02*
X121340476Y-107324762D01*
X121483333Y-107372381D01*
X121578571Y-107372381D01*
X121721429Y-107324762D01*
X121816667Y-107229524D01*
X121864286Y-107134286D01*
X121911905Y-106943810D01*
X121911905Y-106800952D01*
X121864286Y-106610476D01*
X121816667Y-106515238D01*
X121721429Y-106420000D01*
X121578571Y-106372381D01*
X121483333Y-106372381D01*
X121340476Y-106420000D01*
X121292857Y-106467619D01*
X120435714Y-106705714D02*
X120435714Y-107372381D01*
X120673810Y-106324762D02*
X120911905Y-107039048D01*
X120292857Y-107039048D01*
X119483333Y-106705714D02*
X119483333Y-107372381D01*
X119721429Y-106324762D02*
X119959524Y-107039048D01*
X119340476Y-107039048D01*
X121292857Y-119342143D02*
X121340476Y-119389762D01*
X121483333Y-119437381D01*
X121578571Y-119437381D01*
X121721429Y-119389762D01*
X121816667Y-119294524D01*
X121864286Y-119199286D01*
X121911905Y-119008810D01*
X121911905Y-118865952D01*
X121864286Y-118675476D01*
X121816667Y-118580238D01*
X121721429Y-118485000D01*
X121578571Y-118437381D01*
X121483333Y-118437381D01*
X121340476Y-118485000D01*
X121292857Y-118532619D01*
X120435714Y-118770714D02*
X120435714Y-119437381D01*
X120673810Y-118389762D02*
X120911905Y-119104048D01*
X120292857Y-119104048D01*
X119435714Y-118437381D02*
X119911905Y-118437381D01*
X119959524Y-118913571D01*
X119911905Y-118865952D01*
X119816667Y-118818333D01*
X119578571Y-118818333D01*
X119483333Y-118865952D01*
X119435714Y-118913571D01*
X119388095Y-119008810D01*
X119388095Y-119246905D01*
X119435714Y-119342143D01*
X119483333Y-119389762D01*
X119578571Y-119437381D01*
X119816667Y-119437381D01*
X119911905Y-119389762D01*
X119959524Y-119342143D01*
X121292857Y-131407143D02*
X121340476Y-131454762D01*
X121483333Y-131502381D01*
X121578571Y-131502381D01*
X121721429Y-131454762D01*
X121816667Y-131359524D01*
X121864286Y-131264286D01*
X121911905Y-131073810D01*
X121911905Y-130930952D01*
X121864286Y-130740476D01*
X121816667Y-130645238D01*
X121721429Y-130550000D01*
X121578571Y-130502381D01*
X121483333Y-130502381D01*
X121340476Y-130550000D01*
X121292857Y-130597619D01*
X120435714Y-130835714D02*
X120435714Y-131502381D01*
X120673810Y-130454762D02*
X120911905Y-131169048D01*
X120292857Y-131169048D01*
X119483333Y-130502381D02*
X119673810Y-130502381D01*
X119769048Y-130550000D01*
X119816667Y-130597619D01*
X119911905Y-130740476D01*
X119959524Y-130930952D01*
X119959524Y-131311905D01*
X119911905Y-131407143D01*
X119864286Y-131454762D01*
X119769048Y-131502381D01*
X119578571Y-131502381D01*
X119483333Y-131454762D01*
X119435714Y-131407143D01*
X119388095Y-131311905D01*
X119388095Y-131073810D01*
X119435714Y-130978571D01*
X119483333Y-130930952D01*
X119578571Y-130883333D01*
X119769048Y-130883333D01*
X119864286Y-130930952D01*
X119911905Y-130978571D01*
X119959524Y-131073810D01*
X121292857Y-80607143D02*
X121340476Y-80654762D01*
X121483333Y-80702381D01*
X121578571Y-80702381D01*
X121721429Y-80654762D01*
X121816667Y-80559524D01*
X121864286Y-80464286D01*
X121911905Y-80273810D01*
X121911905Y-80130952D01*
X121864286Y-79940476D01*
X121816667Y-79845238D01*
X121721429Y-79750000D01*
X121578571Y-79702381D01*
X121483333Y-79702381D01*
X121340476Y-79750000D01*
X121292857Y-79797619D01*
X120435714Y-80035714D02*
X120435714Y-80702381D01*
X120673810Y-79654762D02*
X120911905Y-80369048D01*
X120292857Y-80369048D01*
X120007143Y-79702381D02*
X119340476Y-79702381D01*
X119769048Y-80702381D01*
X121292857Y-92672143D02*
X121340476Y-92719762D01*
X121483333Y-92767381D01*
X121578571Y-92767381D01*
X121721429Y-92719762D01*
X121816667Y-92624524D01*
X121864286Y-92529286D01*
X121911905Y-92338810D01*
X121911905Y-92195952D01*
X121864286Y-92005476D01*
X121816667Y-91910238D01*
X121721429Y-91815000D01*
X121578571Y-91767381D01*
X121483333Y-91767381D01*
X121340476Y-91815000D01*
X121292857Y-91862619D01*
X120435714Y-92100714D02*
X120435714Y-92767381D01*
X120673810Y-91719762D02*
X120911905Y-92434048D01*
X120292857Y-92434048D01*
X119769048Y-92195952D02*
X119864286Y-92148333D01*
X119911905Y-92100714D01*
X119959524Y-92005476D01*
X119959524Y-91957857D01*
X119911905Y-91862619D01*
X119864286Y-91815000D01*
X119769048Y-91767381D01*
X119578571Y-91767381D01*
X119483333Y-91815000D01*
X119435714Y-91862619D01*
X119388095Y-91957857D01*
X119388095Y-92005476D01*
X119435714Y-92100714D01*
X119483333Y-92148333D01*
X119578571Y-92195952D01*
X119769048Y-92195952D01*
X119864286Y-92243571D01*
X119911905Y-92291190D01*
X119959524Y-92386429D01*
X119959524Y-92576905D01*
X119911905Y-92672143D01*
X119864286Y-92719762D01*
X119769048Y-92767381D01*
X119578571Y-92767381D01*
X119483333Y-92719762D01*
X119435714Y-92672143D01*
X119388095Y-92576905D01*
X119388095Y-92386429D01*
X119435714Y-92291190D01*
X119483333Y-92243571D01*
X119578571Y-92195952D01*
X121292857Y-104737143D02*
X121340476Y-104784762D01*
X121483333Y-104832381D01*
X121578571Y-104832381D01*
X121721429Y-104784762D01*
X121816667Y-104689524D01*
X121864286Y-104594286D01*
X121911905Y-104403810D01*
X121911905Y-104260952D01*
X121864286Y-104070476D01*
X121816667Y-103975238D01*
X121721429Y-103880000D01*
X121578571Y-103832381D01*
X121483333Y-103832381D01*
X121340476Y-103880000D01*
X121292857Y-103927619D01*
X120435714Y-104165714D02*
X120435714Y-104832381D01*
X120673810Y-103784762D02*
X120911905Y-104499048D01*
X120292857Y-104499048D01*
X119864286Y-104832381D02*
X119673810Y-104832381D01*
X119578571Y-104784762D01*
X119530952Y-104737143D01*
X119435714Y-104594286D01*
X119388095Y-104403810D01*
X119388095Y-104022857D01*
X119435714Y-103927619D01*
X119483333Y-103880000D01*
X119578571Y-103832381D01*
X119769048Y-103832381D01*
X119864286Y-103880000D01*
X119911905Y-103927619D01*
X119959524Y-104022857D01*
X119959524Y-104260952D01*
X119911905Y-104356190D01*
X119864286Y-104403810D01*
X119769048Y-104451429D01*
X119578571Y-104451429D01*
X119483333Y-104403810D01*
X119435714Y-104356190D01*
X119388095Y-104260952D01*
X121292857Y-116802143D02*
X121340476Y-116849762D01*
X121483333Y-116897381D01*
X121578571Y-116897381D01*
X121721429Y-116849762D01*
X121816667Y-116754524D01*
X121864286Y-116659286D01*
X121911905Y-116468810D01*
X121911905Y-116325952D01*
X121864286Y-116135476D01*
X121816667Y-116040238D01*
X121721429Y-115945000D01*
X121578571Y-115897381D01*
X121483333Y-115897381D01*
X121340476Y-115945000D01*
X121292857Y-115992619D01*
X120388095Y-115897381D02*
X120864286Y-115897381D01*
X120911905Y-116373571D01*
X120864286Y-116325952D01*
X120769048Y-116278333D01*
X120530952Y-116278333D01*
X120435714Y-116325952D01*
X120388095Y-116373571D01*
X120340476Y-116468810D01*
X120340476Y-116706905D01*
X120388095Y-116802143D01*
X120435714Y-116849762D01*
X120530952Y-116897381D01*
X120769048Y-116897381D01*
X120864286Y-116849762D01*
X120911905Y-116802143D01*
X119721429Y-115897381D02*
X119626190Y-115897381D01*
X119530952Y-115945000D01*
X119483333Y-115992619D01*
X119435714Y-116087857D01*
X119388095Y-116278333D01*
X119388095Y-116516429D01*
X119435714Y-116706905D01*
X119483333Y-116802143D01*
X119530952Y-116849762D01*
X119626190Y-116897381D01*
X119721429Y-116897381D01*
X119816667Y-116849762D01*
X119864286Y-116802143D01*
X119911905Y-116706905D01*
X119959524Y-116516429D01*
X119959524Y-116278333D01*
X119911905Y-116087857D01*
X119864286Y-115992619D01*
X119816667Y-115945000D01*
X119721429Y-115897381D01*
X121292857Y-128867143D02*
X121340476Y-128914762D01*
X121483333Y-128962381D01*
X121578571Y-128962381D01*
X121721429Y-128914762D01*
X121816667Y-128819524D01*
X121864286Y-128724286D01*
X121911905Y-128533810D01*
X121911905Y-128390952D01*
X121864286Y-128200476D01*
X121816667Y-128105238D01*
X121721429Y-128010000D01*
X121578571Y-127962381D01*
X121483333Y-127962381D01*
X121340476Y-128010000D01*
X121292857Y-128057619D01*
X120388095Y-127962381D02*
X120864286Y-127962381D01*
X120911905Y-128438571D01*
X120864286Y-128390952D01*
X120769048Y-128343333D01*
X120530952Y-128343333D01*
X120435714Y-128390952D01*
X120388095Y-128438571D01*
X120340476Y-128533810D01*
X120340476Y-128771905D01*
X120388095Y-128867143D01*
X120435714Y-128914762D01*
X120530952Y-128962381D01*
X120769048Y-128962381D01*
X120864286Y-128914762D01*
X120911905Y-128867143D01*
X119388095Y-128962381D02*
X119959524Y-128962381D01*
X119673810Y-128962381D02*
X119673810Y-127962381D01*
X119769048Y-128105238D01*
X119864286Y-128200476D01*
X119959524Y-128248095D01*
X97752143Y-73652143D02*
X97799762Y-73604524D01*
X97847381Y-73461667D01*
X97847381Y-73366429D01*
X97799762Y-73223571D01*
X97704524Y-73128333D01*
X97609286Y-73080714D01*
X97418810Y-73033095D01*
X97275952Y-73033095D01*
X97085476Y-73080714D01*
X96990238Y-73128333D01*
X96895000Y-73223571D01*
X96847381Y-73366429D01*
X96847381Y-73461667D01*
X96895000Y-73604524D01*
X96942619Y-73652143D01*
X96847381Y-74556905D02*
X96847381Y-74080714D01*
X97323571Y-74033095D01*
X97275952Y-74080714D01*
X97228333Y-74175952D01*
X97228333Y-74414048D01*
X97275952Y-74509286D01*
X97323571Y-74556905D01*
X97418810Y-74604524D01*
X97656905Y-74604524D01*
X97752143Y-74556905D01*
X97799762Y-74509286D01*
X97847381Y-74414048D01*
X97847381Y-74175952D01*
X97799762Y-74080714D01*
X97752143Y-74033095D01*
X96942619Y-74985476D02*
X96895000Y-75033095D01*
X96847381Y-75128333D01*
X96847381Y-75366429D01*
X96895000Y-75461667D01*
X96942619Y-75509286D01*
X97037857Y-75556905D01*
X97133095Y-75556905D01*
X97275952Y-75509286D01*
X97847381Y-74937857D01*
X97847381Y-75556905D01*
X107912143Y-73652143D02*
X107959762Y-73604524D01*
X108007381Y-73461667D01*
X108007381Y-73366429D01*
X107959762Y-73223571D01*
X107864524Y-73128333D01*
X107769286Y-73080714D01*
X107578810Y-73033095D01*
X107435952Y-73033095D01*
X107245476Y-73080714D01*
X107150238Y-73128333D01*
X107055000Y-73223571D01*
X107007381Y-73366429D01*
X107007381Y-73461667D01*
X107055000Y-73604524D01*
X107102619Y-73652143D01*
X107007381Y-74556905D02*
X107007381Y-74080714D01*
X107483571Y-74033095D01*
X107435952Y-74080714D01*
X107388333Y-74175952D01*
X107388333Y-74414048D01*
X107435952Y-74509286D01*
X107483571Y-74556905D01*
X107578810Y-74604524D01*
X107816905Y-74604524D01*
X107912143Y-74556905D01*
X107959762Y-74509286D01*
X108007381Y-74414048D01*
X108007381Y-74175952D01*
X107959762Y-74080714D01*
X107912143Y-74033095D01*
X107007381Y-74937857D02*
X107007381Y-75556905D01*
X107388333Y-75223571D01*
X107388333Y-75366429D01*
X107435952Y-75461667D01*
X107483571Y-75509286D01*
X107578810Y-75556905D01*
X107816905Y-75556905D01*
X107912143Y-75509286D01*
X107959762Y-75461667D01*
X108007381Y-75366429D01*
X108007381Y-75080714D01*
X107959762Y-74985476D01*
X107912143Y-74937857D01*
X153677857Y-73777143D02*
X153725476Y-73824762D01*
X153868333Y-73872381D01*
X153963571Y-73872381D01*
X154106429Y-73824762D01*
X154201667Y-73729524D01*
X154249286Y-73634286D01*
X154296905Y-73443810D01*
X154296905Y-73300952D01*
X154249286Y-73110476D01*
X154201667Y-73015238D01*
X154106429Y-72920000D01*
X153963571Y-72872381D01*
X153868333Y-72872381D01*
X153725476Y-72920000D01*
X153677857Y-72967619D01*
X152773095Y-72872381D02*
X153249286Y-72872381D01*
X153296905Y-73348571D01*
X153249286Y-73300952D01*
X153154048Y-73253333D01*
X152915952Y-73253333D01*
X152820714Y-73300952D01*
X152773095Y-73348571D01*
X152725476Y-73443810D01*
X152725476Y-73681905D01*
X152773095Y-73777143D01*
X152820714Y-73824762D01*
X152915952Y-73872381D01*
X153154048Y-73872381D01*
X153249286Y-73824762D01*
X153296905Y-73777143D01*
X151868333Y-73205714D02*
X151868333Y-73872381D01*
X152106429Y-72824762D02*
X152344524Y-73539048D01*
X151725476Y-73539048D01*
X153677857Y-71237143D02*
X153725476Y-71284762D01*
X153868333Y-71332381D01*
X153963571Y-71332381D01*
X154106429Y-71284762D01*
X154201667Y-71189524D01*
X154249286Y-71094286D01*
X154296905Y-70903810D01*
X154296905Y-70760952D01*
X154249286Y-70570476D01*
X154201667Y-70475238D01*
X154106429Y-70380000D01*
X153963571Y-70332381D01*
X153868333Y-70332381D01*
X153725476Y-70380000D01*
X153677857Y-70427619D01*
X152773095Y-70332381D02*
X153249286Y-70332381D01*
X153296905Y-70808571D01*
X153249286Y-70760952D01*
X153154048Y-70713333D01*
X152915952Y-70713333D01*
X152820714Y-70760952D01*
X152773095Y-70808571D01*
X152725476Y-70903810D01*
X152725476Y-71141905D01*
X152773095Y-71237143D01*
X152820714Y-71284762D01*
X152915952Y-71332381D01*
X153154048Y-71332381D01*
X153249286Y-71284762D01*
X153296905Y-71237143D01*
X151820714Y-70332381D02*
X152296905Y-70332381D01*
X152344524Y-70808571D01*
X152296905Y-70760952D01*
X152201667Y-70713333D01*
X151963571Y-70713333D01*
X151868333Y-70760952D01*
X151820714Y-70808571D01*
X151773095Y-70903810D01*
X151773095Y-71141905D01*
X151820714Y-71237143D01*
X151868333Y-71284762D01*
X151963571Y-71332381D01*
X152201667Y-71332381D01*
X152296905Y-71284762D01*
X152344524Y-71237143D01*
X177807857Y-99812143D02*
X177855476Y-99859762D01*
X177998333Y-99907381D01*
X178093571Y-99907381D01*
X178236429Y-99859762D01*
X178331667Y-99764524D01*
X178379286Y-99669286D01*
X178426905Y-99478810D01*
X178426905Y-99335952D01*
X178379286Y-99145476D01*
X178331667Y-99050238D01*
X178236429Y-98955000D01*
X178093571Y-98907381D01*
X177998333Y-98907381D01*
X177855476Y-98955000D01*
X177807857Y-99002619D01*
X176903095Y-98907381D02*
X177379286Y-98907381D01*
X177426905Y-99383571D01*
X177379286Y-99335952D01*
X177284048Y-99288333D01*
X177045952Y-99288333D01*
X176950714Y-99335952D01*
X176903095Y-99383571D01*
X176855476Y-99478810D01*
X176855476Y-99716905D01*
X176903095Y-99812143D01*
X176950714Y-99859762D01*
X177045952Y-99907381D01*
X177284048Y-99907381D01*
X177379286Y-99859762D01*
X177426905Y-99812143D01*
X175998333Y-98907381D02*
X176188810Y-98907381D01*
X176284048Y-98955000D01*
X176331667Y-99002619D01*
X176426905Y-99145476D01*
X176474524Y-99335952D01*
X176474524Y-99716905D01*
X176426905Y-99812143D01*
X176379286Y-99859762D01*
X176284048Y-99907381D01*
X176093571Y-99907381D01*
X175998333Y-99859762D01*
X175950714Y-99812143D01*
X175903095Y-99716905D01*
X175903095Y-99478810D01*
X175950714Y-99383571D01*
X175998333Y-99335952D01*
X176093571Y-99288333D01*
X176284048Y-99288333D01*
X176379286Y-99335952D01*
X176426905Y-99383571D01*
X176474524Y-99478810D01*
X121751381Y-150256953D02*
X121275190Y-149923619D01*
X121751381Y-149685524D02*
X120751381Y-149685524D01*
X120751381Y-150066477D01*
X120799000Y-150161715D01*
X120846619Y-150209334D01*
X120941857Y-150256953D01*
X121084714Y-150256953D01*
X121179952Y-150209334D01*
X121227571Y-150161715D01*
X121275190Y-150066477D01*
X121275190Y-149685524D01*
X121751381Y-151114096D02*
X121227571Y-151114096D01*
X121132333Y-151066477D01*
X121084714Y-150971239D01*
X121084714Y-150780762D01*
X121132333Y-150685524D01*
X121703762Y-151114096D02*
X121751381Y-151018858D01*
X121751381Y-150780762D01*
X121703762Y-150685524D01*
X121608524Y-150637905D01*
X121513286Y-150637905D01*
X121418048Y-150685524D01*
X121370429Y-150780762D01*
X121370429Y-151018858D01*
X121322810Y-151114096D01*
X121751381Y-152114096D02*
X121751381Y-151542667D01*
X121751381Y-151828381D02*
X120751381Y-151828381D01*
X120894238Y-151733143D01*
X120989476Y-151637905D01*
X121037095Y-151542667D01*
M02*
