G04 #@! TF.FileFunction,Soldermask,Bot*
%FSLAX46Y46*%
G04 Gerber Fmt 4.6, Leading zero omitted, Abs format (unit mm)*
G04 Created by KiCad (PCBNEW 4.0.4+e1-6308~48~ubuntu14.04.1-stable) date Tue Oct 11 14:30:50 2016*
%MOMM*%
%LPD*%
G01*
G04 APERTURE LIST*
%ADD10C,0.100000*%
%ADD11C,0.150000*%
%ADD12O,2.000000X2.700000*%
%ADD13R,2.100000X2.400000*%
%ADD14R,2.127200X2.432000*%
%ADD15O,2.127200X2.432000*%
%ADD16C,2.099260*%
%ADD17R,2.099260X2.099260*%
%ADD18C,1.924000*%
%ADD19C,6.400000*%
%ADD20R,2.400000X2.000000*%
%ADD21R,2.000000X2.400000*%
%ADD22R,1.997660X2.200860*%
%ADD23R,2.200860X1.997660*%
%ADD24C,2.940000*%
%ADD25R,2.432000X2.127200*%
%ADD26O,2.432000X2.127200*%
%ADD27R,2.432000X2.432000*%
%ADD28O,2.432000X2.432000*%
%ADD29R,2.400000X2.100000*%
%ADD30O,2.700000X2.000000*%
G04 APERTURE END LIST*
D10*
D11*
X89666666Y-160000000D02*
G75*
G03X89666666Y-160000000I-1666666J0D01*
G01*
X85500000Y-160000000D02*
X90500000Y-160000000D01*
X88000000Y-157500000D02*
X88000000Y-162500000D01*
X88000000Y-160000000D02*
X88000000Y-60000000D01*
X188000000Y-160000000D02*
X88000000Y-160000000D01*
X188000000Y-60000000D02*
X188000000Y-160000000D01*
X88000000Y-60000000D02*
X188000000Y-60000000D01*
D12*
X152019000Y-150876000D03*
X154559000Y-150876000D03*
X157099000Y-150876000D03*
X159639000Y-150876000D03*
X162179000Y-150876000D03*
X164719000Y-150876000D03*
X167259000Y-150876000D03*
X167259000Y-143256000D03*
X164719000Y-143256000D03*
X162179000Y-143256000D03*
X159639000Y-143256000D03*
X157099000Y-143256000D03*
X154559000Y-143256000D03*
X152019000Y-143256000D03*
D13*
X176149000Y-152876000D03*
X176149000Y-148876000D03*
D14*
X173609000Y-143256000D03*
D15*
X176149000Y-143256000D03*
X178689000Y-143256000D03*
X181229000Y-143256000D03*
X183769000Y-143256000D03*
D14*
X183769000Y-157861000D03*
D15*
X181229000Y-157861000D03*
X178689000Y-157861000D03*
X176149000Y-157861000D03*
X173609000Y-157861000D03*
X171069000Y-157861000D03*
X168529000Y-157861000D03*
X165989000Y-157861000D03*
X163449000Y-157861000D03*
X160909000Y-157861000D03*
X158369000Y-157861000D03*
X155829000Y-157861000D03*
X153289000Y-157861000D03*
X150749000Y-157861000D03*
D16*
X171069520Y-154683460D03*
D17*
X160909520Y-154683460D03*
D18*
X121285000Y-135890000D03*
X123825000Y-135890000D03*
X133985000Y-135890000D03*
X133985000Y-128270000D03*
X121285000Y-128270000D03*
X123825000Y-128270000D03*
D19*
X94000000Y-134000000D03*
X182000000Y-134000000D03*
X182000000Y-66000000D03*
D18*
X121285000Y-123825000D03*
X123825000Y-123825000D03*
X133985000Y-123825000D03*
X133985000Y-116205000D03*
X121285000Y-116205000D03*
X123825000Y-116205000D03*
D20*
X156750000Y-80010000D03*
X160750000Y-80010000D03*
X156750000Y-99695000D03*
X160750000Y-99695000D03*
X156750000Y-104140000D03*
X160750000Y-104140000D03*
X156750000Y-123825000D03*
X160750000Y-123825000D03*
X156750000Y-128270000D03*
X160750000Y-128270000D03*
X154400000Y-87630000D03*
X150400000Y-87630000D03*
X155035000Y-92075000D03*
X151035000Y-92075000D03*
X154400000Y-111760000D03*
X150400000Y-111760000D03*
X155035000Y-116205000D03*
X151035000Y-116205000D03*
X154400000Y-135890000D03*
X150400000Y-135890000D03*
D21*
X148590000Y-84550000D03*
X148590000Y-80550000D03*
X149225000Y-99155000D03*
X149225000Y-95155000D03*
X148590000Y-108045000D03*
X148590000Y-104045000D03*
X149225000Y-123285000D03*
X149225000Y-119285000D03*
X148590000Y-132175000D03*
X148590000Y-128175000D03*
D20*
X142780000Y-87630000D03*
X146780000Y-87630000D03*
X143415000Y-92075000D03*
X147415000Y-92075000D03*
X142780000Y-111760000D03*
X146780000Y-111760000D03*
X143415000Y-116205000D03*
X147415000Y-116205000D03*
X142780000Y-135890000D03*
X146780000Y-135890000D03*
X137065000Y-81280000D03*
X141065000Y-81280000D03*
X137065000Y-99695000D03*
X141065000Y-99695000D03*
X137065000Y-105410000D03*
X141065000Y-105410000D03*
X137065000Y-123825000D03*
X141065000Y-123825000D03*
X137065000Y-129540000D03*
X141065000Y-129540000D03*
X111220000Y-64770000D03*
X107220000Y-64770000D03*
X117570000Y-74295000D03*
X113570000Y-74295000D03*
X123920000Y-65405000D03*
X119920000Y-65405000D03*
X128175000Y-73660000D03*
X132175000Y-73660000D03*
X135350000Y-65405000D03*
X131350000Y-65405000D03*
X139160000Y-73660000D03*
X135160000Y-73660000D03*
X145510000Y-67945000D03*
X141510000Y-67945000D03*
D22*
X129054860Y-87630000D03*
X126215140Y-87630000D03*
X129054860Y-99695000D03*
X126215140Y-99695000D03*
X129054860Y-111760000D03*
X126215140Y-111760000D03*
X129054860Y-123825000D03*
X126215140Y-123825000D03*
X129054860Y-135890000D03*
X126215140Y-135890000D03*
D23*
X103505000Y-76349860D03*
X103505000Y-73510140D03*
D18*
X176530000Y-80010000D03*
X173990000Y-80010000D03*
X163830000Y-80010000D03*
X163830000Y-87630000D03*
X176530000Y-87630000D03*
X173990000Y-87630000D03*
X176530000Y-92075000D03*
X173990000Y-92075000D03*
X163830000Y-92075000D03*
X163830000Y-99695000D03*
X176530000Y-99695000D03*
X173990000Y-99695000D03*
X176530000Y-104140000D03*
X173990000Y-104140000D03*
X163830000Y-104140000D03*
X163830000Y-111760000D03*
X176530000Y-111760000D03*
X173990000Y-111760000D03*
X176530000Y-116205000D03*
X173990000Y-116205000D03*
X163830000Y-116205000D03*
X163830000Y-123825000D03*
X176530000Y-123825000D03*
X173990000Y-123825000D03*
X176530000Y-128270000D03*
X173990000Y-128270000D03*
X163830000Y-128270000D03*
X163830000Y-135890000D03*
X176530000Y-135890000D03*
X173990000Y-135890000D03*
X121285000Y-87630000D03*
X123825000Y-87630000D03*
X133985000Y-87630000D03*
X133985000Y-80010000D03*
X121285000Y-80010000D03*
X123825000Y-80010000D03*
X121285000Y-99695000D03*
X123825000Y-99695000D03*
X133985000Y-99695000D03*
X133985000Y-92075000D03*
X121285000Y-92075000D03*
X123825000Y-92075000D03*
X121285000Y-111760000D03*
X123825000Y-111760000D03*
X133985000Y-111760000D03*
X133985000Y-104140000D03*
X121285000Y-104140000D03*
X123825000Y-104140000D03*
X102870000Y-67310000D03*
X102870000Y-69850000D03*
X102870000Y-80010000D03*
X110490000Y-80010000D03*
X110490000Y-67310000D03*
X110490000Y-69850000D03*
X164465000Y-73660000D03*
X167005000Y-73660000D03*
X177165000Y-73660000D03*
X177165000Y-66040000D03*
X164465000Y-66040000D03*
X167005000Y-66040000D03*
X148590000Y-73660000D03*
X151130000Y-73660000D03*
X161290000Y-73660000D03*
X161290000Y-66040000D03*
X148590000Y-66040000D03*
X151130000Y-66040000D03*
D24*
X153035000Y-81280000D03*
X158115000Y-86360000D03*
X153035000Y-98425000D03*
X158115000Y-93345000D03*
X153035000Y-105410000D03*
X158115000Y-110490000D03*
X153035000Y-122555000D03*
X158115000Y-117475000D03*
X153035000Y-129540000D03*
X158115000Y-134620000D03*
X144780000Y-81280000D03*
X139700000Y-86360000D03*
X144780000Y-97790000D03*
X139700000Y-92710000D03*
X144780000Y-105410000D03*
X139700000Y-110490000D03*
X144780000Y-122555000D03*
X139700000Y-117475000D03*
X144780000Y-129540000D03*
X139700000Y-134620000D03*
X115570000Y-67310000D03*
X120650000Y-72390000D03*
X130810000Y-67945000D03*
X125730000Y-73025000D03*
X137795000Y-67310000D03*
X142875000Y-72390000D03*
D25*
X92710000Y-86995000D03*
D26*
X92710000Y-89535000D03*
X92710000Y-92075000D03*
X92710000Y-94615000D03*
X92710000Y-97155000D03*
X92710000Y-99695000D03*
X92710000Y-102235000D03*
X92710000Y-104775000D03*
D27*
X92710000Y-111760000D03*
D28*
X92710000Y-114300000D03*
D29*
X126270000Y-83820000D03*
X130270000Y-83820000D03*
X126270000Y-95885000D03*
X130270000Y-95885000D03*
X126270000Y-107950000D03*
X130270000Y-107950000D03*
X126270000Y-120015000D03*
X130270000Y-120015000D03*
X126270000Y-132080000D03*
X130270000Y-132080000D03*
D13*
X106680000Y-72295000D03*
X106680000Y-76295000D03*
D30*
X97155000Y-86995000D03*
X97155000Y-89535000D03*
X97155000Y-92075000D03*
X97155000Y-94615000D03*
X97155000Y-97155000D03*
X97155000Y-99695000D03*
X97155000Y-102235000D03*
X97155000Y-104775000D03*
X104775000Y-104775000D03*
X104775000Y-102235000D03*
X104775000Y-99695000D03*
X104775000Y-97155000D03*
X104775000Y-94615000D03*
X104775000Y-92075000D03*
X104775000Y-89535000D03*
X104775000Y-86995000D03*
D20*
X171990000Y-85090000D03*
X175990000Y-85090000D03*
X175165000Y-109220000D03*
X179165000Y-109220000D03*
X175165000Y-121285000D03*
X179165000Y-121285000D03*
X171355000Y-133350000D03*
X175355000Y-133350000D03*
X171990000Y-82550000D03*
X175990000Y-82550000D03*
X175165000Y-94615000D03*
X179165000Y-94615000D03*
X175165000Y-106680000D03*
X179165000Y-106680000D03*
X175165000Y-118745000D03*
X179165000Y-118745000D03*
X171355000Y-130810000D03*
X175355000Y-130810000D03*
X122650000Y-85090000D03*
X118650000Y-85090000D03*
X122650000Y-97155000D03*
X118650000Y-97155000D03*
X122650000Y-109220000D03*
X118650000Y-109220000D03*
X122650000Y-121285000D03*
X118650000Y-121285000D03*
X122650000Y-133350000D03*
X118650000Y-133350000D03*
X122650000Y-82550000D03*
X118650000Y-82550000D03*
X122650000Y-94615000D03*
X118650000Y-94615000D03*
X122650000Y-106680000D03*
X118650000Y-106680000D03*
X122650000Y-118745000D03*
X118650000Y-118745000D03*
X122650000Y-130810000D03*
X118650000Y-130810000D03*
D21*
X99695000Y-72295000D03*
X99695000Y-76295000D03*
X109855000Y-72295000D03*
X109855000Y-76295000D03*
D20*
X151035000Y-71120000D03*
X155035000Y-71120000D03*
X151035000Y-68580000D03*
X155035000Y-68580000D03*
X175165000Y-97155000D03*
X179165000Y-97155000D03*
D27*
X183515000Y-89535000D03*
D28*
X183515000Y-92075000D03*
D27*
X164465000Y-62230000D03*
D28*
X167005000Y-62230000D03*
D27*
X183515000Y-73660000D03*
D28*
X183515000Y-76200000D03*
D19*
X94000000Y-66000000D03*
D16*
X113919520Y-154683460D03*
D17*
X103759520Y-154683460D03*
D14*
X126619000Y-157861000D03*
D15*
X124079000Y-157861000D03*
X121539000Y-157861000D03*
X118999000Y-157861000D03*
X116459000Y-157861000D03*
X113919000Y-157861000D03*
X111379000Y-157861000D03*
X108839000Y-157861000D03*
X106299000Y-157861000D03*
X103759000Y-157861000D03*
X101219000Y-157861000D03*
X98679000Y-157861000D03*
X96139000Y-157861000D03*
X93599000Y-157861000D03*
D14*
X116459000Y-143256000D03*
D15*
X118999000Y-143256000D03*
X121539000Y-143256000D03*
X124079000Y-143256000D03*
X126619000Y-143256000D03*
D13*
X118999000Y-152876000D03*
X118999000Y-148876000D03*
D12*
X94869000Y-150876000D03*
X97409000Y-150876000D03*
X99949000Y-150876000D03*
X102489000Y-150876000D03*
X105029000Y-150876000D03*
X107569000Y-150876000D03*
X110109000Y-150876000D03*
X110109000Y-143256000D03*
X107569000Y-143256000D03*
X105029000Y-143256000D03*
X102489000Y-143256000D03*
X99949000Y-143256000D03*
X97409000Y-143256000D03*
X94869000Y-143256000D03*
M02*
