%FSLAX45Y45*%
G04 Gerber Fmt 4.5, Leading zero omitted, Abs format (unit mm)*
G04 Created by KiCad (PCBNEW 4.0.4+e1-6308~48~ubuntu14.04.1-stable) date Tue Oct 11 14:31:38 2016*
%MOMM*%
%LPD*%
G01*
G04 APERTURE LIST*
%ADD10C,0.127000*%
%ADD11C,0.150000*%
%ADD12C,0.200000*%
%ADD13C,0.300000*%
G04 APERTURE END LIST*
D10*
D11*
X8800000Y-16000000D02*
X8800000Y-6000000D01*
X18800000Y-16000000D02*
X8800000Y-16000000D01*
X18800000Y-6000000D02*
X18800000Y-16000000D01*
X8800000Y-6000000D02*
X18800000Y-6000000D01*
D12*
X9378000Y-7219000D02*
X9418000Y-7259000D01*
X9418000Y-7219000D02*
X9378000Y-7259000D01*
X9378000Y-7600000D02*
X9418000Y-7640000D01*
X9418000Y-7600000D02*
X9378000Y-7640000D01*
X9378000Y-7981000D02*
X9418000Y-8021000D01*
X9418000Y-7981000D02*
X9378000Y-8021000D01*
X9378000Y-8362000D02*
X9418000Y-8402000D01*
X9418000Y-8362000D02*
X9378000Y-8402000D01*
X9949500Y-7790500D02*
X9989500Y-7830500D01*
X9989500Y-7790500D02*
X9949500Y-7830500D01*
X9949500Y-8806500D02*
X9989500Y-8846500D01*
X9989500Y-8806500D02*
X9949500Y-8846500D01*
X9949500Y-9060500D02*
X9989500Y-9100500D01*
X9989500Y-9060500D02*
X9949500Y-9100500D01*
X9949500Y-9568500D02*
X9989500Y-9608500D01*
X9989500Y-9568500D02*
X9949500Y-9608500D01*
X9949500Y-10076500D02*
X9989500Y-10116500D01*
X9989500Y-10076500D02*
X9949500Y-10116500D01*
X10203500Y-10838500D02*
X10243500Y-10878500D01*
X10243500Y-10838500D02*
X10203500Y-10878500D01*
X10267000Y-8171500D02*
X10307000Y-8211500D01*
X10307000Y-8171500D02*
X10267000Y-8211500D01*
X10457500Y-12553000D02*
X10497500Y-12593000D01*
X10497500Y-12553000D02*
X10457500Y-12593000D01*
X10648000Y-8171500D02*
X10688000Y-8211500D01*
X10688000Y-8171500D02*
X10648000Y-8211500D01*
X10711500Y-10838500D02*
X10751500Y-10878500D01*
X10751500Y-10838500D02*
X10711500Y-10878500D01*
X10965500Y-10013000D02*
X11005500Y-10053000D01*
X11005500Y-10013000D02*
X10965500Y-10053000D01*
X11029000Y-8171500D02*
X11069000Y-8211500D01*
X11069000Y-8171500D02*
X11029000Y-8211500D01*
X11029000Y-8933500D02*
X11069000Y-8973500D01*
X11069000Y-8933500D02*
X11029000Y-8973500D01*
X11130600Y-9759000D02*
X11170600Y-9799000D01*
X11170600Y-9759000D02*
X11130600Y-9799000D01*
X11156000Y-7600000D02*
X11196000Y-7640000D01*
X11196000Y-7600000D02*
X11156000Y-7640000D01*
X11219500Y-7854000D02*
X11259500Y-7894000D01*
X11259500Y-7854000D02*
X11219500Y-7894000D01*
X11283000Y-9505000D02*
X11323000Y-9545000D01*
X11323000Y-9505000D02*
X11283000Y-9545000D01*
X11346500Y-7600000D02*
X11386500Y-7640000D01*
X11386500Y-7600000D02*
X11346500Y-7640000D01*
X11410000Y-9251000D02*
X11450000Y-9291000D01*
X11450000Y-9251000D02*
X11410000Y-9291000D01*
X11537000Y-8171500D02*
X11577000Y-8211500D01*
X11577000Y-8171500D02*
X11537000Y-8211500D01*
X11537000Y-14839000D02*
X11577000Y-14879000D01*
X11577000Y-14839000D02*
X11537000Y-14879000D01*
X11613200Y-15461300D02*
X11653200Y-15501300D01*
X11653200Y-15461300D02*
X11613200Y-15501300D01*
X11664000Y-8235000D02*
X11704000Y-8275000D01*
X11704000Y-8235000D02*
X11664000Y-8275000D01*
X11664000Y-8489000D02*
X11704000Y-8529000D01*
X11704000Y-8489000D02*
X11664000Y-8529000D01*
X11664000Y-8743000D02*
X11704000Y-8783000D01*
X11704000Y-8743000D02*
X11664000Y-8783000D01*
X11664000Y-9124000D02*
X11704000Y-9164000D01*
X11704000Y-9124000D02*
X11664000Y-9164000D01*
X11664000Y-9441500D02*
X11704000Y-9481500D01*
X11704000Y-9441500D02*
X11664000Y-9481500D01*
X11664000Y-9695500D02*
X11704000Y-9735500D01*
X11704000Y-9695500D02*
X11664000Y-9735500D01*
X11664000Y-9949500D02*
X11704000Y-9989500D01*
X11704000Y-9949500D02*
X11664000Y-9989500D01*
X11664000Y-10330500D02*
X11704000Y-10370500D01*
X11704000Y-10330500D02*
X11664000Y-10370500D01*
X11664000Y-10648000D02*
X11704000Y-10688000D01*
X11704000Y-10648000D02*
X11664000Y-10688000D01*
X11664000Y-10902000D02*
X11704000Y-10942000D01*
X11704000Y-10902000D02*
X11664000Y-10942000D01*
X11664000Y-11219500D02*
X11704000Y-11259500D01*
X11704000Y-11219500D02*
X11664000Y-11259500D01*
X11664000Y-11600500D02*
X11704000Y-11640500D01*
X11704000Y-11600500D02*
X11664000Y-11640500D01*
X11664000Y-11854500D02*
X11704000Y-11894500D01*
X11704000Y-11854500D02*
X11664000Y-11894500D01*
X11664000Y-12108500D02*
X11704000Y-12148500D01*
X11704000Y-12108500D02*
X11664000Y-12148500D01*
X11664000Y-12362500D02*
X11704000Y-12402500D01*
X11704000Y-12362500D02*
X11664000Y-12402500D01*
X11664000Y-12870500D02*
X11704000Y-12910500D01*
X11704000Y-12870500D02*
X11664000Y-12910500D01*
X11664000Y-13061000D02*
X11704000Y-13101000D01*
X11704000Y-13061000D02*
X11664000Y-13101000D01*
X11664000Y-13315000D02*
X11704000Y-13355000D01*
X11704000Y-13315000D02*
X11664000Y-13355000D01*
X11829100Y-12705400D02*
X11869100Y-12745400D01*
X11869100Y-12705400D02*
X11829100Y-12745400D01*
X11854500Y-13569000D02*
X11894500Y-13609000D01*
X11894500Y-13569000D02*
X11854500Y-13609000D01*
X11981500Y-7600000D02*
X12021500Y-7640000D01*
X12021500Y-7600000D02*
X11981500Y-7640000D01*
X12616500Y-6520500D02*
X12656500Y-6560500D01*
X12656500Y-6520500D02*
X12616500Y-6560500D01*
X12641900Y-15067600D02*
X12681900Y-15107600D01*
X12681900Y-15067600D02*
X12641900Y-15107600D01*
X12870500Y-6520500D02*
X12910500Y-6560500D01*
X12910500Y-6520500D02*
X12870500Y-6560500D01*
X12870500Y-6965000D02*
X12910500Y-7005000D01*
X12910500Y-6965000D02*
X12870500Y-7005000D01*
X12997500Y-12807000D02*
X13037500Y-12847000D01*
X13037500Y-12807000D02*
X12997500Y-12847000D01*
X13124500Y-7155500D02*
X13164500Y-7195500D01*
X13164500Y-7155500D02*
X13124500Y-7195500D01*
X13124500Y-13569000D02*
X13164500Y-13609000D01*
X13164500Y-13569000D02*
X13124500Y-13609000D01*
X13188000Y-12934000D02*
X13228000Y-12974000D01*
X13228000Y-12934000D02*
X13188000Y-12974000D01*
X13251500Y-13188000D02*
X13291500Y-13228000D01*
X13291500Y-13188000D02*
X13251500Y-13228000D01*
X13251500Y-13378500D02*
X13291500Y-13418500D01*
X13291500Y-13378500D02*
X13251500Y-13418500D01*
X13569000Y-7155500D02*
X13609000Y-7195500D01*
X13609000Y-7155500D02*
X13569000Y-7195500D01*
X13759500Y-6965000D02*
X13799500Y-7005000D01*
X13799500Y-6965000D02*
X13759500Y-7005000D01*
X14077000Y-10775000D02*
X14117000Y-10815000D01*
X14117000Y-10775000D02*
X14077000Y-10815000D01*
X14267500Y-8298500D02*
X14307500Y-8338500D01*
X14307500Y-8298500D02*
X14267500Y-8338500D01*
X14267500Y-10775000D02*
X14307500Y-10815000D01*
X14307500Y-10775000D02*
X14267500Y-10815000D01*
X14331000Y-6965000D02*
X14371000Y-7005000D01*
X14371000Y-6965000D02*
X14331000Y-7005000D01*
X14394500Y-8425500D02*
X14434500Y-8465500D01*
X14434500Y-8425500D02*
X14394500Y-8465500D01*
X14458000Y-10965500D02*
X14498000Y-11005500D01*
X14498000Y-10965500D02*
X14458000Y-11005500D01*
X14521500Y-8552500D02*
X14561500Y-8592500D01*
X14561500Y-8552500D02*
X14521500Y-8592500D01*
X14585000Y-13442000D02*
X14625000Y-13482000D01*
X14625000Y-13442000D02*
X14585000Y-13482000D01*
X14648500Y-9378000D02*
X14688500Y-9418000D01*
X14688500Y-9378000D02*
X14648500Y-9418000D01*
X14648500Y-11727500D02*
X14688500Y-11767500D01*
X14688500Y-11727500D02*
X14648500Y-11767500D01*
X15093000Y-8552500D02*
X15133000Y-8592500D01*
X15133000Y-8552500D02*
X15093000Y-8592500D01*
X15093000Y-10965500D02*
X15133000Y-11005500D01*
X15133000Y-10965500D02*
X15093000Y-11005500D01*
X15093000Y-13442000D02*
X15133000Y-13482000D01*
X15133000Y-13442000D02*
X15093000Y-13482000D01*
X15156500Y-11727500D02*
X15196500Y-11767500D01*
X15196500Y-11727500D02*
X15156500Y-11767500D01*
X15220000Y-9314500D02*
X15260000Y-9354500D01*
X15260000Y-9314500D02*
X15220000Y-9354500D01*
X15283500Y-6711000D02*
X15323500Y-6751000D01*
X15323500Y-6711000D02*
X15283500Y-6751000D01*
X15474000Y-7346000D02*
X15514000Y-7386000D01*
X15514000Y-7346000D02*
X15474000Y-7386000D01*
X15664500Y-8362000D02*
X15704500Y-8402000D01*
X15704500Y-8362000D02*
X15664500Y-8402000D01*
X15664500Y-9568500D02*
X15704500Y-9608500D01*
X15704500Y-9568500D02*
X15664500Y-9608500D01*
X15664500Y-10775000D02*
X15704500Y-10815000D01*
X15704500Y-10775000D02*
X15664500Y-10815000D01*
X15664500Y-11981500D02*
X15704500Y-12021500D01*
X15704500Y-11981500D02*
X15664500Y-12021500D01*
X15664500Y-13188000D02*
X15704500Y-13228000D01*
X15704500Y-13188000D02*
X15664500Y-13228000D01*
X15728000Y-6203000D02*
X15768000Y-6243000D01*
X15768000Y-6203000D02*
X15728000Y-6243000D01*
X15728000Y-6838000D02*
X15768000Y-6878000D01*
X15768000Y-6838000D02*
X15728000Y-6878000D01*
X15728000Y-7092000D02*
X15768000Y-7132000D01*
X15768000Y-7092000D02*
X15728000Y-7132000D01*
X15918500Y-7092000D02*
X15958500Y-7132000D01*
X15958500Y-7092000D02*
X15918500Y-7132000D01*
X16045500Y-8362000D02*
X16085500Y-8402000D01*
X16085500Y-8362000D02*
X16045500Y-8402000D01*
X16045500Y-9568500D02*
X16085500Y-9608500D01*
X16085500Y-9568500D02*
X16045500Y-9608500D01*
X16045500Y-10775000D02*
X16085500Y-10815000D01*
X16085500Y-10775000D02*
X16045500Y-10815000D01*
X16045500Y-11981500D02*
X16085500Y-12021500D01*
X16085500Y-11981500D02*
X16045500Y-12021500D01*
X16045500Y-13188000D02*
X16085500Y-13228000D01*
X16085500Y-13188000D02*
X16045500Y-13228000D01*
X16109000Y-6203000D02*
X16149000Y-6243000D01*
X16149000Y-6203000D02*
X16109000Y-6243000D01*
X16109000Y-7028500D02*
X16149000Y-7068500D01*
X16149000Y-7028500D02*
X16109000Y-7068500D01*
X16299500Y-7092000D02*
X16339500Y-7132000D01*
X16339500Y-7092000D02*
X16299500Y-7132000D01*
X16299500Y-7600000D02*
X16339500Y-7640000D01*
X16339500Y-7600000D02*
X16299500Y-7640000D01*
X16426500Y-8362000D02*
X16466500Y-8402000D01*
X16466500Y-8362000D02*
X16426500Y-8402000D01*
X16426500Y-9568500D02*
X16466500Y-9608500D01*
X16466500Y-9568500D02*
X16426500Y-9608500D01*
X16426500Y-10775000D02*
X16466500Y-10815000D01*
X16466500Y-10775000D02*
X16426500Y-10815000D01*
X16426500Y-11981500D02*
X16466500Y-12021500D01*
X16466500Y-11981500D02*
X16426500Y-12021500D01*
X16426500Y-13188000D02*
X16466500Y-13228000D01*
X16466500Y-13188000D02*
X16426500Y-13228000D01*
X16553500Y-7092000D02*
X16593500Y-7132000D01*
X16593500Y-7092000D02*
X16553500Y-7132000D01*
X16617000Y-7981000D02*
X16657000Y-8021000D01*
X16657000Y-7981000D02*
X16617000Y-8021000D01*
X16617000Y-10038400D02*
X16657000Y-10078400D01*
X16657000Y-10038400D02*
X16617000Y-10078400D01*
X16617000Y-10394000D02*
X16657000Y-10434000D01*
X16657000Y-10394000D02*
X16617000Y-10434000D01*
X16617000Y-11206800D02*
X16657000Y-11246800D01*
X16657000Y-11206800D02*
X16617000Y-11246800D01*
X16617000Y-11613200D02*
X16657000Y-11653200D01*
X16657000Y-11613200D02*
X16617000Y-11653200D01*
X16617000Y-12426000D02*
X16657000Y-12466000D01*
X16657000Y-12426000D02*
X16617000Y-12466000D01*
X16617000Y-12807000D02*
X16657000Y-12847000D01*
X16657000Y-12807000D02*
X16617000Y-12847000D01*
X16680500Y-7663500D02*
X16720500Y-7703500D01*
X16720500Y-7663500D02*
X16680500Y-7703500D01*
X16807500Y-13823000D02*
X16847500Y-13863000D01*
X16847500Y-13823000D02*
X16807500Y-13863000D01*
X16871000Y-7473000D02*
X16911000Y-7513000D01*
X16911000Y-7473000D02*
X16871000Y-7513000D01*
X16871000Y-7663500D02*
X16911000Y-7703500D01*
X16911000Y-7663500D02*
X16871000Y-7703500D01*
X16998000Y-6203000D02*
X17038000Y-6243000D01*
X17038000Y-6203000D02*
X16998000Y-6243000D01*
X16998000Y-6901500D02*
X17038000Y-6941500D01*
X17038000Y-6901500D02*
X16998000Y-6941500D01*
X16998000Y-7282500D02*
X17038000Y-7322500D01*
X17038000Y-7282500D02*
X16998000Y-7322500D01*
X17125000Y-8997000D02*
X17165000Y-9037000D01*
X17165000Y-8997000D02*
X17125000Y-9037000D01*
X17125000Y-9378000D02*
X17165000Y-9418000D01*
X17165000Y-9378000D02*
X17125000Y-9418000D01*
X17125000Y-9759000D02*
X17165000Y-9799000D01*
X17165000Y-9759000D02*
X17125000Y-9799000D01*
X17125000Y-10140000D02*
X17165000Y-10180000D01*
X17165000Y-10140000D02*
X17125000Y-10180000D01*
X17125000Y-10584500D02*
X17165000Y-10624500D01*
X17165000Y-10584500D02*
X17125000Y-10624500D01*
X17125000Y-10775000D02*
X17165000Y-10815000D01*
X17165000Y-10775000D02*
X17125000Y-10815000D01*
X17125000Y-11029000D02*
X17165000Y-11069000D01*
X17165000Y-11029000D02*
X17125000Y-11069000D01*
X17125000Y-11727500D02*
X17165000Y-11767500D01*
X17165000Y-11727500D02*
X17125000Y-11767500D01*
X17125000Y-11981500D02*
X17165000Y-12021500D01*
X17165000Y-11981500D02*
X17125000Y-12021500D01*
X17125000Y-12172000D02*
X17165000Y-12212000D01*
X17165000Y-12172000D02*
X17125000Y-12212000D01*
X17188500Y-7282500D02*
X17228500Y-7322500D01*
X17228500Y-7282500D02*
X17188500Y-7322500D01*
X17188500Y-7663500D02*
X17228500Y-7703500D01*
X17228500Y-7663500D02*
X17188500Y-7703500D01*
X17252000Y-13823000D02*
X17292000Y-13863000D01*
X17292000Y-13823000D02*
X17252000Y-13863000D01*
X17252000Y-14839000D02*
X17292000Y-14879000D01*
X17292000Y-14839000D02*
X17252000Y-14879000D01*
X17328200Y-15461300D02*
X17368200Y-15501300D01*
X17368200Y-15461300D02*
X17328200Y-15501300D01*
X17760000Y-13823000D02*
X17800000Y-13863000D01*
X17800000Y-13823000D02*
X17760000Y-13863000D01*
X17823500Y-8235000D02*
X17863500Y-8275000D01*
X17863500Y-8235000D02*
X17823500Y-8275000D01*
X17823500Y-8489000D02*
X17863500Y-8529000D01*
X17863500Y-8489000D02*
X17823500Y-8529000D01*
X18014000Y-12616500D02*
X18054000Y-12656500D01*
X18054000Y-12616500D02*
X18014000Y-12656500D01*
X18014000Y-12807000D02*
X18054000Y-12847000D01*
X18054000Y-12807000D02*
X18014000Y-12847000D01*
X18014000Y-12997500D02*
X18054000Y-13037500D01*
X18054000Y-12997500D02*
X18014000Y-13037500D01*
X18077500Y-9441500D02*
X18117500Y-9481500D01*
X18117500Y-9441500D02*
X18077500Y-9481500D01*
X18077500Y-9695500D02*
X18117500Y-9735500D01*
X18117500Y-9695500D02*
X18077500Y-9735500D01*
X18077500Y-10648000D02*
X18117500Y-10688000D01*
X18117500Y-10648000D02*
X18077500Y-10688000D01*
X18077500Y-10902000D02*
X18117500Y-10942000D01*
X18117500Y-10902000D02*
X18077500Y-10942000D01*
X18077500Y-11854500D02*
X18117500Y-11894500D01*
X18117500Y-11854500D02*
X18077500Y-11894500D01*
X18077500Y-12108500D02*
X18117500Y-12148500D01*
X18117500Y-12108500D02*
X18077500Y-12148500D01*
X18331500Y-7854000D02*
X18371500Y-7894000D01*
X18371500Y-7854000D02*
X18331500Y-7894000D01*
X18331500Y-9441500D02*
X18371500Y-9481500D01*
X18371500Y-9441500D02*
X18331500Y-9481500D01*
X18356900Y-15067600D02*
X18396900Y-15107600D01*
X18396900Y-15067600D02*
X18356900Y-15107600D01*
X16668750Y-8839200D02*
G75*
G03X16668750Y-8839200I-31750J0D01*
G01*
X16668750Y-9220200D02*
G75*
G03X16668750Y-9220200I-31750J0D01*
G01*
X10375952Y-15433294D02*
X10375952Y-15503398D01*
X10340900Y-15468346D02*
X10411004Y-15468346D01*
X11391952Y-15433294D02*
X11391952Y-15503398D01*
X11356900Y-15468346D02*
X11427004Y-15468346D01*
X16090952Y-15433294D02*
X16090952Y-15503398D01*
X16055900Y-15468346D02*
X16126004Y-15468346D01*
X17106952Y-15433294D02*
X17106952Y-15503398D01*
X17071900Y-15468346D02*
X17142004Y-15468346D01*
X10313941Y-6757941D02*
X10313941Y-6704059D01*
X10260059Y-6704059D01*
X10260059Y-6757941D01*
X10313941Y-6757941D01*
X10313941Y-7011941D02*
X10313941Y-6958059D01*
X10260059Y-6958059D01*
X10260059Y-7011941D01*
X10313941Y-7011941D01*
X10313941Y-8027941D02*
X10313941Y-7974059D01*
X10260059Y-7974059D01*
X10260059Y-8027941D01*
X10313941Y-8027941D01*
X11075941Y-6757941D02*
X11075941Y-6704059D01*
X11022059Y-6704059D01*
X11022059Y-6757941D01*
X11075941Y-6757941D01*
X11075941Y-7011941D02*
X11075941Y-6958059D01*
X11022059Y-6958059D01*
X11022059Y-7011941D01*
X11075941Y-7011941D01*
X11075941Y-8027941D02*
X11075941Y-7974059D01*
X11022059Y-7974059D01*
X11022059Y-8027941D01*
X11075941Y-8027941D01*
X12155441Y-8027941D02*
X12155441Y-7974059D01*
X12101559Y-7974059D01*
X12101559Y-8027941D01*
X12155441Y-8027941D01*
X12155441Y-8789941D02*
X12155441Y-8736059D01*
X12101559Y-8736059D01*
X12101559Y-8789941D01*
X12155441Y-8789941D01*
X12155441Y-9234441D02*
X12155441Y-9180559D01*
X12101559Y-9180559D01*
X12101559Y-9234441D01*
X12155441Y-9234441D01*
X12155441Y-9996441D02*
X12155441Y-9942559D01*
X12101559Y-9942559D01*
X12101559Y-9996441D01*
X12155441Y-9996441D01*
X12155441Y-10440941D02*
X12155441Y-10387059D01*
X12101559Y-10387059D01*
X12101559Y-10440941D01*
X12155441Y-10440941D01*
X12155441Y-11202941D02*
X12155441Y-11149059D01*
X12101559Y-11149059D01*
X12101559Y-11202941D01*
X12155441Y-11202941D01*
X12155441Y-11647441D02*
X12155441Y-11593559D01*
X12101559Y-11593559D01*
X12101559Y-11647441D01*
X12155441Y-11647441D01*
X12155441Y-12409441D02*
X12155441Y-12355559D01*
X12101559Y-12355559D01*
X12101559Y-12409441D01*
X12155441Y-12409441D01*
X12155441Y-12853941D02*
X12155441Y-12800059D01*
X12101559Y-12800059D01*
X12101559Y-12853941D01*
X12155441Y-12853941D01*
X12155441Y-13615941D02*
X12155441Y-13562059D01*
X12101559Y-13562059D01*
X12101559Y-13615941D01*
X12155441Y-13615941D01*
X12409441Y-8027941D02*
X12409441Y-7974059D01*
X12355559Y-7974059D01*
X12355559Y-8027941D01*
X12409441Y-8027941D01*
X12409441Y-8789941D02*
X12409441Y-8736059D01*
X12355559Y-8736059D01*
X12355559Y-8789941D01*
X12409441Y-8789941D01*
X12409441Y-9234441D02*
X12409441Y-9180559D01*
X12355559Y-9180559D01*
X12355559Y-9234441D01*
X12409441Y-9234441D01*
X12409441Y-9996441D02*
X12409441Y-9942559D01*
X12355559Y-9942559D01*
X12355559Y-9996441D01*
X12409441Y-9996441D01*
X12409441Y-10440941D02*
X12409441Y-10387059D01*
X12355559Y-10387059D01*
X12355559Y-10440941D01*
X12409441Y-10440941D01*
X12409441Y-11202941D02*
X12409441Y-11149059D01*
X12355559Y-11149059D01*
X12355559Y-11202941D01*
X12409441Y-11202941D01*
X12409441Y-11647441D02*
X12409441Y-11593559D01*
X12355559Y-11593559D01*
X12355559Y-11647441D01*
X12409441Y-11647441D01*
X12409441Y-12409441D02*
X12409441Y-12355559D01*
X12355559Y-12355559D01*
X12355559Y-12409441D01*
X12409441Y-12409441D01*
X12409441Y-12853941D02*
X12409441Y-12800059D01*
X12355559Y-12800059D01*
X12355559Y-12853941D01*
X12409441Y-12853941D01*
X12409441Y-13615941D02*
X12409441Y-13562059D01*
X12355559Y-13562059D01*
X12355559Y-13615941D01*
X12409441Y-13615941D01*
X13425441Y-8027941D02*
X13425441Y-7974059D01*
X13371559Y-7974059D01*
X13371559Y-8027941D01*
X13425441Y-8027941D01*
X13425441Y-8789941D02*
X13425441Y-8736059D01*
X13371559Y-8736059D01*
X13371559Y-8789941D01*
X13425441Y-8789941D01*
X13425441Y-9234441D02*
X13425441Y-9180559D01*
X13371559Y-9180559D01*
X13371559Y-9234441D01*
X13425441Y-9234441D01*
X13425441Y-9996441D02*
X13425441Y-9942559D01*
X13371559Y-9942559D01*
X13371559Y-9996441D01*
X13425441Y-9996441D01*
X13425441Y-10440941D02*
X13425441Y-10387059D01*
X13371559Y-10387059D01*
X13371559Y-10440941D01*
X13425441Y-10440941D01*
X13425441Y-11202941D02*
X13425441Y-11149059D01*
X13371559Y-11149059D01*
X13371559Y-11202941D01*
X13425441Y-11202941D01*
X13425441Y-11647441D02*
X13425441Y-11593559D01*
X13371559Y-11593559D01*
X13371559Y-11647441D01*
X13425441Y-11647441D01*
X13425441Y-12409441D02*
X13425441Y-12355559D01*
X13371559Y-12355559D01*
X13371559Y-12409441D01*
X13425441Y-12409441D01*
X13425441Y-12853941D02*
X13425441Y-12800059D01*
X13371559Y-12800059D01*
X13371559Y-12853941D01*
X13425441Y-12853941D01*
X13425441Y-13615941D02*
X13425441Y-13562059D01*
X13371559Y-13562059D01*
X13371559Y-13615941D01*
X13425441Y-13615941D01*
X14885941Y-6630941D02*
X14885941Y-6577059D01*
X14832059Y-6577059D01*
X14832059Y-6630941D01*
X14885941Y-6630941D01*
X14885941Y-7392941D02*
X14885941Y-7339059D01*
X14832059Y-7339059D01*
X14832059Y-7392941D01*
X14885941Y-7392941D01*
X15139941Y-6630941D02*
X15139941Y-6577059D01*
X15086059Y-6577059D01*
X15086059Y-6630941D01*
X15139941Y-6630941D01*
X15139941Y-7392941D02*
X15139941Y-7339059D01*
X15086059Y-7339059D01*
X15086059Y-7392941D01*
X15139941Y-7392941D01*
X16155941Y-6630941D02*
X16155941Y-6577059D01*
X16102059Y-6577059D01*
X16102059Y-6630941D01*
X16155941Y-6630941D01*
X16155941Y-7392941D02*
X16155941Y-7339059D01*
X16102059Y-7339059D01*
X16102059Y-7392941D01*
X16155941Y-7392941D01*
X16409941Y-8027941D02*
X16409941Y-7974059D01*
X16356059Y-7974059D01*
X16356059Y-8027941D01*
X16409941Y-8027941D01*
X16409941Y-8789941D02*
X16409941Y-8736059D01*
X16356059Y-8736059D01*
X16356059Y-8789941D01*
X16409941Y-8789941D01*
X16409941Y-9234441D02*
X16409941Y-9180559D01*
X16356059Y-9180559D01*
X16356059Y-9234441D01*
X16409941Y-9234441D01*
X16409941Y-9996441D02*
X16409941Y-9942559D01*
X16356059Y-9942559D01*
X16356059Y-9996441D01*
X16409941Y-9996441D01*
X16409941Y-10440941D02*
X16409941Y-10387059D01*
X16356059Y-10387059D01*
X16356059Y-10440941D01*
X16409941Y-10440941D01*
X16409941Y-11202941D02*
X16409941Y-11149059D01*
X16356059Y-11149059D01*
X16356059Y-11202941D01*
X16409941Y-11202941D01*
X16409941Y-11647441D02*
X16409941Y-11593559D01*
X16356059Y-11593559D01*
X16356059Y-11647441D01*
X16409941Y-11647441D01*
X16409941Y-12409441D02*
X16409941Y-12355559D01*
X16356059Y-12355559D01*
X16356059Y-12409441D01*
X16409941Y-12409441D01*
X16409941Y-12853941D02*
X16409941Y-12800059D01*
X16356059Y-12800059D01*
X16356059Y-12853941D01*
X16409941Y-12853941D01*
X16409941Y-13615941D02*
X16409941Y-13562059D01*
X16356059Y-13562059D01*
X16356059Y-13615941D01*
X16409941Y-13615941D01*
X16473441Y-6630941D02*
X16473441Y-6577059D01*
X16419559Y-6577059D01*
X16419559Y-6630941D01*
X16473441Y-6630941D01*
X16473441Y-7392941D02*
X16473441Y-7339059D01*
X16419559Y-7339059D01*
X16419559Y-7392941D01*
X16473441Y-7392941D01*
X16727441Y-6630941D02*
X16727441Y-6577059D01*
X16673559Y-6577059D01*
X16673559Y-6630941D01*
X16727441Y-6630941D01*
X16727441Y-7392941D02*
X16727441Y-7339059D01*
X16673559Y-7339059D01*
X16673559Y-7392941D01*
X16727441Y-7392941D01*
X17425941Y-8027941D02*
X17425941Y-7974059D01*
X17372059Y-7974059D01*
X17372059Y-8027941D01*
X17425941Y-8027941D01*
X17425941Y-8789941D02*
X17425941Y-8736059D01*
X17372059Y-8736059D01*
X17372059Y-8789941D01*
X17425941Y-8789941D01*
X17425941Y-9234441D02*
X17425941Y-9180559D01*
X17372059Y-9180559D01*
X17372059Y-9234441D01*
X17425941Y-9234441D01*
X17425941Y-9996441D02*
X17425941Y-9942559D01*
X17372059Y-9942559D01*
X17372059Y-9996441D01*
X17425941Y-9996441D01*
X17425941Y-10440941D02*
X17425941Y-10387059D01*
X17372059Y-10387059D01*
X17372059Y-10440941D01*
X17425941Y-10440941D01*
X17425941Y-11202941D02*
X17425941Y-11149059D01*
X17372059Y-11149059D01*
X17372059Y-11202941D01*
X17425941Y-11202941D01*
X17425941Y-11647441D02*
X17425941Y-11593559D01*
X17372059Y-11593559D01*
X17372059Y-11647441D01*
X17425941Y-11647441D01*
X17425941Y-12409441D02*
X17425941Y-12355559D01*
X17372059Y-12355559D01*
X17372059Y-12409441D01*
X17425941Y-12409441D01*
X17425941Y-12853941D02*
X17425941Y-12800059D01*
X17372059Y-12800059D01*
X17372059Y-12853941D01*
X17425941Y-12853941D01*
X17425941Y-13615941D02*
X17425941Y-13562059D01*
X17372059Y-13562059D01*
X17372059Y-13615941D01*
X17425941Y-13615941D01*
X17679941Y-8027941D02*
X17679941Y-7974059D01*
X17626059Y-7974059D01*
X17626059Y-8027941D01*
X17679941Y-8027941D01*
X17679941Y-8789941D02*
X17679941Y-8736059D01*
X17626059Y-8736059D01*
X17626059Y-8789941D01*
X17679941Y-8789941D01*
X17679941Y-9234441D02*
X17679941Y-9180559D01*
X17626059Y-9180559D01*
X17626059Y-9234441D01*
X17679941Y-9234441D01*
X17679941Y-9996441D02*
X17679941Y-9942559D01*
X17626059Y-9942559D01*
X17626059Y-9996441D01*
X17679941Y-9996441D01*
X17679941Y-10440941D02*
X17679941Y-10387059D01*
X17626059Y-10387059D01*
X17626059Y-10440941D01*
X17679941Y-10440941D01*
X17679941Y-11202941D02*
X17679941Y-11149059D01*
X17626059Y-11149059D01*
X17626059Y-11202941D01*
X17679941Y-11202941D01*
X17679941Y-11647441D02*
X17679941Y-11593559D01*
X17626059Y-11593559D01*
X17626059Y-11647441D01*
X17679941Y-11647441D01*
X17679941Y-12409441D02*
X17679941Y-12355559D01*
X17626059Y-12355559D01*
X17626059Y-12409441D01*
X17679941Y-12409441D01*
X17679941Y-12853941D02*
X17679941Y-12800059D01*
X17626059Y-12800059D01*
X17626059Y-12853941D01*
X17679941Y-12853941D01*
X17679941Y-13615941D02*
X17679941Y-13562059D01*
X17626059Y-13562059D01*
X17626059Y-13615941D01*
X17679941Y-13615941D01*
X17743441Y-6630941D02*
X17743441Y-6577059D01*
X17689559Y-6577059D01*
X17689559Y-6630941D01*
X17743441Y-6630941D01*
X17743441Y-7392941D02*
X17743441Y-7339059D01*
X17689559Y-7339059D01*
X17689559Y-7392941D01*
X17743441Y-7392941D01*
X9486900Y-14365600D02*
X9526900Y-14325600D01*
X9486900Y-14285600D01*
X9446900Y-14325600D01*
X9486900Y-14365600D01*
X9486900Y-15127600D02*
X9526900Y-15087600D01*
X9486900Y-15047600D01*
X9446900Y-15087600D01*
X9486900Y-15127600D01*
X9715500Y-8739500D02*
X9755500Y-8699500D01*
X9715500Y-8659500D01*
X9675500Y-8699500D01*
X9715500Y-8739500D01*
X9715500Y-8993500D02*
X9755500Y-8953500D01*
X9715500Y-8913500D01*
X9675500Y-8953500D01*
X9715500Y-8993500D01*
X9715500Y-9247500D02*
X9755500Y-9207500D01*
X9715500Y-9167500D01*
X9675500Y-9207500D01*
X9715500Y-9247500D01*
X9715500Y-9501500D02*
X9755500Y-9461500D01*
X9715500Y-9421500D01*
X9675500Y-9461500D01*
X9715500Y-9501500D01*
X9715500Y-9755500D02*
X9755500Y-9715500D01*
X9715500Y-9675500D01*
X9675500Y-9715500D01*
X9715500Y-9755500D01*
X9715500Y-10009500D02*
X9755500Y-9969500D01*
X9715500Y-9929500D01*
X9675500Y-9969500D01*
X9715500Y-10009500D01*
X9715500Y-10263500D02*
X9755500Y-10223500D01*
X9715500Y-10183500D01*
X9675500Y-10223500D01*
X9715500Y-10263500D01*
X9715500Y-10517500D02*
X9755500Y-10477500D01*
X9715500Y-10437500D01*
X9675500Y-10477500D01*
X9715500Y-10517500D01*
X9740900Y-14365600D02*
X9780900Y-14325600D01*
X9740900Y-14285600D01*
X9700900Y-14325600D01*
X9740900Y-14365600D01*
X9740900Y-15127600D02*
X9780900Y-15087600D01*
X9740900Y-15047600D01*
X9700900Y-15087600D01*
X9740900Y-15127600D01*
X9994900Y-14365600D02*
X10034900Y-14325600D01*
X9994900Y-14285600D01*
X9954900Y-14325600D01*
X9994900Y-14365600D01*
X9994900Y-15127600D02*
X10034900Y-15087600D01*
X9994900Y-15047600D01*
X9954900Y-15087600D01*
X9994900Y-15127600D01*
X10248900Y-14365600D02*
X10288900Y-14325600D01*
X10248900Y-14285600D01*
X10208900Y-14325600D01*
X10248900Y-14365600D01*
X10248900Y-15127600D02*
X10288900Y-15087600D01*
X10248900Y-15047600D01*
X10208900Y-15087600D01*
X10248900Y-15127600D01*
X10477500Y-8739500D02*
X10517500Y-8699500D01*
X10477500Y-8659500D01*
X10437500Y-8699500D01*
X10477500Y-8739500D01*
X10477500Y-8993500D02*
X10517500Y-8953500D01*
X10477500Y-8913500D01*
X10437500Y-8953500D01*
X10477500Y-8993500D01*
X10477500Y-9247500D02*
X10517500Y-9207500D01*
X10477500Y-9167500D01*
X10437500Y-9207500D01*
X10477500Y-9247500D01*
X10477500Y-9501500D02*
X10517500Y-9461500D01*
X10477500Y-9421500D01*
X10437500Y-9461500D01*
X10477500Y-9501500D01*
X10477500Y-9755500D02*
X10517500Y-9715500D01*
X10477500Y-9675500D01*
X10437500Y-9715500D01*
X10477500Y-9755500D01*
X10477500Y-10009500D02*
X10517500Y-9969500D01*
X10477500Y-9929500D01*
X10437500Y-9969500D01*
X10477500Y-10009500D01*
X10477500Y-10263500D02*
X10517500Y-10223500D01*
X10477500Y-10183500D01*
X10437500Y-10223500D01*
X10477500Y-10263500D01*
X10477500Y-10517500D02*
X10517500Y-10477500D01*
X10477500Y-10437500D01*
X10437500Y-10477500D01*
X10477500Y-10517500D01*
X10502900Y-14365600D02*
X10542900Y-14325600D01*
X10502900Y-14285600D01*
X10462900Y-14325600D01*
X10502900Y-14365600D01*
X10502900Y-15127600D02*
X10542900Y-15087600D01*
X10502900Y-15047600D01*
X10462900Y-15087600D01*
X10502900Y-15127600D01*
X10756900Y-14365600D02*
X10796900Y-14325600D01*
X10756900Y-14285600D01*
X10716900Y-14325600D01*
X10756900Y-14365600D01*
X10756900Y-15127600D02*
X10796900Y-15087600D01*
X10756900Y-15047600D01*
X10716900Y-15087600D01*
X10756900Y-15127600D01*
X11010900Y-14365600D02*
X11050900Y-14325600D01*
X11010900Y-14285600D01*
X10970900Y-14325600D01*
X11010900Y-14365600D01*
X11010900Y-15127600D02*
X11050900Y-15087600D01*
X11010900Y-15047600D01*
X10970900Y-15087600D01*
X11010900Y-15127600D01*
X15201900Y-14365600D02*
X15241900Y-14325600D01*
X15201900Y-14285600D01*
X15161900Y-14325600D01*
X15201900Y-14365600D01*
X15201900Y-15127600D02*
X15241900Y-15087600D01*
X15201900Y-15047600D01*
X15161900Y-15087600D01*
X15201900Y-15127600D01*
X15455900Y-14365600D02*
X15495900Y-14325600D01*
X15455900Y-14285600D01*
X15415900Y-14325600D01*
X15455900Y-14365600D01*
X15455900Y-15127600D02*
X15495900Y-15087600D01*
X15455900Y-15047600D01*
X15415900Y-15087600D01*
X15455900Y-15127600D01*
X15709900Y-14365600D02*
X15749900Y-14325600D01*
X15709900Y-14285600D01*
X15669900Y-14325600D01*
X15709900Y-14365600D01*
X15709900Y-15127600D02*
X15749900Y-15087600D01*
X15709900Y-15047600D01*
X15669900Y-15087600D01*
X15709900Y-15127600D01*
X15963900Y-14365600D02*
X16003900Y-14325600D01*
X15963900Y-14285600D01*
X15923900Y-14325600D01*
X15963900Y-14365600D01*
X15963900Y-15127600D02*
X16003900Y-15087600D01*
X15963900Y-15047600D01*
X15923900Y-15087600D01*
X15963900Y-15127600D01*
X16217900Y-14365600D02*
X16257900Y-14325600D01*
X16217900Y-14285600D01*
X16177900Y-14325600D01*
X16217900Y-14365600D01*
X16217900Y-15127600D02*
X16257900Y-15087600D01*
X16217900Y-15047600D01*
X16177900Y-15087600D01*
X16217900Y-15127600D01*
X16471900Y-14365600D02*
X16511900Y-14325600D01*
X16471900Y-14285600D01*
X16431900Y-14325600D01*
X16471900Y-14365600D01*
X16471900Y-15127600D02*
X16511900Y-15087600D01*
X16471900Y-15047600D01*
X16431900Y-15087600D01*
X16471900Y-15127600D01*
X16725900Y-14365600D02*
X16765900Y-14325600D01*
X16725900Y-14285600D01*
X16685900Y-14325600D01*
X16725900Y-14365600D01*
X16725900Y-15127600D02*
X16765900Y-15087600D01*
X16725900Y-15047600D01*
X16685900Y-15087600D01*
X16725900Y-15127600D01*
X11506962Y-6680962D02*
X11607038Y-6781038D01*
X11607038Y-6680962D02*
X11506962Y-6781038D01*
X11607038Y-6731000D02*
G75*
G03X11607038Y-6731000I-50038J0D01*
G01*
X12014962Y-7188962D02*
X12115038Y-7289038D01*
X12115038Y-7188962D02*
X12014962Y-7289038D01*
X12115038Y-7239000D02*
G75*
G03X12115038Y-7239000I-50038J0D01*
G01*
X12522962Y-7252462D02*
X12623038Y-7352538D01*
X12623038Y-7252462D02*
X12522962Y-7352538D01*
X12623038Y-7302500D02*
G75*
G03X12623038Y-7302500I-50038J0D01*
G01*
X13030962Y-6744462D02*
X13131038Y-6844538D01*
X13131038Y-6744462D02*
X13030962Y-6844538D01*
X13131038Y-6794500D02*
G75*
G03X13131038Y-6794500I-50038J0D01*
G01*
X13729462Y-6680962D02*
X13829538Y-6781038D01*
X13829538Y-6680962D02*
X13729462Y-6781038D01*
X13829538Y-6731000D02*
G75*
G03X13829538Y-6731000I-50038J0D01*
G01*
X13919962Y-8585962D02*
X14020038Y-8686038D01*
X14020038Y-8585962D02*
X13919962Y-8686038D01*
X14020038Y-8636000D02*
G75*
G03X14020038Y-8636000I-50038J0D01*
G01*
X13919962Y-9220962D02*
X14020038Y-9321038D01*
X14020038Y-9220962D02*
X13919962Y-9321038D01*
X14020038Y-9271000D02*
G75*
G03X14020038Y-9271000I-50038J0D01*
G01*
X13919962Y-10998962D02*
X14020038Y-11099038D01*
X14020038Y-10998962D02*
X13919962Y-11099038D01*
X14020038Y-11049000D02*
G75*
G03X14020038Y-11049000I-50038J0D01*
G01*
X13919962Y-11697462D02*
X14020038Y-11797538D01*
X14020038Y-11697462D02*
X13919962Y-11797538D01*
X14020038Y-11747500D02*
G75*
G03X14020038Y-11747500I-50038J0D01*
G01*
X13919962Y-13411962D02*
X14020038Y-13512038D01*
X14020038Y-13411962D02*
X13919962Y-13512038D01*
X14020038Y-13462000D02*
G75*
G03X14020038Y-13462000I-50038J0D01*
G01*
X14237462Y-7188962D02*
X14337538Y-7289038D01*
X14337538Y-7188962D02*
X14237462Y-7289038D01*
X14337538Y-7239000D02*
G75*
G03X14337538Y-7239000I-50038J0D01*
G01*
X14427962Y-8077962D02*
X14528038Y-8178038D01*
X14528038Y-8077962D02*
X14427962Y-8178038D01*
X14528038Y-8128000D02*
G75*
G03X14528038Y-8128000I-50038J0D01*
G01*
X14427962Y-9728962D02*
X14528038Y-9829038D01*
X14528038Y-9728962D02*
X14427962Y-9829038D01*
X14528038Y-9779000D02*
G75*
G03X14528038Y-9779000I-50038J0D01*
G01*
X14427962Y-10490962D02*
X14528038Y-10591038D01*
X14528038Y-10490962D02*
X14427962Y-10591038D01*
X14528038Y-10541000D02*
G75*
G03X14528038Y-10541000I-50038J0D01*
G01*
X14427962Y-12205462D02*
X14528038Y-12305538D01*
X14528038Y-12205462D02*
X14427962Y-12305538D01*
X14528038Y-12255500D02*
G75*
G03X14528038Y-12255500I-50038J0D01*
G01*
X14427962Y-12903962D02*
X14528038Y-13004038D01*
X14528038Y-12903962D02*
X14427962Y-13004038D01*
X14528038Y-12954000D02*
G75*
G03X14528038Y-12954000I-50038J0D01*
G01*
X15253462Y-8077962D02*
X15353538Y-8178038D01*
X15353538Y-8077962D02*
X15253462Y-8178038D01*
X15353538Y-8128000D02*
G75*
G03X15353538Y-8128000I-50038J0D01*
G01*
X15253462Y-9792462D02*
X15353538Y-9892538D01*
X15353538Y-9792462D02*
X15253462Y-9892538D01*
X15353538Y-9842500D02*
G75*
G03X15353538Y-9842500I-50038J0D01*
G01*
X15253462Y-10490962D02*
X15353538Y-10591038D01*
X15353538Y-10490962D02*
X15253462Y-10591038D01*
X15353538Y-10541000D02*
G75*
G03X15353538Y-10541000I-50038J0D01*
G01*
X15253462Y-12205462D02*
X15353538Y-12305538D01*
X15353538Y-12205462D02*
X15253462Y-12305538D01*
X15353538Y-12255500D02*
G75*
G03X15353538Y-12255500I-50038J0D01*
G01*
X15253462Y-12903962D02*
X15353538Y-13004038D01*
X15353538Y-12903962D02*
X15253462Y-13004038D01*
X15353538Y-12954000D02*
G75*
G03X15353538Y-12954000I-50038J0D01*
G01*
X15761462Y-8585962D02*
X15861538Y-8686038D01*
X15861538Y-8585962D02*
X15761462Y-8686038D01*
X15861538Y-8636000D02*
G75*
G03X15861538Y-8636000I-50038J0D01*
G01*
X15761462Y-9284462D02*
X15861538Y-9384538D01*
X15861538Y-9284462D02*
X15761462Y-9384538D01*
X15861538Y-9334500D02*
G75*
G03X15861538Y-9334500I-50038J0D01*
G01*
X15761462Y-10998962D02*
X15861538Y-11099038D01*
X15861538Y-10998962D02*
X15761462Y-11099038D01*
X15861538Y-11049000D02*
G75*
G03X15861538Y-11049000I-50038J0D01*
G01*
X15761462Y-11697462D02*
X15861538Y-11797538D01*
X15861538Y-11697462D02*
X15761462Y-11797538D01*
X15861538Y-11747500D02*
G75*
G03X15861538Y-11747500I-50038J0D01*
G01*
X15761462Y-13411962D02*
X15861538Y-13512038D01*
X15861538Y-13411962D02*
X15761462Y-13512038D01*
X15861538Y-13462000D02*
G75*
G03X15861538Y-13462000I-50038J0D01*
G01*
X9220200Y-8648700D02*
X9321800Y-8750300D01*
X9321800Y-8648700D02*
X9220200Y-8750300D01*
X9271000Y-8648700D02*
X9271000Y-8750300D01*
X9220200Y-8699500D02*
X9321800Y-8699500D01*
X9220200Y-8902700D02*
X9321800Y-9004300D01*
X9321800Y-8902700D02*
X9220200Y-9004300D01*
X9271000Y-8902700D02*
X9271000Y-9004300D01*
X9220200Y-8953500D02*
X9321800Y-8953500D01*
X9220200Y-9156700D02*
X9321800Y-9258300D01*
X9321800Y-9156700D02*
X9220200Y-9258300D01*
X9271000Y-9156700D02*
X9271000Y-9258300D01*
X9220200Y-9207500D02*
X9321800Y-9207500D01*
X9220200Y-9410700D02*
X9321800Y-9512300D01*
X9321800Y-9410700D02*
X9220200Y-9512300D01*
X9271000Y-9410700D02*
X9271000Y-9512300D01*
X9220200Y-9461500D02*
X9321800Y-9461500D01*
X9220200Y-9664700D02*
X9321800Y-9766300D01*
X9321800Y-9664700D02*
X9220200Y-9766300D01*
X9271000Y-9664700D02*
X9271000Y-9766300D01*
X9220200Y-9715500D02*
X9321800Y-9715500D01*
X9220200Y-9918700D02*
X9321800Y-10020300D01*
X9321800Y-9918700D02*
X9220200Y-10020300D01*
X9271000Y-9918700D02*
X9271000Y-10020300D01*
X9220200Y-9969500D02*
X9321800Y-9969500D01*
X9220200Y-10172700D02*
X9321800Y-10274300D01*
X9321800Y-10172700D02*
X9220200Y-10274300D01*
X9271000Y-10172700D02*
X9271000Y-10274300D01*
X9220200Y-10223500D02*
X9321800Y-10223500D01*
X9220200Y-10426700D02*
X9321800Y-10528300D01*
X9321800Y-10426700D02*
X9220200Y-10528300D01*
X9271000Y-10426700D02*
X9271000Y-10528300D01*
X9220200Y-10477500D02*
X9321800Y-10477500D01*
X9220200Y-11125200D02*
X9321800Y-11226800D01*
X9321800Y-11125200D02*
X9220200Y-11226800D01*
X9271000Y-11125200D02*
X9271000Y-11226800D01*
X9220200Y-11176000D02*
X9321800Y-11176000D01*
X9220200Y-11379200D02*
X9321800Y-11480800D01*
X9321800Y-11379200D02*
X9220200Y-11480800D01*
X9271000Y-11379200D02*
X9271000Y-11480800D01*
X9220200Y-11430000D02*
X9321800Y-11430000D01*
X9309100Y-15735300D02*
X9410700Y-15836900D01*
X9410700Y-15735300D02*
X9309100Y-15836900D01*
X9359900Y-15735300D02*
X9359900Y-15836900D01*
X9309100Y-15786100D02*
X9410700Y-15786100D01*
X9563100Y-15735300D02*
X9664700Y-15836900D01*
X9664700Y-15735300D02*
X9563100Y-15836900D01*
X9613900Y-15735300D02*
X9613900Y-15836900D01*
X9563100Y-15786100D02*
X9664700Y-15786100D01*
X9817100Y-15735300D02*
X9918700Y-15836900D01*
X9918700Y-15735300D02*
X9817100Y-15836900D01*
X9867900Y-15735300D02*
X9867900Y-15836900D01*
X9817100Y-15786100D02*
X9918700Y-15786100D01*
X10071100Y-15735300D02*
X10172700Y-15836900D01*
X10172700Y-15735300D02*
X10071100Y-15836900D01*
X10121900Y-15735300D02*
X10121900Y-15836900D01*
X10071100Y-15786100D02*
X10172700Y-15786100D01*
X10325100Y-15735300D02*
X10426700Y-15836900D01*
X10426700Y-15735300D02*
X10325100Y-15836900D01*
X10375900Y-15735300D02*
X10375900Y-15836900D01*
X10325100Y-15786100D02*
X10426700Y-15786100D01*
X10579100Y-15735300D02*
X10680700Y-15836900D01*
X10680700Y-15735300D02*
X10579100Y-15836900D01*
X10629900Y-15735300D02*
X10629900Y-15836900D01*
X10579100Y-15786100D02*
X10680700Y-15786100D01*
X10833100Y-15735300D02*
X10934700Y-15836900D01*
X10934700Y-15735300D02*
X10833100Y-15836900D01*
X10883900Y-15735300D02*
X10883900Y-15836900D01*
X10833100Y-15786100D02*
X10934700Y-15786100D01*
X11087100Y-15735300D02*
X11188700Y-15836900D01*
X11188700Y-15735300D02*
X11087100Y-15836900D01*
X11137900Y-15735300D02*
X11137900Y-15836900D01*
X11087100Y-15786100D02*
X11188700Y-15786100D01*
X11341100Y-15735300D02*
X11442700Y-15836900D01*
X11442700Y-15735300D02*
X11341100Y-15836900D01*
X11391900Y-15735300D02*
X11391900Y-15836900D01*
X11341100Y-15786100D02*
X11442700Y-15786100D01*
X11595100Y-14274800D02*
X11696700Y-14376400D01*
X11696700Y-14274800D02*
X11595100Y-14376400D01*
X11645900Y-14274800D02*
X11645900Y-14376400D01*
X11595100Y-14325600D02*
X11696700Y-14325600D01*
X11595100Y-15735300D02*
X11696700Y-15836900D01*
X11696700Y-15735300D02*
X11595100Y-15836900D01*
X11645900Y-15735300D02*
X11645900Y-15836900D01*
X11595100Y-15786100D02*
X11696700Y-15786100D01*
X11849100Y-14274800D02*
X11950700Y-14376400D01*
X11950700Y-14274800D02*
X11849100Y-14376400D01*
X11899900Y-14274800D02*
X11899900Y-14376400D01*
X11849100Y-14325600D02*
X11950700Y-14325600D01*
X11849100Y-15735300D02*
X11950700Y-15836900D01*
X11950700Y-15735300D02*
X11849100Y-15836900D01*
X11899900Y-15735300D02*
X11899900Y-15836900D01*
X11849100Y-15786100D02*
X11950700Y-15786100D01*
X12103100Y-14274800D02*
X12204700Y-14376400D01*
X12204700Y-14274800D02*
X12103100Y-14376400D01*
X12153900Y-14274800D02*
X12153900Y-14376400D01*
X12103100Y-14325600D02*
X12204700Y-14325600D01*
X12103100Y-15735300D02*
X12204700Y-15836900D01*
X12204700Y-15735300D02*
X12103100Y-15836900D01*
X12153900Y-15735300D02*
X12153900Y-15836900D01*
X12103100Y-15786100D02*
X12204700Y-15786100D01*
X12357100Y-14274800D02*
X12458700Y-14376400D01*
X12458700Y-14274800D02*
X12357100Y-14376400D01*
X12407900Y-14274800D02*
X12407900Y-14376400D01*
X12357100Y-14325600D02*
X12458700Y-14325600D01*
X12357100Y-15735300D02*
X12458700Y-15836900D01*
X12458700Y-15735300D02*
X12357100Y-15836900D01*
X12407900Y-15735300D02*
X12407900Y-15836900D01*
X12357100Y-15786100D02*
X12458700Y-15786100D01*
X12611100Y-14274800D02*
X12712700Y-14376400D01*
X12712700Y-14274800D02*
X12611100Y-14376400D01*
X12661900Y-14274800D02*
X12661900Y-14376400D01*
X12611100Y-14325600D02*
X12712700Y-14325600D01*
X12611100Y-15735300D02*
X12712700Y-15836900D01*
X12712700Y-15735300D02*
X12611100Y-15836900D01*
X12661900Y-15735300D02*
X12661900Y-15836900D01*
X12611100Y-15786100D02*
X12712700Y-15786100D01*
X15024100Y-15735300D02*
X15125700Y-15836900D01*
X15125700Y-15735300D02*
X15024100Y-15836900D01*
X15074900Y-15735300D02*
X15074900Y-15836900D01*
X15024100Y-15786100D02*
X15125700Y-15786100D01*
X15278100Y-15735300D02*
X15379700Y-15836900D01*
X15379700Y-15735300D02*
X15278100Y-15836900D01*
X15328900Y-15735300D02*
X15328900Y-15836900D01*
X15278100Y-15786100D02*
X15379700Y-15786100D01*
X15532100Y-15735300D02*
X15633700Y-15836900D01*
X15633700Y-15735300D02*
X15532100Y-15836900D01*
X15582900Y-15735300D02*
X15582900Y-15836900D01*
X15532100Y-15786100D02*
X15633700Y-15786100D01*
X15786100Y-15735300D02*
X15887700Y-15836900D01*
X15887700Y-15735300D02*
X15786100Y-15836900D01*
X15836900Y-15735300D02*
X15836900Y-15836900D01*
X15786100Y-15786100D02*
X15887700Y-15786100D01*
X16040100Y-15735300D02*
X16141700Y-15836900D01*
X16141700Y-15735300D02*
X16040100Y-15836900D01*
X16090900Y-15735300D02*
X16090900Y-15836900D01*
X16040100Y-15786100D02*
X16141700Y-15786100D01*
X16294100Y-15735300D02*
X16395700Y-15836900D01*
X16395700Y-15735300D02*
X16294100Y-15836900D01*
X16344900Y-15735300D02*
X16344900Y-15836900D01*
X16294100Y-15786100D02*
X16395700Y-15786100D01*
X16395700Y-6172200D02*
X16497300Y-6273800D01*
X16497300Y-6172200D02*
X16395700Y-6273800D01*
X16446500Y-6172200D02*
X16446500Y-6273800D01*
X16395700Y-6223000D02*
X16497300Y-6223000D01*
X16548100Y-15735300D02*
X16649700Y-15836900D01*
X16649700Y-15735300D02*
X16548100Y-15836900D01*
X16598900Y-15735300D02*
X16598900Y-15836900D01*
X16548100Y-15786100D02*
X16649700Y-15786100D01*
X16649700Y-6172200D02*
X16751300Y-6273800D01*
X16751300Y-6172200D02*
X16649700Y-6273800D01*
X16700500Y-6172200D02*
X16700500Y-6273800D01*
X16649700Y-6223000D02*
X16751300Y-6223000D01*
X16802100Y-15735300D02*
X16903700Y-15836900D01*
X16903700Y-15735300D02*
X16802100Y-15836900D01*
X16852900Y-15735300D02*
X16852900Y-15836900D01*
X16802100Y-15786100D02*
X16903700Y-15786100D01*
X17056100Y-15735300D02*
X17157700Y-15836900D01*
X17157700Y-15735300D02*
X17056100Y-15836900D01*
X17106900Y-15735300D02*
X17106900Y-15836900D01*
X17056100Y-15786100D02*
X17157700Y-15786100D01*
X17310100Y-14274800D02*
X17411700Y-14376400D01*
X17411700Y-14274800D02*
X17310100Y-14376400D01*
X17360900Y-14274800D02*
X17360900Y-14376400D01*
X17310100Y-14325600D02*
X17411700Y-14325600D01*
X17310100Y-15735300D02*
X17411700Y-15836900D01*
X17411700Y-15735300D02*
X17310100Y-15836900D01*
X17360900Y-15735300D02*
X17360900Y-15836900D01*
X17310100Y-15786100D02*
X17411700Y-15786100D01*
X17564100Y-14274800D02*
X17665700Y-14376400D01*
X17665700Y-14274800D02*
X17564100Y-14376400D01*
X17614900Y-14274800D02*
X17614900Y-14376400D01*
X17564100Y-14325600D02*
X17665700Y-14325600D01*
X17564100Y-15735300D02*
X17665700Y-15836900D01*
X17665700Y-15735300D02*
X17564100Y-15836900D01*
X17614900Y-15735300D02*
X17614900Y-15836900D01*
X17564100Y-15786100D02*
X17665700Y-15786100D01*
X17818100Y-14274800D02*
X17919700Y-14376400D01*
X17919700Y-14274800D02*
X17818100Y-14376400D01*
X17868900Y-14274800D02*
X17868900Y-14376400D01*
X17818100Y-14325600D02*
X17919700Y-14325600D01*
X17818100Y-15735300D02*
X17919700Y-15836900D01*
X17919700Y-15735300D02*
X17818100Y-15836900D01*
X17868900Y-15735300D02*
X17868900Y-15836900D01*
X17818100Y-15786100D02*
X17919700Y-15786100D01*
X18072100Y-14274800D02*
X18173700Y-14376400D01*
X18173700Y-14274800D02*
X18072100Y-14376400D01*
X18122900Y-14274800D02*
X18122900Y-14376400D01*
X18072100Y-14325600D02*
X18173700Y-14325600D01*
X18072100Y-15735300D02*
X18173700Y-15836900D01*
X18173700Y-15735300D02*
X18072100Y-15836900D01*
X18122900Y-15735300D02*
X18122900Y-15836900D01*
X18072100Y-15786100D02*
X18173700Y-15786100D01*
X18300700Y-7315200D02*
X18402300Y-7416800D01*
X18402300Y-7315200D02*
X18300700Y-7416800D01*
X18351500Y-7315200D02*
X18351500Y-7416800D01*
X18300700Y-7366000D02*
X18402300Y-7366000D01*
X18300700Y-7569200D02*
X18402300Y-7670800D01*
X18402300Y-7569200D02*
X18300700Y-7670800D01*
X18351500Y-7569200D02*
X18351500Y-7670800D01*
X18300700Y-7620000D02*
X18402300Y-7620000D01*
X18300700Y-8902700D02*
X18402300Y-9004300D01*
X18402300Y-8902700D02*
X18300700Y-9004300D01*
X18351500Y-8902700D02*
X18351500Y-9004300D01*
X18300700Y-8953500D02*
X18402300Y-8953500D01*
X18300700Y-9156700D02*
X18402300Y-9258300D01*
X18402300Y-9156700D02*
X18300700Y-9258300D01*
X18351500Y-9156700D02*
X18351500Y-9258300D01*
X18300700Y-9207500D02*
X18402300Y-9207500D01*
X18326100Y-14274800D02*
X18427700Y-14376400D01*
X18427700Y-14274800D02*
X18326100Y-14376400D01*
X18376900Y-14274800D02*
X18376900Y-14376400D01*
X18326100Y-14325600D02*
X18427700Y-14325600D01*
X18326100Y-15735300D02*
X18427700Y-15836900D01*
X18427700Y-15735300D02*
X18326100Y-15836900D01*
X18376900Y-15735300D02*
X18376900Y-15836900D01*
X18326100Y-15786100D02*
X18427700Y-15786100D01*
X9235000Y-6435000D02*
X9565000Y-6765000D01*
X9565000Y-6435000D02*
X9235000Y-6765000D01*
X9516674Y-6716674D02*
X9516674Y-6483326D01*
X9283326Y-6483326D01*
X9283326Y-6716674D01*
X9516674Y-6716674D01*
X9235000Y-13235000D02*
X9565000Y-13565000D01*
X9565000Y-13235000D02*
X9235000Y-13565000D01*
X9516674Y-13516674D02*
X9516674Y-13283326D01*
X9283326Y-13283326D01*
X9283326Y-13516674D01*
X9516674Y-13516674D01*
X18035000Y-6435000D02*
X18365000Y-6765000D01*
X18365000Y-6435000D02*
X18035000Y-6765000D01*
X18316674Y-6716674D02*
X18316674Y-6483326D01*
X18083326Y-6483326D01*
X18083326Y-6716674D01*
X18316674Y-6716674D01*
X18035000Y-13235000D02*
X18365000Y-13565000D01*
X18365000Y-13235000D02*
X18035000Y-13565000D01*
X18316674Y-13516674D02*
X18316674Y-13283326D01*
X18083326Y-13283326D01*
X18083326Y-13516674D01*
X18316674Y-13516674D01*
D13*
X9063929Y-16473214D02*
X9063929Y-16173214D01*
X9135357Y-16173214D01*
X9178214Y-16187500D01*
X9206786Y-16216071D01*
X9221071Y-16244643D01*
X9235357Y-16301786D01*
X9235357Y-16344643D01*
X9221071Y-16401786D01*
X9206786Y-16430357D01*
X9178214Y-16458929D01*
X9135357Y-16473214D01*
X9063929Y-16473214D01*
X9363929Y-16473214D02*
X9363929Y-16273214D01*
X9363929Y-16330357D02*
X9378214Y-16301786D01*
X9392500Y-16287500D01*
X9421071Y-16273214D01*
X9449643Y-16273214D01*
X9549643Y-16473214D02*
X9549643Y-16273214D01*
X9549643Y-16173214D02*
X9535357Y-16187500D01*
X9549643Y-16201786D01*
X9563929Y-16187500D01*
X9549643Y-16173214D01*
X9549643Y-16201786D01*
X9735357Y-16473214D02*
X9706786Y-16458929D01*
X9692500Y-16430357D01*
X9692500Y-16173214D01*
X9892500Y-16473214D02*
X9863929Y-16458929D01*
X9849643Y-16430357D01*
X9849643Y-16173214D01*
X10235357Y-16473214D02*
X10235357Y-16173214D01*
X10335357Y-16387500D01*
X10435357Y-16173214D01*
X10435357Y-16473214D01*
X10706786Y-16473214D02*
X10706786Y-16316071D01*
X10692500Y-16287500D01*
X10663929Y-16273214D01*
X10606786Y-16273214D01*
X10578214Y-16287500D01*
X10706786Y-16458929D02*
X10678214Y-16473214D01*
X10606786Y-16473214D01*
X10578214Y-16458929D01*
X10563929Y-16430357D01*
X10563929Y-16401786D01*
X10578214Y-16373214D01*
X10606786Y-16358929D01*
X10678214Y-16358929D01*
X10706786Y-16344643D01*
X10849643Y-16273214D02*
X10849643Y-16573214D01*
X10849643Y-16287500D02*
X10878214Y-16273214D01*
X10935357Y-16273214D01*
X10963929Y-16287500D01*
X10978214Y-16301786D01*
X10992500Y-16330357D01*
X10992500Y-16416071D01*
X10978214Y-16444643D01*
X10963929Y-16458929D01*
X10935357Y-16473214D01*
X10878214Y-16473214D01*
X10849643Y-16458929D01*
X11121071Y-16444643D02*
X11135357Y-16458929D01*
X11121071Y-16473214D01*
X11106786Y-16458929D01*
X11121071Y-16444643D01*
X11121071Y-16473214D01*
X11121071Y-16287500D02*
X11135357Y-16301786D01*
X11121071Y-16316071D01*
X11106786Y-16301786D01*
X11121071Y-16287500D01*
X11121071Y-16316071D01*
X8752500Y-16947500D02*
X8792500Y-16987500D01*
X8792500Y-16947500D02*
X8752500Y-16987500D01*
X9121071Y-16803214D02*
X9149643Y-16803214D01*
X9178214Y-16817500D01*
X9192500Y-16831786D01*
X9206786Y-16860357D01*
X9221071Y-16917500D01*
X9221071Y-16988929D01*
X9206786Y-17046072D01*
X9192500Y-17074643D01*
X9178214Y-17088929D01*
X9149643Y-17103214D01*
X9121071Y-17103214D01*
X9092500Y-17088929D01*
X9078214Y-17074643D01*
X9063929Y-17046072D01*
X9049643Y-16988929D01*
X9049643Y-16917500D01*
X9063929Y-16860357D01*
X9078214Y-16831786D01*
X9092500Y-16817500D01*
X9121071Y-16803214D01*
X9349643Y-17074643D02*
X9363929Y-17088929D01*
X9349643Y-17103214D01*
X9335357Y-17088929D01*
X9349643Y-17074643D01*
X9349643Y-17103214D01*
X9621071Y-16903214D02*
X9621071Y-17103214D01*
X9549643Y-16788929D02*
X9478214Y-17003214D01*
X9663928Y-17003214D01*
X9835357Y-16803214D02*
X9863929Y-16803214D01*
X9892500Y-16817500D01*
X9906786Y-16831786D01*
X9921071Y-16860357D01*
X9935357Y-16917500D01*
X9935357Y-16988929D01*
X9921071Y-17046072D01*
X9906786Y-17074643D01*
X9892500Y-17088929D01*
X9863929Y-17103214D01*
X9835357Y-17103214D01*
X9806786Y-17088929D01*
X9792500Y-17074643D01*
X9778214Y-17046072D01*
X9763929Y-16988929D01*
X9763929Y-16917500D01*
X9778214Y-16860357D01*
X9792500Y-16831786D01*
X9806786Y-16817500D01*
X9835357Y-16803214D01*
X10063929Y-17103214D02*
X10063929Y-16903214D01*
X10063929Y-16931786D02*
X10078214Y-16917500D01*
X10106786Y-16903214D01*
X10149643Y-16903214D01*
X10178214Y-16917500D01*
X10192500Y-16946072D01*
X10192500Y-17103214D01*
X10192500Y-16946072D02*
X10206786Y-16917500D01*
X10235357Y-16903214D01*
X10278214Y-16903214D01*
X10306786Y-16917500D01*
X10321071Y-16946072D01*
X10321071Y-17103214D01*
X10463929Y-17103214D02*
X10463929Y-16903214D01*
X10463929Y-16931786D02*
X10478214Y-16917500D01*
X10506786Y-16903214D01*
X10549643Y-16903214D01*
X10578214Y-16917500D01*
X10592500Y-16946072D01*
X10592500Y-17103214D01*
X10592500Y-16946072D02*
X10606786Y-16917500D01*
X10635357Y-16903214D01*
X10678214Y-16903214D01*
X10706786Y-16917500D01*
X10721071Y-16946072D01*
X10721071Y-17103214D01*
X11306786Y-16788929D02*
X11049643Y-17174643D01*
X11692500Y-16803214D02*
X11721071Y-16803214D01*
X11749643Y-16817500D01*
X11763928Y-16831786D01*
X11778214Y-16860357D01*
X11792500Y-16917500D01*
X11792500Y-16988929D01*
X11778214Y-17046072D01*
X11763928Y-17074643D01*
X11749643Y-17088929D01*
X11721071Y-17103214D01*
X11692500Y-17103214D01*
X11663928Y-17088929D01*
X11649643Y-17074643D01*
X11635357Y-17046072D01*
X11621071Y-16988929D01*
X11621071Y-16917500D01*
X11635357Y-16860357D01*
X11649643Y-16831786D01*
X11663928Y-16817500D01*
X11692500Y-16803214D01*
X11921071Y-17074643D02*
X11935357Y-17088929D01*
X11921071Y-17103214D01*
X11906786Y-17088929D01*
X11921071Y-17074643D01*
X11921071Y-17103214D01*
X12121071Y-16803214D02*
X12149643Y-16803214D01*
X12178214Y-16817500D01*
X12192500Y-16831786D01*
X12206785Y-16860357D01*
X12221071Y-16917500D01*
X12221071Y-16988929D01*
X12206785Y-17046072D01*
X12192500Y-17074643D01*
X12178214Y-17088929D01*
X12149643Y-17103214D01*
X12121071Y-17103214D01*
X12092500Y-17088929D01*
X12078214Y-17074643D01*
X12063928Y-17046072D01*
X12049643Y-16988929D01*
X12049643Y-16917500D01*
X12063928Y-16860357D01*
X12078214Y-16831786D01*
X12092500Y-16817500D01*
X12121071Y-16803214D01*
X12506785Y-17103214D02*
X12335357Y-17103214D01*
X12421071Y-17103214D02*
X12421071Y-16803214D01*
X12392500Y-16846072D01*
X12363928Y-16874643D01*
X12335357Y-16888929D01*
X12763928Y-16803214D02*
X12706785Y-16803214D01*
X12678214Y-16817500D01*
X12663928Y-16831786D01*
X12635357Y-16874643D01*
X12621071Y-16931786D01*
X12621071Y-17046072D01*
X12635357Y-17074643D01*
X12649643Y-17088929D01*
X12678214Y-17103214D01*
X12735357Y-17103214D01*
X12763928Y-17088929D01*
X12778214Y-17074643D01*
X12792500Y-17046072D01*
X12792500Y-16974643D01*
X12778214Y-16946072D01*
X12763928Y-16931786D01*
X12735357Y-16917500D01*
X12678214Y-16917500D01*
X12649643Y-16931786D01*
X12635357Y-16946072D01*
X12621071Y-16974643D01*
X12906786Y-16803214D02*
X12906786Y-16860357D01*
X13021071Y-16803214D02*
X13021071Y-16860357D01*
X13463928Y-17217500D02*
X13449643Y-17203214D01*
X13421071Y-17160357D01*
X13406785Y-17131786D01*
X13392500Y-17088929D01*
X13378214Y-17017500D01*
X13378214Y-16960357D01*
X13392500Y-16888929D01*
X13406785Y-16846072D01*
X13421071Y-16817500D01*
X13449643Y-16774643D01*
X13463928Y-16760357D01*
X13735357Y-17103214D02*
X13563928Y-17103214D01*
X13649643Y-17103214D02*
X13649643Y-16803214D01*
X13621071Y-16846072D01*
X13592500Y-16874643D01*
X13563928Y-16888929D01*
X13992500Y-16903214D02*
X13992500Y-17103214D01*
X13921071Y-16788929D02*
X13849643Y-17003214D01*
X14035357Y-17003214D01*
X14278214Y-16903214D02*
X14278214Y-17103214D01*
X14206785Y-16788929D02*
X14135357Y-17003214D01*
X14321071Y-17003214D01*
X14663928Y-17103214D02*
X14663928Y-16803214D01*
X14792500Y-17103214D02*
X14792500Y-16946072D01*
X14778214Y-16917500D01*
X14749643Y-16903214D01*
X14706785Y-16903214D01*
X14678214Y-16917500D01*
X14663928Y-16931786D01*
X14978214Y-17103214D02*
X14949643Y-17088929D01*
X14935357Y-17074643D01*
X14921071Y-17046072D01*
X14921071Y-16960357D01*
X14935357Y-16931786D01*
X14949643Y-16917500D01*
X14978214Y-16903214D01*
X15021071Y-16903214D01*
X15049643Y-16917500D01*
X15063928Y-16931786D01*
X15078214Y-16960357D01*
X15078214Y-17046072D01*
X15063928Y-17074643D01*
X15049643Y-17088929D01*
X15021071Y-17103214D01*
X14978214Y-17103214D01*
X15249643Y-17103214D02*
X15221071Y-17088929D01*
X15206786Y-17060357D01*
X15206786Y-16803214D01*
X15478214Y-17088929D02*
X15449643Y-17103214D01*
X15392500Y-17103214D01*
X15363928Y-17088929D01*
X15349643Y-17060357D01*
X15349643Y-16946072D01*
X15363928Y-16917500D01*
X15392500Y-16903214D01*
X15449643Y-16903214D01*
X15478214Y-16917500D01*
X15492500Y-16946072D01*
X15492500Y-16974643D01*
X15349643Y-17003214D01*
X15606786Y-17088929D02*
X15635357Y-17103214D01*
X15692500Y-17103214D01*
X15721071Y-17088929D01*
X15735357Y-17060357D01*
X15735357Y-17046072D01*
X15721071Y-17017500D01*
X15692500Y-17003214D01*
X15649643Y-17003214D01*
X15621071Y-16988929D01*
X15606786Y-16960357D01*
X15606786Y-16946072D01*
X15621071Y-16917500D01*
X15649643Y-16903214D01*
X15692500Y-16903214D01*
X15721071Y-16917500D01*
X15835357Y-17217500D02*
X15849643Y-17203214D01*
X15878214Y-17160357D01*
X15892500Y-17131786D01*
X15906786Y-17088929D01*
X15921071Y-17017500D01*
X15921071Y-16960357D01*
X15906786Y-16888929D01*
X15892500Y-16846072D01*
X15878214Y-16817500D01*
X15849643Y-16774643D01*
X15835357Y-16760357D01*
X8792500Y-17363500D02*
G75*
G03X8792500Y-17363500I-31750J0D01*
G01*
X9121071Y-17199214D02*
X9149643Y-17199214D01*
X9178214Y-17213500D01*
X9192500Y-17227786D01*
X9206786Y-17256357D01*
X9221071Y-17313500D01*
X9221071Y-17384929D01*
X9206786Y-17442072D01*
X9192500Y-17470643D01*
X9178214Y-17484929D01*
X9149643Y-17499214D01*
X9121071Y-17499214D01*
X9092500Y-17484929D01*
X9078214Y-17470643D01*
X9063929Y-17442072D01*
X9049643Y-17384929D01*
X9049643Y-17313500D01*
X9063929Y-17256357D01*
X9078214Y-17227786D01*
X9092500Y-17213500D01*
X9121071Y-17199214D01*
X9349643Y-17470643D02*
X9363929Y-17484929D01*
X9349643Y-17499214D01*
X9335357Y-17484929D01*
X9349643Y-17470643D01*
X9349643Y-17499214D01*
X9621071Y-17199214D02*
X9563928Y-17199214D01*
X9535357Y-17213500D01*
X9521071Y-17227786D01*
X9492500Y-17270643D01*
X9478214Y-17327786D01*
X9478214Y-17442072D01*
X9492500Y-17470643D01*
X9506786Y-17484929D01*
X9535357Y-17499214D01*
X9592500Y-17499214D01*
X9621071Y-17484929D01*
X9635357Y-17470643D01*
X9649643Y-17442072D01*
X9649643Y-17370643D01*
X9635357Y-17342072D01*
X9621071Y-17327786D01*
X9592500Y-17313500D01*
X9535357Y-17313500D01*
X9506786Y-17327786D01*
X9492500Y-17342072D01*
X9478214Y-17370643D01*
X9906786Y-17299214D02*
X9906786Y-17499214D01*
X9835357Y-17184929D02*
X9763929Y-17399214D01*
X9949643Y-17399214D01*
X10063929Y-17499214D02*
X10063929Y-17299214D01*
X10063929Y-17327786D02*
X10078214Y-17313500D01*
X10106786Y-17299214D01*
X10149643Y-17299214D01*
X10178214Y-17313500D01*
X10192500Y-17342072D01*
X10192500Y-17499214D01*
X10192500Y-17342072D02*
X10206786Y-17313500D01*
X10235357Y-17299214D01*
X10278214Y-17299214D01*
X10306786Y-17313500D01*
X10321071Y-17342072D01*
X10321071Y-17499214D01*
X10463929Y-17499214D02*
X10463929Y-17299214D01*
X10463929Y-17327786D02*
X10478214Y-17313500D01*
X10506786Y-17299214D01*
X10549643Y-17299214D01*
X10578214Y-17313500D01*
X10592500Y-17342072D01*
X10592500Y-17499214D01*
X10592500Y-17342072D02*
X10606786Y-17313500D01*
X10635357Y-17299214D01*
X10678214Y-17299214D01*
X10706786Y-17313500D01*
X10721071Y-17342072D01*
X10721071Y-17499214D01*
X11306786Y-17184929D02*
X11049643Y-17570643D01*
X11692500Y-17199214D02*
X11721071Y-17199214D01*
X11749643Y-17213500D01*
X11763928Y-17227786D01*
X11778214Y-17256357D01*
X11792500Y-17313500D01*
X11792500Y-17384929D01*
X11778214Y-17442072D01*
X11763928Y-17470643D01*
X11749643Y-17484929D01*
X11721071Y-17499214D01*
X11692500Y-17499214D01*
X11663928Y-17484929D01*
X11649643Y-17470643D01*
X11635357Y-17442072D01*
X11621071Y-17384929D01*
X11621071Y-17313500D01*
X11635357Y-17256357D01*
X11649643Y-17227786D01*
X11663928Y-17213500D01*
X11692500Y-17199214D01*
X11921071Y-17470643D02*
X11935357Y-17484929D01*
X11921071Y-17499214D01*
X11906786Y-17484929D01*
X11921071Y-17470643D01*
X11921071Y-17499214D01*
X12121071Y-17199214D02*
X12149643Y-17199214D01*
X12178214Y-17213500D01*
X12192500Y-17227786D01*
X12206785Y-17256357D01*
X12221071Y-17313500D01*
X12221071Y-17384929D01*
X12206785Y-17442072D01*
X12192500Y-17470643D01*
X12178214Y-17484929D01*
X12149643Y-17499214D01*
X12121071Y-17499214D01*
X12092500Y-17484929D01*
X12078214Y-17470643D01*
X12063928Y-17442072D01*
X12049643Y-17384929D01*
X12049643Y-17313500D01*
X12063928Y-17256357D01*
X12078214Y-17227786D01*
X12092500Y-17213500D01*
X12121071Y-17199214D01*
X12335357Y-17227786D02*
X12349643Y-17213500D01*
X12378214Y-17199214D01*
X12449643Y-17199214D01*
X12478214Y-17213500D01*
X12492500Y-17227786D01*
X12506785Y-17256357D01*
X12506785Y-17284929D01*
X12492500Y-17327786D01*
X12321071Y-17499214D01*
X12506785Y-17499214D01*
X12778214Y-17199214D02*
X12635357Y-17199214D01*
X12621071Y-17342072D01*
X12635357Y-17327786D01*
X12663928Y-17313500D01*
X12735357Y-17313500D01*
X12763928Y-17327786D01*
X12778214Y-17342072D01*
X12792500Y-17370643D01*
X12792500Y-17442072D01*
X12778214Y-17470643D01*
X12763928Y-17484929D01*
X12735357Y-17499214D01*
X12663928Y-17499214D01*
X12635357Y-17484929D01*
X12621071Y-17470643D01*
X12906786Y-17199214D02*
X12906786Y-17256357D01*
X13021071Y-17199214D02*
X13021071Y-17256357D01*
X13463928Y-17613500D02*
X13449643Y-17599214D01*
X13421071Y-17556357D01*
X13406785Y-17527786D01*
X13392500Y-17484929D01*
X13378214Y-17413500D01*
X13378214Y-17356357D01*
X13392500Y-17284929D01*
X13406785Y-17242072D01*
X13421071Y-17213500D01*
X13449643Y-17170643D01*
X13463928Y-17156357D01*
X13563928Y-17227786D02*
X13578214Y-17213500D01*
X13606785Y-17199214D01*
X13678214Y-17199214D01*
X13706785Y-17213500D01*
X13721071Y-17227786D01*
X13735357Y-17256357D01*
X13735357Y-17284929D01*
X13721071Y-17327786D01*
X13549643Y-17499214D01*
X13735357Y-17499214D01*
X14092500Y-17499214D02*
X14092500Y-17199214D01*
X14221071Y-17499214D02*
X14221071Y-17342072D01*
X14206785Y-17313500D01*
X14178214Y-17299214D01*
X14135357Y-17299214D01*
X14106785Y-17313500D01*
X14092500Y-17327786D01*
X14406785Y-17499214D02*
X14378214Y-17484929D01*
X14363928Y-17470643D01*
X14349643Y-17442072D01*
X14349643Y-17356357D01*
X14363928Y-17327786D01*
X14378214Y-17313500D01*
X14406785Y-17299214D01*
X14449643Y-17299214D01*
X14478214Y-17313500D01*
X14492500Y-17327786D01*
X14506785Y-17356357D01*
X14506785Y-17442072D01*
X14492500Y-17470643D01*
X14478214Y-17484929D01*
X14449643Y-17499214D01*
X14406785Y-17499214D01*
X14678214Y-17499214D02*
X14649643Y-17484929D01*
X14635357Y-17456357D01*
X14635357Y-17199214D01*
X14906786Y-17484929D02*
X14878214Y-17499214D01*
X14821071Y-17499214D01*
X14792500Y-17484929D01*
X14778214Y-17456357D01*
X14778214Y-17342072D01*
X14792500Y-17313500D01*
X14821071Y-17299214D01*
X14878214Y-17299214D01*
X14906786Y-17313500D01*
X14921071Y-17342072D01*
X14921071Y-17370643D01*
X14778214Y-17399214D01*
X15035357Y-17484929D02*
X15063928Y-17499214D01*
X15121071Y-17499214D01*
X15149643Y-17484929D01*
X15163928Y-17456357D01*
X15163928Y-17442072D01*
X15149643Y-17413500D01*
X15121071Y-17399214D01*
X15078214Y-17399214D01*
X15049643Y-17384929D01*
X15035357Y-17356357D01*
X15035357Y-17342072D01*
X15049643Y-17313500D01*
X15078214Y-17299214D01*
X15121071Y-17299214D01*
X15149643Y-17313500D01*
X15263928Y-17613500D02*
X15278214Y-17599214D01*
X15306786Y-17556357D01*
X15321071Y-17527786D01*
X15335357Y-17484929D01*
X15349643Y-17413500D01*
X15349643Y-17356357D01*
X15335357Y-17284929D01*
X15321071Y-17242072D01*
X15306786Y-17213500D01*
X15278214Y-17170643D01*
X15263928Y-17156357D01*
X8757448Y-17724448D02*
X8757448Y-17794552D01*
X8722396Y-17759500D02*
X8792500Y-17759500D01*
X9121071Y-17595214D02*
X9149643Y-17595214D01*
X9178214Y-17609500D01*
X9192500Y-17623786D01*
X9206786Y-17652357D01*
X9221071Y-17709500D01*
X9221071Y-17780929D01*
X9206786Y-17838072D01*
X9192500Y-17866643D01*
X9178214Y-17880929D01*
X9149643Y-17895214D01*
X9121071Y-17895214D01*
X9092500Y-17880929D01*
X9078214Y-17866643D01*
X9063929Y-17838072D01*
X9049643Y-17780929D01*
X9049643Y-17709500D01*
X9063929Y-17652357D01*
X9078214Y-17623786D01*
X9092500Y-17609500D01*
X9121071Y-17595214D01*
X9349643Y-17866643D02*
X9363929Y-17880929D01*
X9349643Y-17895214D01*
X9335357Y-17880929D01*
X9349643Y-17866643D01*
X9349643Y-17895214D01*
X9463928Y-17595214D02*
X9663928Y-17595214D01*
X9535357Y-17895214D01*
X9835357Y-17595214D02*
X9863929Y-17595214D01*
X9892500Y-17609500D01*
X9906786Y-17623786D01*
X9921071Y-17652357D01*
X9935357Y-17709500D01*
X9935357Y-17780929D01*
X9921071Y-17838072D01*
X9906786Y-17866643D01*
X9892500Y-17880929D01*
X9863929Y-17895214D01*
X9835357Y-17895214D01*
X9806786Y-17880929D01*
X9792500Y-17866643D01*
X9778214Y-17838072D01*
X9763929Y-17780929D01*
X9763929Y-17709500D01*
X9778214Y-17652357D01*
X9792500Y-17623786D01*
X9806786Y-17609500D01*
X9835357Y-17595214D01*
X10063929Y-17895214D02*
X10063929Y-17695214D01*
X10063929Y-17723786D02*
X10078214Y-17709500D01*
X10106786Y-17695214D01*
X10149643Y-17695214D01*
X10178214Y-17709500D01*
X10192500Y-17738072D01*
X10192500Y-17895214D01*
X10192500Y-17738072D02*
X10206786Y-17709500D01*
X10235357Y-17695214D01*
X10278214Y-17695214D01*
X10306786Y-17709500D01*
X10321071Y-17738072D01*
X10321071Y-17895214D01*
X10463929Y-17895214D02*
X10463929Y-17695214D01*
X10463929Y-17723786D02*
X10478214Y-17709500D01*
X10506786Y-17695214D01*
X10549643Y-17695214D01*
X10578214Y-17709500D01*
X10592500Y-17738072D01*
X10592500Y-17895214D01*
X10592500Y-17738072D02*
X10606786Y-17709500D01*
X10635357Y-17695214D01*
X10678214Y-17695214D01*
X10706786Y-17709500D01*
X10721071Y-17738072D01*
X10721071Y-17895214D01*
X11306786Y-17580929D02*
X11049643Y-17966643D01*
X11692500Y-17595214D02*
X11721071Y-17595214D01*
X11749643Y-17609500D01*
X11763928Y-17623786D01*
X11778214Y-17652357D01*
X11792500Y-17709500D01*
X11792500Y-17780929D01*
X11778214Y-17838072D01*
X11763928Y-17866643D01*
X11749643Y-17880929D01*
X11721071Y-17895214D01*
X11692500Y-17895214D01*
X11663928Y-17880929D01*
X11649643Y-17866643D01*
X11635357Y-17838072D01*
X11621071Y-17780929D01*
X11621071Y-17709500D01*
X11635357Y-17652357D01*
X11649643Y-17623786D01*
X11663928Y-17609500D01*
X11692500Y-17595214D01*
X11921071Y-17866643D02*
X11935357Y-17880929D01*
X11921071Y-17895214D01*
X11906786Y-17880929D01*
X11921071Y-17866643D01*
X11921071Y-17895214D01*
X12121071Y-17595214D02*
X12149643Y-17595214D01*
X12178214Y-17609500D01*
X12192500Y-17623786D01*
X12206785Y-17652357D01*
X12221071Y-17709500D01*
X12221071Y-17780929D01*
X12206785Y-17838072D01*
X12192500Y-17866643D01*
X12178214Y-17880929D01*
X12149643Y-17895214D01*
X12121071Y-17895214D01*
X12092500Y-17880929D01*
X12078214Y-17866643D01*
X12063928Y-17838072D01*
X12049643Y-17780929D01*
X12049643Y-17709500D01*
X12063928Y-17652357D01*
X12078214Y-17623786D01*
X12092500Y-17609500D01*
X12121071Y-17595214D01*
X12335357Y-17623786D02*
X12349643Y-17609500D01*
X12378214Y-17595214D01*
X12449643Y-17595214D01*
X12478214Y-17609500D01*
X12492500Y-17623786D01*
X12506785Y-17652357D01*
X12506785Y-17680929D01*
X12492500Y-17723786D01*
X12321071Y-17895214D01*
X12506785Y-17895214D01*
X12678214Y-17723786D02*
X12649643Y-17709500D01*
X12635357Y-17695214D01*
X12621071Y-17666643D01*
X12621071Y-17652357D01*
X12635357Y-17623786D01*
X12649643Y-17609500D01*
X12678214Y-17595214D01*
X12735357Y-17595214D01*
X12763928Y-17609500D01*
X12778214Y-17623786D01*
X12792500Y-17652357D01*
X12792500Y-17666643D01*
X12778214Y-17695214D01*
X12763928Y-17709500D01*
X12735357Y-17723786D01*
X12678214Y-17723786D01*
X12649643Y-17738072D01*
X12635357Y-17752357D01*
X12621071Y-17780929D01*
X12621071Y-17838072D01*
X12635357Y-17866643D01*
X12649643Y-17880929D01*
X12678214Y-17895214D01*
X12735357Y-17895214D01*
X12763928Y-17880929D01*
X12778214Y-17866643D01*
X12792500Y-17838072D01*
X12792500Y-17780929D01*
X12778214Y-17752357D01*
X12763928Y-17738072D01*
X12735357Y-17723786D01*
X12906786Y-17595214D02*
X12906786Y-17652357D01*
X13021071Y-17595214D02*
X13021071Y-17652357D01*
X13463928Y-18009500D02*
X13449643Y-17995214D01*
X13421071Y-17952357D01*
X13406785Y-17923786D01*
X13392500Y-17880929D01*
X13378214Y-17809500D01*
X13378214Y-17752357D01*
X13392500Y-17680929D01*
X13406785Y-17638072D01*
X13421071Y-17609500D01*
X13449643Y-17566643D01*
X13463928Y-17552357D01*
X13706785Y-17695214D02*
X13706785Y-17895214D01*
X13635357Y-17580929D02*
X13563928Y-17795214D01*
X13749643Y-17795214D01*
X14092500Y-17895214D02*
X14092500Y-17595214D01*
X14221071Y-17895214D02*
X14221071Y-17738072D01*
X14206785Y-17709500D01*
X14178214Y-17695214D01*
X14135357Y-17695214D01*
X14106785Y-17709500D01*
X14092500Y-17723786D01*
X14406785Y-17895214D02*
X14378214Y-17880929D01*
X14363928Y-17866643D01*
X14349643Y-17838072D01*
X14349643Y-17752357D01*
X14363928Y-17723786D01*
X14378214Y-17709500D01*
X14406785Y-17695214D01*
X14449643Y-17695214D01*
X14478214Y-17709500D01*
X14492500Y-17723786D01*
X14506785Y-17752357D01*
X14506785Y-17838072D01*
X14492500Y-17866643D01*
X14478214Y-17880929D01*
X14449643Y-17895214D01*
X14406785Y-17895214D01*
X14678214Y-17895214D02*
X14649643Y-17880929D01*
X14635357Y-17852357D01*
X14635357Y-17595214D01*
X14906786Y-17880929D02*
X14878214Y-17895214D01*
X14821071Y-17895214D01*
X14792500Y-17880929D01*
X14778214Y-17852357D01*
X14778214Y-17738072D01*
X14792500Y-17709500D01*
X14821071Y-17695214D01*
X14878214Y-17695214D01*
X14906786Y-17709500D01*
X14921071Y-17738072D01*
X14921071Y-17766643D01*
X14778214Y-17795214D01*
X15035357Y-17880929D02*
X15063928Y-17895214D01*
X15121071Y-17895214D01*
X15149643Y-17880929D01*
X15163928Y-17852357D01*
X15163928Y-17838072D01*
X15149643Y-17809500D01*
X15121071Y-17795214D01*
X15078214Y-17795214D01*
X15049643Y-17780929D01*
X15035357Y-17752357D01*
X15035357Y-17738072D01*
X15049643Y-17709500D01*
X15078214Y-17695214D01*
X15121071Y-17695214D01*
X15149643Y-17709500D01*
X15263928Y-18009500D02*
X15278214Y-17995214D01*
X15306786Y-17952357D01*
X15321071Y-17923786D01*
X15335357Y-17880929D01*
X15349643Y-17809500D01*
X15349643Y-17752357D01*
X15335357Y-17680929D01*
X15321071Y-17638072D01*
X15306786Y-17609500D01*
X15278214Y-17566643D01*
X15263928Y-17552357D01*
X8781341Y-18182441D02*
X8781341Y-18128559D01*
X8727459Y-18128559D01*
X8727459Y-18182441D01*
X8781341Y-18182441D01*
X9121071Y-17991214D02*
X9149643Y-17991214D01*
X9178214Y-18005500D01*
X9192500Y-18019786D01*
X9206786Y-18048357D01*
X9221071Y-18105500D01*
X9221071Y-18176929D01*
X9206786Y-18234072D01*
X9192500Y-18262643D01*
X9178214Y-18276929D01*
X9149643Y-18291214D01*
X9121071Y-18291214D01*
X9092500Y-18276929D01*
X9078214Y-18262643D01*
X9063929Y-18234072D01*
X9049643Y-18176929D01*
X9049643Y-18105500D01*
X9063929Y-18048357D01*
X9078214Y-18019786D01*
X9092500Y-18005500D01*
X9121071Y-17991214D01*
X9349643Y-18262643D02*
X9363929Y-18276929D01*
X9349643Y-18291214D01*
X9335357Y-18276929D01*
X9349643Y-18262643D01*
X9349643Y-18291214D01*
X9463928Y-17991214D02*
X9663928Y-17991214D01*
X9535357Y-18291214D01*
X9906786Y-17991214D02*
X9849643Y-17991214D01*
X9821071Y-18005500D01*
X9806786Y-18019786D01*
X9778214Y-18062643D01*
X9763929Y-18119786D01*
X9763929Y-18234072D01*
X9778214Y-18262643D01*
X9792500Y-18276929D01*
X9821071Y-18291214D01*
X9878214Y-18291214D01*
X9906786Y-18276929D01*
X9921071Y-18262643D01*
X9935357Y-18234072D01*
X9935357Y-18162643D01*
X9921071Y-18134072D01*
X9906786Y-18119786D01*
X9878214Y-18105500D01*
X9821071Y-18105500D01*
X9792500Y-18119786D01*
X9778214Y-18134072D01*
X9763929Y-18162643D01*
X10063929Y-18291214D02*
X10063929Y-18091214D01*
X10063929Y-18119786D02*
X10078214Y-18105500D01*
X10106786Y-18091214D01*
X10149643Y-18091214D01*
X10178214Y-18105500D01*
X10192500Y-18134072D01*
X10192500Y-18291214D01*
X10192500Y-18134072D02*
X10206786Y-18105500D01*
X10235357Y-18091214D01*
X10278214Y-18091214D01*
X10306786Y-18105500D01*
X10321071Y-18134072D01*
X10321071Y-18291214D01*
X10463929Y-18291214D02*
X10463929Y-18091214D01*
X10463929Y-18119786D02*
X10478214Y-18105500D01*
X10506786Y-18091214D01*
X10549643Y-18091214D01*
X10578214Y-18105500D01*
X10592500Y-18134072D01*
X10592500Y-18291214D01*
X10592500Y-18134072D02*
X10606786Y-18105500D01*
X10635357Y-18091214D01*
X10678214Y-18091214D01*
X10706786Y-18105500D01*
X10721071Y-18134072D01*
X10721071Y-18291214D01*
X11306786Y-17976929D02*
X11049643Y-18362643D01*
X11692500Y-17991214D02*
X11721071Y-17991214D01*
X11749643Y-18005500D01*
X11763928Y-18019786D01*
X11778214Y-18048357D01*
X11792500Y-18105500D01*
X11792500Y-18176929D01*
X11778214Y-18234072D01*
X11763928Y-18262643D01*
X11749643Y-18276929D01*
X11721071Y-18291214D01*
X11692500Y-18291214D01*
X11663928Y-18276929D01*
X11649643Y-18262643D01*
X11635357Y-18234072D01*
X11621071Y-18176929D01*
X11621071Y-18105500D01*
X11635357Y-18048357D01*
X11649643Y-18019786D01*
X11663928Y-18005500D01*
X11692500Y-17991214D01*
X11921071Y-18262643D02*
X11935357Y-18276929D01*
X11921071Y-18291214D01*
X11906786Y-18276929D01*
X11921071Y-18262643D01*
X11921071Y-18291214D01*
X12121071Y-17991214D02*
X12149643Y-17991214D01*
X12178214Y-18005500D01*
X12192500Y-18019786D01*
X12206785Y-18048357D01*
X12221071Y-18105500D01*
X12221071Y-18176929D01*
X12206785Y-18234072D01*
X12192500Y-18262643D01*
X12178214Y-18276929D01*
X12149643Y-18291214D01*
X12121071Y-18291214D01*
X12092500Y-18276929D01*
X12078214Y-18262643D01*
X12063928Y-18234072D01*
X12049643Y-18176929D01*
X12049643Y-18105500D01*
X12063928Y-18048357D01*
X12078214Y-18019786D01*
X12092500Y-18005500D01*
X12121071Y-17991214D01*
X12321071Y-17991214D02*
X12506785Y-17991214D01*
X12406785Y-18105500D01*
X12449643Y-18105500D01*
X12478214Y-18119786D01*
X12492500Y-18134072D01*
X12506785Y-18162643D01*
X12506785Y-18234072D01*
X12492500Y-18262643D01*
X12478214Y-18276929D01*
X12449643Y-18291214D01*
X12363928Y-18291214D01*
X12335357Y-18276929D01*
X12321071Y-18262643D01*
X12692500Y-17991214D02*
X12721071Y-17991214D01*
X12749643Y-18005500D01*
X12763928Y-18019786D01*
X12778214Y-18048357D01*
X12792500Y-18105500D01*
X12792500Y-18176929D01*
X12778214Y-18234072D01*
X12763928Y-18262643D01*
X12749643Y-18276929D01*
X12721071Y-18291214D01*
X12692500Y-18291214D01*
X12663928Y-18276929D01*
X12649643Y-18262643D01*
X12635357Y-18234072D01*
X12621071Y-18176929D01*
X12621071Y-18105500D01*
X12635357Y-18048357D01*
X12649643Y-18019786D01*
X12663928Y-18005500D01*
X12692500Y-17991214D01*
X12906786Y-17991214D02*
X12906786Y-18048357D01*
X13021071Y-17991214D02*
X13021071Y-18048357D01*
X13463928Y-18405500D02*
X13449643Y-18391214D01*
X13421071Y-18348357D01*
X13406785Y-18319786D01*
X13392500Y-18276929D01*
X13378214Y-18205500D01*
X13378214Y-18148357D01*
X13392500Y-18076929D01*
X13406785Y-18034072D01*
X13421071Y-18005500D01*
X13449643Y-17962643D01*
X13463928Y-17948357D01*
X13549643Y-17991214D02*
X13749643Y-17991214D01*
X13621071Y-18291214D01*
X13906785Y-18119786D02*
X13878214Y-18105500D01*
X13863928Y-18091214D01*
X13849643Y-18062643D01*
X13849643Y-18048357D01*
X13863928Y-18019786D01*
X13878214Y-18005500D01*
X13906785Y-17991214D01*
X13963928Y-17991214D01*
X13992500Y-18005500D01*
X14006785Y-18019786D01*
X14021071Y-18048357D01*
X14021071Y-18062643D01*
X14006785Y-18091214D01*
X13992500Y-18105500D01*
X13963928Y-18119786D01*
X13906785Y-18119786D01*
X13878214Y-18134072D01*
X13863928Y-18148357D01*
X13849643Y-18176929D01*
X13849643Y-18234072D01*
X13863928Y-18262643D01*
X13878214Y-18276929D01*
X13906785Y-18291214D01*
X13963928Y-18291214D01*
X13992500Y-18276929D01*
X14006785Y-18262643D01*
X14021071Y-18234072D01*
X14021071Y-18176929D01*
X14006785Y-18148357D01*
X13992500Y-18134072D01*
X13963928Y-18119786D01*
X14378214Y-18291214D02*
X14378214Y-17991214D01*
X14506785Y-18291214D02*
X14506785Y-18134072D01*
X14492500Y-18105500D01*
X14463928Y-18091214D01*
X14421071Y-18091214D01*
X14392500Y-18105500D01*
X14378214Y-18119786D01*
X14692500Y-18291214D02*
X14663928Y-18276929D01*
X14649643Y-18262643D01*
X14635357Y-18234072D01*
X14635357Y-18148357D01*
X14649643Y-18119786D01*
X14663928Y-18105500D01*
X14692500Y-18091214D01*
X14735357Y-18091214D01*
X14763928Y-18105500D01*
X14778214Y-18119786D01*
X14792500Y-18148357D01*
X14792500Y-18234072D01*
X14778214Y-18262643D01*
X14763928Y-18276929D01*
X14735357Y-18291214D01*
X14692500Y-18291214D01*
X14963928Y-18291214D02*
X14935357Y-18276929D01*
X14921071Y-18248357D01*
X14921071Y-17991214D01*
X15192500Y-18276929D02*
X15163928Y-18291214D01*
X15106786Y-18291214D01*
X15078214Y-18276929D01*
X15063928Y-18248357D01*
X15063928Y-18134072D01*
X15078214Y-18105500D01*
X15106786Y-18091214D01*
X15163928Y-18091214D01*
X15192500Y-18105500D01*
X15206786Y-18134072D01*
X15206786Y-18162643D01*
X15063928Y-18191214D01*
X15321071Y-18276929D02*
X15349643Y-18291214D01*
X15406786Y-18291214D01*
X15435357Y-18276929D01*
X15449643Y-18248357D01*
X15449643Y-18234072D01*
X15435357Y-18205500D01*
X15406786Y-18191214D01*
X15363928Y-18191214D01*
X15335357Y-18176929D01*
X15321071Y-18148357D01*
X15321071Y-18134072D01*
X15335357Y-18105500D01*
X15363928Y-18091214D01*
X15406786Y-18091214D01*
X15435357Y-18105500D01*
X15549643Y-18405500D02*
X15563928Y-18391214D01*
X15592500Y-18348357D01*
X15606786Y-18319786D01*
X15621071Y-18276929D01*
X15635357Y-18205500D01*
X15635357Y-18148357D01*
X15621071Y-18076929D01*
X15606786Y-18034072D01*
X15592500Y-18005500D01*
X15563928Y-17962643D01*
X15549643Y-17948357D01*
X8752500Y-18591500D02*
X8792500Y-18551500D01*
X8752500Y-18511500D01*
X8712500Y-18551500D01*
X8752500Y-18591500D01*
X9121071Y-18387214D02*
X9149643Y-18387214D01*
X9178214Y-18401500D01*
X9192500Y-18415786D01*
X9206786Y-18444357D01*
X9221071Y-18501500D01*
X9221071Y-18572929D01*
X9206786Y-18630072D01*
X9192500Y-18658643D01*
X9178214Y-18672929D01*
X9149643Y-18687214D01*
X9121071Y-18687214D01*
X9092500Y-18672929D01*
X9078214Y-18658643D01*
X9063929Y-18630072D01*
X9049643Y-18572929D01*
X9049643Y-18501500D01*
X9063929Y-18444357D01*
X9078214Y-18415786D01*
X9092500Y-18401500D01*
X9121071Y-18387214D01*
X9349643Y-18658643D02*
X9363929Y-18672929D01*
X9349643Y-18687214D01*
X9335357Y-18672929D01*
X9349643Y-18658643D01*
X9349643Y-18687214D01*
X9535357Y-18515786D02*
X9506786Y-18501500D01*
X9492500Y-18487214D01*
X9478214Y-18458643D01*
X9478214Y-18444357D01*
X9492500Y-18415786D01*
X9506786Y-18401500D01*
X9535357Y-18387214D01*
X9592500Y-18387214D01*
X9621071Y-18401500D01*
X9635357Y-18415786D01*
X9649643Y-18444357D01*
X9649643Y-18458643D01*
X9635357Y-18487214D01*
X9621071Y-18501500D01*
X9592500Y-18515786D01*
X9535357Y-18515786D01*
X9506786Y-18530072D01*
X9492500Y-18544357D01*
X9478214Y-18572929D01*
X9478214Y-18630072D01*
X9492500Y-18658643D01*
X9506786Y-18672929D01*
X9535357Y-18687214D01*
X9592500Y-18687214D01*
X9621071Y-18672929D01*
X9635357Y-18658643D01*
X9649643Y-18630072D01*
X9649643Y-18572929D01*
X9635357Y-18544357D01*
X9621071Y-18530072D01*
X9592500Y-18515786D01*
X9835357Y-18387214D02*
X9863929Y-18387214D01*
X9892500Y-18401500D01*
X9906786Y-18415786D01*
X9921071Y-18444357D01*
X9935357Y-18501500D01*
X9935357Y-18572929D01*
X9921071Y-18630072D01*
X9906786Y-18658643D01*
X9892500Y-18672929D01*
X9863929Y-18687214D01*
X9835357Y-18687214D01*
X9806786Y-18672929D01*
X9792500Y-18658643D01*
X9778214Y-18630072D01*
X9763929Y-18572929D01*
X9763929Y-18501500D01*
X9778214Y-18444357D01*
X9792500Y-18415786D01*
X9806786Y-18401500D01*
X9835357Y-18387214D01*
X10063929Y-18687214D02*
X10063929Y-18487214D01*
X10063929Y-18515786D02*
X10078214Y-18501500D01*
X10106786Y-18487214D01*
X10149643Y-18487214D01*
X10178214Y-18501500D01*
X10192500Y-18530072D01*
X10192500Y-18687214D01*
X10192500Y-18530072D02*
X10206786Y-18501500D01*
X10235357Y-18487214D01*
X10278214Y-18487214D01*
X10306786Y-18501500D01*
X10321071Y-18530072D01*
X10321071Y-18687214D01*
X10463929Y-18687214D02*
X10463929Y-18487214D01*
X10463929Y-18515786D02*
X10478214Y-18501500D01*
X10506786Y-18487214D01*
X10549643Y-18487214D01*
X10578214Y-18501500D01*
X10592500Y-18530072D01*
X10592500Y-18687214D01*
X10592500Y-18530072D02*
X10606786Y-18501500D01*
X10635357Y-18487214D01*
X10678214Y-18487214D01*
X10706786Y-18501500D01*
X10721071Y-18530072D01*
X10721071Y-18687214D01*
X11306786Y-18372929D02*
X11049643Y-18758643D01*
X11692500Y-18387214D02*
X11721071Y-18387214D01*
X11749643Y-18401500D01*
X11763928Y-18415786D01*
X11778214Y-18444357D01*
X11792500Y-18501500D01*
X11792500Y-18572929D01*
X11778214Y-18630072D01*
X11763928Y-18658643D01*
X11749643Y-18672929D01*
X11721071Y-18687214D01*
X11692500Y-18687214D01*
X11663928Y-18672929D01*
X11649643Y-18658643D01*
X11635357Y-18630072D01*
X11621071Y-18572929D01*
X11621071Y-18501500D01*
X11635357Y-18444357D01*
X11649643Y-18415786D01*
X11663928Y-18401500D01*
X11692500Y-18387214D01*
X11921071Y-18658643D02*
X11935357Y-18672929D01*
X11921071Y-18687214D01*
X11906786Y-18672929D01*
X11921071Y-18658643D01*
X11921071Y-18687214D01*
X12121071Y-18387214D02*
X12149643Y-18387214D01*
X12178214Y-18401500D01*
X12192500Y-18415786D01*
X12206785Y-18444357D01*
X12221071Y-18501500D01*
X12221071Y-18572929D01*
X12206785Y-18630072D01*
X12192500Y-18658643D01*
X12178214Y-18672929D01*
X12149643Y-18687214D01*
X12121071Y-18687214D01*
X12092500Y-18672929D01*
X12078214Y-18658643D01*
X12063928Y-18630072D01*
X12049643Y-18572929D01*
X12049643Y-18501500D01*
X12063928Y-18444357D01*
X12078214Y-18415786D01*
X12092500Y-18401500D01*
X12121071Y-18387214D01*
X12321071Y-18387214D02*
X12506785Y-18387214D01*
X12406785Y-18501500D01*
X12449643Y-18501500D01*
X12478214Y-18515786D01*
X12492500Y-18530072D01*
X12506785Y-18558643D01*
X12506785Y-18630072D01*
X12492500Y-18658643D01*
X12478214Y-18672929D01*
X12449643Y-18687214D01*
X12363928Y-18687214D01*
X12335357Y-18672929D01*
X12321071Y-18658643D01*
X12792500Y-18687214D02*
X12621071Y-18687214D01*
X12706785Y-18687214D02*
X12706785Y-18387214D01*
X12678214Y-18430072D01*
X12649643Y-18458643D01*
X12621071Y-18472929D01*
X12906786Y-18387214D02*
X12906786Y-18444357D01*
X13021071Y-18387214D02*
X13021071Y-18444357D01*
X13463928Y-18801500D02*
X13449643Y-18787214D01*
X13421071Y-18744357D01*
X13406785Y-18715786D01*
X13392500Y-18672929D01*
X13378214Y-18601500D01*
X13378214Y-18544357D01*
X13392500Y-18472929D01*
X13406785Y-18430072D01*
X13421071Y-18401500D01*
X13449643Y-18358643D01*
X13463928Y-18344357D01*
X13706785Y-18487214D02*
X13706785Y-18687214D01*
X13635357Y-18372929D02*
X13563928Y-18587214D01*
X13749643Y-18587214D01*
X13992500Y-18487214D02*
X13992500Y-18687214D01*
X13921071Y-18372929D02*
X13849643Y-18587214D01*
X14035357Y-18587214D01*
X14378214Y-18687214D02*
X14378214Y-18387214D01*
X14506785Y-18687214D02*
X14506785Y-18530072D01*
X14492500Y-18501500D01*
X14463928Y-18487214D01*
X14421071Y-18487214D01*
X14392500Y-18501500D01*
X14378214Y-18515786D01*
X14692500Y-18687214D02*
X14663928Y-18672929D01*
X14649643Y-18658643D01*
X14635357Y-18630072D01*
X14635357Y-18544357D01*
X14649643Y-18515786D01*
X14663928Y-18501500D01*
X14692500Y-18487214D01*
X14735357Y-18487214D01*
X14763928Y-18501500D01*
X14778214Y-18515786D01*
X14792500Y-18544357D01*
X14792500Y-18630072D01*
X14778214Y-18658643D01*
X14763928Y-18672929D01*
X14735357Y-18687214D01*
X14692500Y-18687214D01*
X14963928Y-18687214D02*
X14935357Y-18672929D01*
X14921071Y-18644357D01*
X14921071Y-18387214D01*
X15192500Y-18672929D02*
X15163928Y-18687214D01*
X15106786Y-18687214D01*
X15078214Y-18672929D01*
X15063928Y-18644357D01*
X15063928Y-18530072D01*
X15078214Y-18501500D01*
X15106786Y-18487214D01*
X15163928Y-18487214D01*
X15192500Y-18501500D01*
X15206786Y-18530072D01*
X15206786Y-18558643D01*
X15063928Y-18587214D01*
X15321071Y-18672929D02*
X15349643Y-18687214D01*
X15406786Y-18687214D01*
X15435357Y-18672929D01*
X15449643Y-18644357D01*
X15449643Y-18630072D01*
X15435357Y-18601500D01*
X15406786Y-18587214D01*
X15363928Y-18587214D01*
X15335357Y-18572929D01*
X15321071Y-18544357D01*
X15321071Y-18530072D01*
X15335357Y-18501500D01*
X15363928Y-18487214D01*
X15406786Y-18487214D01*
X15435357Y-18501500D01*
X15549643Y-18801500D02*
X15563928Y-18787214D01*
X15592500Y-18744357D01*
X15606786Y-18715786D01*
X15621071Y-18672929D01*
X15635357Y-18601500D01*
X15635357Y-18544357D01*
X15621071Y-18472929D01*
X15606786Y-18430072D01*
X15592500Y-18401500D01*
X15563928Y-18358643D01*
X15549643Y-18344357D01*
X8692424Y-18897462D02*
X8792500Y-18997538D01*
X8792500Y-18897462D02*
X8692424Y-18997538D01*
X8792500Y-18947500D02*
G75*
G03X8792500Y-18947500I-50038J0D01*
G01*
X9221071Y-19083214D02*
X9049643Y-19083214D01*
X9135357Y-19083214D02*
X9135357Y-18783214D01*
X9106786Y-18826072D01*
X9078214Y-18854643D01*
X9049643Y-18868929D01*
X9349643Y-19054643D02*
X9363929Y-19068929D01*
X9349643Y-19083214D01*
X9335357Y-19068929D01*
X9349643Y-19054643D01*
X9349643Y-19083214D01*
X9549643Y-18783214D02*
X9578214Y-18783214D01*
X9606786Y-18797500D01*
X9621071Y-18811786D01*
X9635357Y-18840357D01*
X9649643Y-18897500D01*
X9649643Y-18968929D01*
X9635357Y-19026072D01*
X9621071Y-19054643D01*
X9606786Y-19068929D01*
X9578214Y-19083214D01*
X9549643Y-19083214D01*
X9521071Y-19068929D01*
X9506786Y-19054643D01*
X9492500Y-19026072D01*
X9478214Y-18968929D01*
X9478214Y-18897500D01*
X9492500Y-18840357D01*
X9506786Y-18811786D01*
X9521071Y-18797500D01*
X9549643Y-18783214D01*
X9835357Y-18783214D02*
X9863929Y-18783214D01*
X9892500Y-18797500D01*
X9906786Y-18811786D01*
X9921071Y-18840357D01*
X9935357Y-18897500D01*
X9935357Y-18968929D01*
X9921071Y-19026072D01*
X9906786Y-19054643D01*
X9892500Y-19068929D01*
X9863929Y-19083214D01*
X9835357Y-19083214D01*
X9806786Y-19068929D01*
X9792500Y-19054643D01*
X9778214Y-19026072D01*
X9763929Y-18968929D01*
X9763929Y-18897500D01*
X9778214Y-18840357D01*
X9792500Y-18811786D01*
X9806786Y-18797500D01*
X9835357Y-18783214D01*
X10063929Y-19083214D02*
X10063929Y-18883214D01*
X10063929Y-18911786D02*
X10078214Y-18897500D01*
X10106786Y-18883214D01*
X10149643Y-18883214D01*
X10178214Y-18897500D01*
X10192500Y-18926072D01*
X10192500Y-19083214D01*
X10192500Y-18926072D02*
X10206786Y-18897500D01*
X10235357Y-18883214D01*
X10278214Y-18883214D01*
X10306786Y-18897500D01*
X10321071Y-18926072D01*
X10321071Y-19083214D01*
X10463929Y-19083214D02*
X10463929Y-18883214D01*
X10463929Y-18911786D02*
X10478214Y-18897500D01*
X10506786Y-18883214D01*
X10549643Y-18883214D01*
X10578214Y-18897500D01*
X10592500Y-18926072D01*
X10592500Y-19083214D01*
X10592500Y-18926072D02*
X10606786Y-18897500D01*
X10635357Y-18883214D01*
X10678214Y-18883214D01*
X10706786Y-18897500D01*
X10721071Y-18926072D01*
X10721071Y-19083214D01*
X11306786Y-18768929D02*
X11049643Y-19154643D01*
X11692500Y-18783214D02*
X11721071Y-18783214D01*
X11749643Y-18797500D01*
X11763928Y-18811786D01*
X11778214Y-18840357D01*
X11792500Y-18897500D01*
X11792500Y-18968929D01*
X11778214Y-19026072D01*
X11763928Y-19054643D01*
X11749643Y-19068929D01*
X11721071Y-19083214D01*
X11692500Y-19083214D01*
X11663928Y-19068929D01*
X11649643Y-19054643D01*
X11635357Y-19026072D01*
X11621071Y-18968929D01*
X11621071Y-18897500D01*
X11635357Y-18840357D01*
X11649643Y-18811786D01*
X11663928Y-18797500D01*
X11692500Y-18783214D01*
X11921071Y-19054643D02*
X11935357Y-19068929D01*
X11921071Y-19083214D01*
X11906786Y-19068929D01*
X11921071Y-19054643D01*
X11921071Y-19083214D01*
X12121071Y-18783214D02*
X12149643Y-18783214D01*
X12178214Y-18797500D01*
X12192500Y-18811786D01*
X12206785Y-18840357D01*
X12221071Y-18897500D01*
X12221071Y-18968929D01*
X12206785Y-19026072D01*
X12192500Y-19054643D01*
X12178214Y-19068929D01*
X12149643Y-19083214D01*
X12121071Y-19083214D01*
X12092500Y-19068929D01*
X12078214Y-19054643D01*
X12063928Y-19026072D01*
X12049643Y-18968929D01*
X12049643Y-18897500D01*
X12063928Y-18840357D01*
X12078214Y-18811786D01*
X12092500Y-18797500D01*
X12121071Y-18783214D01*
X12321071Y-18783214D02*
X12506785Y-18783214D01*
X12406785Y-18897500D01*
X12449643Y-18897500D01*
X12478214Y-18911786D01*
X12492500Y-18926072D01*
X12506785Y-18954643D01*
X12506785Y-19026072D01*
X12492500Y-19054643D01*
X12478214Y-19068929D01*
X12449643Y-19083214D01*
X12363928Y-19083214D01*
X12335357Y-19068929D01*
X12321071Y-19054643D01*
X12649643Y-19083214D02*
X12706785Y-19083214D01*
X12735357Y-19068929D01*
X12749643Y-19054643D01*
X12778214Y-19011786D01*
X12792500Y-18954643D01*
X12792500Y-18840357D01*
X12778214Y-18811786D01*
X12763928Y-18797500D01*
X12735357Y-18783214D01*
X12678214Y-18783214D01*
X12649643Y-18797500D01*
X12635357Y-18811786D01*
X12621071Y-18840357D01*
X12621071Y-18911786D01*
X12635357Y-18940357D01*
X12649643Y-18954643D01*
X12678214Y-18968929D01*
X12735357Y-18968929D01*
X12763928Y-18954643D01*
X12778214Y-18940357D01*
X12792500Y-18911786D01*
X12906786Y-18783214D02*
X12906786Y-18840357D01*
X13021071Y-18783214D02*
X13021071Y-18840357D01*
X13463928Y-19197500D02*
X13449643Y-19183214D01*
X13421071Y-19140357D01*
X13406785Y-19111786D01*
X13392500Y-19068929D01*
X13378214Y-18997500D01*
X13378214Y-18940357D01*
X13392500Y-18868929D01*
X13406785Y-18826072D01*
X13421071Y-18797500D01*
X13449643Y-18754643D01*
X13463928Y-18740357D01*
X13563928Y-18811786D02*
X13578214Y-18797500D01*
X13606785Y-18783214D01*
X13678214Y-18783214D01*
X13706785Y-18797500D01*
X13721071Y-18811786D01*
X13735357Y-18840357D01*
X13735357Y-18868929D01*
X13721071Y-18911786D01*
X13549643Y-19083214D01*
X13735357Y-19083214D01*
X13992500Y-18783214D02*
X13935357Y-18783214D01*
X13906785Y-18797500D01*
X13892500Y-18811786D01*
X13863928Y-18854643D01*
X13849643Y-18911786D01*
X13849643Y-19026072D01*
X13863928Y-19054643D01*
X13878214Y-19068929D01*
X13906785Y-19083214D01*
X13963928Y-19083214D01*
X13992500Y-19068929D01*
X14006785Y-19054643D01*
X14021071Y-19026072D01*
X14021071Y-18954643D01*
X14006785Y-18926072D01*
X13992500Y-18911786D01*
X13963928Y-18897500D01*
X13906785Y-18897500D01*
X13878214Y-18911786D01*
X13863928Y-18926072D01*
X13849643Y-18954643D01*
X14378214Y-19083214D02*
X14378214Y-18783214D01*
X14506785Y-19083214D02*
X14506785Y-18926072D01*
X14492500Y-18897500D01*
X14463928Y-18883214D01*
X14421071Y-18883214D01*
X14392500Y-18897500D01*
X14378214Y-18911786D01*
X14692500Y-19083214D02*
X14663928Y-19068929D01*
X14649643Y-19054643D01*
X14635357Y-19026072D01*
X14635357Y-18940357D01*
X14649643Y-18911786D01*
X14663928Y-18897500D01*
X14692500Y-18883214D01*
X14735357Y-18883214D01*
X14763928Y-18897500D01*
X14778214Y-18911786D01*
X14792500Y-18940357D01*
X14792500Y-19026072D01*
X14778214Y-19054643D01*
X14763928Y-19068929D01*
X14735357Y-19083214D01*
X14692500Y-19083214D01*
X14963928Y-19083214D02*
X14935357Y-19068929D01*
X14921071Y-19040357D01*
X14921071Y-18783214D01*
X15192500Y-19068929D02*
X15163928Y-19083214D01*
X15106786Y-19083214D01*
X15078214Y-19068929D01*
X15063928Y-19040357D01*
X15063928Y-18926072D01*
X15078214Y-18897500D01*
X15106786Y-18883214D01*
X15163928Y-18883214D01*
X15192500Y-18897500D01*
X15206786Y-18926072D01*
X15206786Y-18954643D01*
X15063928Y-18983214D01*
X15321071Y-19068929D02*
X15349643Y-19083214D01*
X15406786Y-19083214D01*
X15435357Y-19068929D01*
X15449643Y-19040357D01*
X15449643Y-19026072D01*
X15435357Y-18997500D01*
X15406786Y-18983214D01*
X15363928Y-18983214D01*
X15335357Y-18968929D01*
X15321071Y-18940357D01*
X15321071Y-18926072D01*
X15335357Y-18897500D01*
X15363928Y-18883214D01*
X15406786Y-18883214D01*
X15435357Y-18897500D01*
X15549643Y-19197500D02*
X15563928Y-19183214D01*
X15592500Y-19140357D01*
X15606786Y-19111786D01*
X15621071Y-19068929D01*
X15635357Y-18997500D01*
X15635357Y-18940357D01*
X15621071Y-18868929D01*
X15606786Y-18826072D01*
X15592500Y-18797500D01*
X15563928Y-18754643D01*
X15549643Y-18740357D01*
X8690900Y-19292700D02*
X8792500Y-19394300D01*
X8792500Y-19292700D02*
X8690900Y-19394300D01*
X8741700Y-19292700D02*
X8741700Y-19394300D01*
X8690900Y-19343500D02*
X8792500Y-19343500D01*
X9221071Y-19479214D02*
X9049643Y-19479214D01*
X9135357Y-19479214D02*
X9135357Y-19179214D01*
X9106786Y-19222072D01*
X9078214Y-19250643D01*
X9049643Y-19264929D01*
X9349643Y-19450643D02*
X9363929Y-19464929D01*
X9349643Y-19479214D01*
X9335357Y-19464929D01*
X9349643Y-19450643D01*
X9349643Y-19479214D01*
X9549643Y-19179214D02*
X9578214Y-19179214D01*
X9606786Y-19193500D01*
X9621071Y-19207786D01*
X9635357Y-19236357D01*
X9649643Y-19293500D01*
X9649643Y-19364929D01*
X9635357Y-19422072D01*
X9621071Y-19450643D01*
X9606786Y-19464929D01*
X9578214Y-19479214D01*
X9549643Y-19479214D01*
X9521071Y-19464929D01*
X9506786Y-19450643D01*
X9492500Y-19422072D01*
X9478214Y-19364929D01*
X9478214Y-19293500D01*
X9492500Y-19236357D01*
X9506786Y-19207786D01*
X9521071Y-19193500D01*
X9549643Y-19179214D01*
X9763929Y-19207786D02*
X9778214Y-19193500D01*
X9806786Y-19179214D01*
X9878214Y-19179214D01*
X9906786Y-19193500D01*
X9921071Y-19207786D01*
X9935357Y-19236357D01*
X9935357Y-19264929D01*
X9921071Y-19307786D01*
X9749643Y-19479214D01*
X9935357Y-19479214D01*
X10063929Y-19479214D02*
X10063929Y-19279214D01*
X10063929Y-19307786D02*
X10078214Y-19293500D01*
X10106786Y-19279214D01*
X10149643Y-19279214D01*
X10178214Y-19293500D01*
X10192500Y-19322072D01*
X10192500Y-19479214D01*
X10192500Y-19322072D02*
X10206786Y-19293500D01*
X10235357Y-19279214D01*
X10278214Y-19279214D01*
X10306786Y-19293500D01*
X10321071Y-19322072D01*
X10321071Y-19479214D01*
X10463929Y-19479214D02*
X10463929Y-19279214D01*
X10463929Y-19307786D02*
X10478214Y-19293500D01*
X10506786Y-19279214D01*
X10549643Y-19279214D01*
X10578214Y-19293500D01*
X10592500Y-19322072D01*
X10592500Y-19479214D01*
X10592500Y-19322072D02*
X10606786Y-19293500D01*
X10635357Y-19279214D01*
X10678214Y-19279214D01*
X10706786Y-19293500D01*
X10721071Y-19322072D01*
X10721071Y-19479214D01*
X11306786Y-19164929D02*
X11049643Y-19550643D01*
X11692500Y-19179214D02*
X11721071Y-19179214D01*
X11749643Y-19193500D01*
X11763928Y-19207786D01*
X11778214Y-19236357D01*
X11792500Y-19293500D01*
X11792500Y-19364929D01*
X11778214Y-19422072D01*
X11763928Y-19450643D01*
X11749643Y-19464929D01*
X11721071Y-19479214D01*
X11692500Y-19479214D01*
X11663928Y-19464929D01*
X11649643Y-19450643D01*
X11635357Y-19422072D01*
X11621071Y-19364929D01*
X11621071Y-19293500D01*
X11635357Y-19236357D01*
X11649643Y-19207786D01*
X11663928Y-19193500D01*
X11692500Y-19179214D01*
X11921071Y-19450643D02*
X11935357Y-19464929D01*
X11921071Y-19479214D01*
X11906786Y-19464929D01*
X11921071Y-19450643D01*
X11921071Y-19479214D01*
X12121071Y-19179214D02*
X12149643Y-19179214D01*
X12178214Y-19193500D01*
X12192500Y-19207786D01*
X12206785Y-19236357D01*
X12221071Y-19293500D01*
X12221071Y-19364929D01*
X12206785Y-19422072D01*
X12192500Y-19450643D01*
X12178214Y-19464929D01*
X12149643Y-19479214D01*
X12121071Y-19479214D01*
X12092500Y-19464929D01*
X12078214Y-19450643D01*
X12063928Y-19422072D01*
X12049643Y-19364929D01*
X12049643Y-19293500D01*
X12063928Y-19236357D01*
X12078214Y-19207786D01*
X12092500Y-19193500D01*
X12121071Y-19179214D01*
X12478214Y-19279214D02*
X12478214Y-19479214D01*
X12406785Y-19164929D02*
X12335357Y-19379214D01*
X12521071Y-19379214D01*
X12692500Y-19179214D02*
X12721071Y-19179214D01*
X12749643Y-19193500D01*
X12763928Y-19207786D01*
X12778214Y-19236357D01*
X12792500Y-19293500D01*
X12792500Y-19364929D01*
X12778214Y-19422072D01*
X12763928Y-19450643D01*
X12749643Y-19464929D01*
X12721071Y-19479214D01*
X12692500Y-19479214D01*
X12663928Y-19464929D01*
X12649643Y-19450643D01*
X12635357Y-19422072D01*
X12621071Y-19364929D01*
X12621071Y-19293500D01*
X12635357Y-19236357D01*
X12649643Y-19207786D01*
X12663928Y-19193500D01*
X12692500Y-19179214D01*
X12906786Y-19179214D02*
X12906786Y-19236357D01*
X13021071Y-19179214D02*
X13021071Y-19236357D01*
X13463928Y-19593500D02*
X13449643Y-19579214D01*
X13421071Y-19536357D01*
X13406785Y-19507786D01*
X13392500Y-19464929D01*
X13378214Y-19393500D01*
X13378214Y-19336357D01*
X13392500Y-19264929D01*
X13406785Y-19222072D01*
X13421071Y-19193500D01*
X13449643Y-19150643D01*
X13463928Y-19136357D01*
X13721071Y-19179214D02*
X13578214Y-19179214D01*
X13563928Y-19322072D01*
X13578214Y-19307786D01*
X13606785Y-19293500D01*
X13678214Y-19293500D01*
X13706785Y-19307786D01*
X13721071Y-19322072D01*
X13735357Y-19350643D01*
X13735357Y-19422072D01*
X13721071Y-19450643D01*
X13706785Y-19464929D01*
X13678214Y-19479214D01*
X13606785Y-19479214D01*
X13578214Y-19464929D01*
X13563928Y-19450643D01*
X13992500Y-19279214D02*
X13992500Y-19479214D01*
X13921071Y-19164929D02*
X13849643Y-19379214D01*
X14035357Y-19379214D01*
X14378214Y-19479214D02*
X14378214Y-19179214D01*
X14506785Y-19479214D02*
X14506785Y-19322072D01*
X14492500Y-19293500D01*
X14463928Y-19279214D01*
X14421071Y-19279214D01*
X14392500Y-19293500D01*
X14378214Y-19307786D01*
X14692500Y-19479214D02*
X14663928Y-19464929D01*
X14649643Y-19450643D01*
X14635357Y-19422072D01*
X14635357Y-19336357D01*
X14649643Y-19307786D01*
X14663928Y-19293500D01*
X14692500Y-19279214D01*
X14735357Y-19279214D01*
X14763928Y-19293500D01*
X14778214Y-19307786D01*
X14792500Y-19336357D01*
X14792500Y-19422072D01*
X14778214Y-19450643D01*
X14763928Y-19464929D01*
X14735357Y-19479214D01*
X14692500Y-19479214D01*
X14963928Y-19479214D02*
X14935357Y-19464929D01*
X14921071Y-19436357D01*
X14921071Y-19179214D01*
X15192500Y-19464929D02*
X15163928Y-19479214D01*
X15106786Y-19479214D01*
X15078214Y-19464929D01*
X15063928Y-19436357D01*
X15063928Y-19322072D01*
X15078214Y-19293500D01*
X15106786Y-19279214D01*
X15163928Y-19279214D01*
X15192500Y-19293500D01*
X15206786Y-19322072D01*
X15206786Y-19350643D01*
X15063928Y-19379214D01*
X15321071Y-19464929D02*
X15349643Y-19479214D01*
X15406786Y-19479214D01*
X15435357Y-19464929D01*
X15449643Y-19436357D01*
X15449643Y-19422072D01*
X15435357Y-19393500D01*
X15406786Y-19379214D01*
X15363928Y-19379214D01*
X15335357Y-19364929D01*
X15321071Y-19336357D01*
X15321071Y-19322072D01*
X15335357Y-19293500D01*
X15363928Y-19279214D01*
X15406786Y-19279214D01*
X15435357Y-19293500D01*
X15549643Y-19593500D02*
X15563928Y-19579214D01*
X15592500Y-19536357D01*
X15606786Y-19507786D01*
X15621071Y-19464929D01*
X15635357Y-19393500D01*
X15635357Y-19336357D01*
X15621071Y-19264929D01*
X15606786Y-19222072D01*
X15592500Y-19193500D01*
X15563928Y-19150643D01*
X15549643Y-19136357D01*
X8462500Y-19574500D02*
X8792500Y-19904500D01*
X8792500Y-19574500D02*
X8462500Y-19904500D01*
X8744174Y-19856174D02*
X8744174Y-19622826D01*
X8510826Y-19622826D01*
X8510826Y-19856174D01*
X8744174Y-19856174D01*
X9035357Y-19575214D02*
X9221071Y-19575214D01*
X9121071Y-19689500D01*
X9163929Y-19689500D01*
X9192500Y-19703786D01*
X9206786Y-19718072D01*
X9221071Y-19746643D01*
X9221071Y-19818072D01*
X9206786Y-19846643D01*
X9192500Y-19860929D01*
X9163929Y-19875214D01*
X9078214Y-19875214D01*
X9049643Y-19860929D01*
X9035357Y-19846643D01*
X9349643Y-19846643D02*
X9363929Y-19860929D01*
X9349643Y-19875214D01*
X9335357Y-19860929D01*
X9349643Y-19846643D01*
X9349643Y-19875214D01*
X9463928Y-19575214D02*
X9649643Y-19575214D01*
X9549643Y-19689500D01*
X9592500Y-19689500D01*
X9621071Y-19703786D01*
X9635357Y-19718072D01*
X9649643Y-19746643D01*
X9649643Y-19818072D01*
X9635357Y-19846643D01*
X9621071Y-19860929D01*
X9592500Y-19875214D01*
X9506786Y-19875214D01*
X9478214Y-19860929D01*
X9463928Y-19846643D01*
X9835357Y-19575214D02*
X9863929Y-19575214D01*
X9892500Y-19589500D01*
X9906786Y-19603786D01*
X9921071Y-19632357D01*
X9935357Y-19689500D01*
X9935357Y-19760929D01*
X9921071Y-19818072D01*
X9906786Y-19846643D01*
X9892500Y-19860929D01*
X9863929Y-19875214D01*
X9835357Y-19875214D01*
X9806786Y-19860929D01*
X9792500Y-19846643D01*
X9778214Y-19818072D01*
X9763929Y-19760929D01*
X9763929Y-19689500D01*
X9778214Y-19632357D01*
X9792500Y-19603786D01*
X9806786Y-19589500D01*
X9835357Y-19575214D01*
X10063929Y-19875214D02*
X10063929Y-19675214D01*
X10063929Y-19703786D02*
X10078214Y-19689500D01*
X10106786Y-19675214D01*
X10149643Y-19675214D01*
X10178214Y-19689500D01*
X10192500Y-19718072D01*
X10192500Y-19875214D01*
X10192500Y-19718072D02*
X10206786Y-19689500D01*
X10235357Y-19675214D01*
X10278214Y-19675214D01*
X10306786Y-19689500D01*
X10321071Y-19718072D01*
X10321071Y-19875214D01*
X10463929Y-19875214D02*
X10463929Y-19675214D01*
X10463929Y-19703786D02*
X10478214Y-19689500D01*
X10506786Y-19675214D01*
X10549643Y-19675214D01*
X10578214Y-19689500D01*
X10592500Y-19718072D01*
X10592500Y-19875214D01*
X10592500Y-19718072D02*
X10606786Y-19689500D01*
X10635357Y-19675214D01*
X10678214Y-19675214D01*
X10706786Y-19689500D01*
X10721071Y-19718072D01*
X10721071Y-19875214D01*
X11306786Y-19560929D02*
X11049643Y-19946643D01*
X11692500Y-19575214D02*
X11721071Y-19575214D01*
X11749643Y-19589500D01*
X11763928Y-19603786D01*
X11778214Y-19632357D01*
X11792500Y-19689500D01*
X11792500Y-19760929D01*
X11778214Y-19818072D01*
X11763928Y-19846643D01*
X11749643Y-19860929D01*
X11721071Y-19875214D01*
X11692500Y-19875214D01*
X11663928Y-19860929D01*
X11649643Y-19846643D01*
X11635357Y-19818072D01*
X11621071Y-19760929D01*
X11621071Y-19689500D01*
X11635357Y-19632357D01*
X11649643Y-19603786D01*
X11663928Y-19589500D01*
X11692500Y-19575214D01*
X11921071Y-19846643D02*
X11935357Y-19860929D01*
X11921071Y-19875214D01*
X11906786Y-19860929D01*
X11921071Y-19846643D01*
X11921071Y-19875214D01*
X12221071Y-19875214D02*
X12049643Y-19875214D01*
X12135357Y-19875214D02*
X12135357Y-19575214D01*
X12106785Y-19618072D01*
X12078214Y-19646643D01*
X12049643Y-19660929D01*
X12321071Y-19575214D02*
X12506785Y-19575214D01*
X12406785Y-19689500D01*
X12449643Y-19689500D01*
X12478214Y-19703786D01*
X12492500Y-19718072D01*
X12506785Y-19746643D01*
X12506785Y-19818072D01*
X12492500Y-19846643D01*
X12478214Y-19860929D01*
X12449643Y-19875214D01*
X12363928Y-19875214D01*
X12335357Y-19860929D01*
X12321071Y-19846643D01*
X12692500Y-19575214D02*
X12721071Y-19575214D01*
X12749643Y-19589500D01*
X12763928Y-19603786D01*
X12778214Y-19632357D01*
X12792500Y-19689500D01*
X12792500Y-19760929D01*
X12778214Y-19818072D01*
X12763928Y-19846643D01*
X12749643Y-19860929D01*
X12721071Y-19875214D01*
X12692500Y-19875214D01*
X12663928Y-19860929D01*
X12649643Y-19846643D01*
X12635357Y-19818072D01*
X12621071Y-19760929D01*
X12621071Y-19689500D01*
X12635357Y-19632357D01*
X12649643Y-19603786D01*
X12663928Y-19589500D01*
X12692500Y-19575214D01*
X12906786Y-19575214D02*
X12906786Y-19632357D01*
X13021071Y-19575214D02*
X13021071Y-19632357D01*
X13463928Y-19989500D02*
X13449643Y-19975214D01*
X13421071Y-19932357D01*
X13406785Y-19903786D01*
X13392500Y-19860929D01*
X13378214Y-19789500D01*
X13378214Y-19732357D01*
X13392500Y-19660929D01*
X13406785Y-19618072D01*
X13421071Y-19589500D01*
X13449643Y-19546643D01*
X13463928Y-19532357D01*
X13706785Y-19675214D02*
X13706785Y-19875214D01*
X13635357Y-19560929D02*
X13563928Y-19775214D01*
X13749643Y-19775214D01*
X14092500Y-19875214D02*
X14092500Y-19575214D01*
X14221071Y-19875214D02*
X14221071Y-19718072D01*
X14206785Y-19689500D01*
X14178214Y-19675214D01*
X14135357Y-19675214D01*
X14106785Y-19689500D01*
X14092500Y-19703786D01*
X14406785Y-19875214D02*
X14378214Y-19860929D01*
X14363928Y-19846643D01*
X14349643Y-19818072D01*
X14349643Y-19732357D01*
X14363928Y-19703786D01*
X14378214Y-19689500D01*
X14406785Y-19675214D01*
X14449643Y-19675214D01*
X14478214Y-19689500D01*
X14492500Y-19703786D01*
X14506785Y-19732357D01*
X14506785Y-19818072D01*
X14492500Y-19846643D01*
X14478214Y-19860929D01*
X14449643Y-19875214D01*
X14406785Y-19875214D01*
X14678214Y-19875214D02*
X14649643Y-19860929D01*
X14635357Y-19832357D01*
X14635357Y-19575214D01*
X14906786Y-19860929D02*
X14878214Y-19875214D01*
X14821071Y-19875214D01*
X14792500Y-19860929D01*
X14778214Y-19832357D01*
X14778214Y-19718072D01*
X14792500Y-19689500D01*
X14821071Y-19675214D01*
X14878214Y-19675214D01*
X14906786Y-19689500D01*
X14921071Y-19718072D01*
X14921071Y-19746643D01*
X14778214Y-19775214D01*
X15035357Y-19860929D02*
X15063928Y-19875214D01*
X15121071Y-19875214D01*
X15149643Y-19860929D01*
X15163928Y-19832357D01*
X15163928Y-19818072D01*
X15149643Y-19789500D01*
X15121071Y-19775214D01*
X15078214Y-19775214D01*
X15049643Y-19760929D01*
X15035357Y-19732357D01*
X15035357Y-19718072D01*
X15049643Y-19689500D01*
X15078214Y-19675214D01*
X15121071Y-19675214D01*
X15149643Y-19689500D01*
X15263928Y-19989500D02*
X15278214Y-19975214D01*
X15306786Y-19932357D01*
X15321071Y-19903786D01*
X15335357Y-19860929D01*
X15349643Y-19789500D01*
X15349643Y-19732357D01*
X15335357Y-19660929D01*
X15321071Y-19618072D01*
X15306786Y-19589500D01*
X15278214Y-19546643D01*
X15263928Y-19532357D01*
M02*
